/* XPM */
static char * background_xpm[] = {
"64 64 516 2",
"  	c #3B4794",
". 	c #FCF67C",
"+ 	c #3C4896",
"@ 	c #3D4999",
"# 	c #3E4B9C",
"$ 	c #3F4C9F",
"% 	c #404EA2",
"& 	c #414FA4",
"* 	c #4351A7",
"= 	c #4452AA",
"- 	c #4553AD",
"; 	c #4655B0",
"> 	c #4756B2",
", 	c #4858B5",
"' 	c #4A59B8",
") 	c #4B5BBB",
"! 	c #4C5CBE",
"~ 	c #000000",
"{ 	c #FBF236",
"] 	c #4D5EC0",
"^ 	c #4E5FC3",
"/ 	c #E2E5F9",
"( 	c #4F60C6",
"_ 	c #FFFFFF",
": 	c #5162C9",
"< 	c #5263CC",
"[ 	c #5365CE",
"} 	c #37946E",
"| 	c #5466D1",
"1 	c #286B50",
"2 	c #5568D4",
"3 	c #5669D7",
"4 	c #586BDA",
"5 	c #AC3232",
"6 	c #D95763",
"7 	c #8891D3",
"8 	c #8991D4",
"9 	c #8992D4",
"0 	c #8992D5",
"a 	c #8992D6",
"b 	c #8993D6",
"c 	c #8A93D7",
"d 	c #8A93D8",
"e 	c #8A94D9",
"f 	c #8B94D9",
"g 	c #8B94DA",
"h 	c #8B95DB",
"i 	c #8C95DC",
"j 	c #8C95DD",
"k 	c #8C96DD",
"l 	c #8C96DE",
"m 	c #8D96DE",
"n 	c #8D97DF",
"o 	c #8D97E0",
"p 	c #8E98E1",
"q 	c #8E98E2",
"r 	c #8E98E3",
"s 	c #8E98E4",
"t 	c #8F99E4",
"u 	c #8F99E5",
"v 	c #8691E3",
"w 	c #A4ABE1",
"x 	c #ACB2E5",
"y 	c #ACB2E6",
"z 	c #ACB2E7",
"A 	c #ADB3E7",
"B 	c #AEB4E7",
"C 	c #AFB5E8",
"D 	c #B0B5E8",
"E 	c #B0B5E9",
"F 	c #B0B6E9",
"G 	c #B0B6EA",
"H 	c #B0B6EB",
"I 	c #B1B6EB",
"J 	c #B1B7EB",
"K 	c #B1B7EC",
"L 	c #B1B7ED",
"M 	c #B0B6EE",
"N 	c #AFB5EE",
"O 	c #A8AEEC",
"P 	c #A7AEEC",
"Q 	c #AFB4E5",
"R 	c #B7BBEA",
"S 	c #B9BDEB",
"T 	c #C3C7F1",
"U 	c #C3C7F2",
"V 	c #C4C8F2",
"W 	c #C1C5EF",
"X 	c #C2C6F0",
"Y 	c #C3C7F0",
"Z 	c #C5C8F1",
"` 	c #C6CAF2",
" .	c #C8CCF2",
"..	c #C8CCF3",
"+.	c #C5C9F2",
"@.	c #C0C4F1",
"#.	c #BDC1F1",
"$.	c #B9BEF0",
"%.	c #B8BCF0",
"&.	c #B7BCEF",
"*.	c #ADB3EC",
"=.	c #6D433B",
"-.	c #4A2A24",
";.	c #B4B7E7",
">.	c #B9BDEA",
",.	c #C1C4EF",
"'.	c #C3C6F1",
").	c #C6C9F3",
"!.	c #C7CAF3",
"~.	c #C8CBF4",
"{.	c #C9CCF4",
"].	c #CBCEF3",
"^.	c #CCCFF3",
"/.	c #CED1F4",
"(.	c #D0D3F4",
"_.	c #D1D3F4",
":.	c #CFD2F4",
"<.	c #CDD0F4",
"[.	c #D0D3F5",
"}.	c #D1D3F5",
"|.	c #D2D4F5",
"1.	c #D3D6F5",
"2.	c #D4D7F5",
"3.	c #D5D8F6",
"4.	c #D8DBF7",
"5.	c #CBCFF4",
"6.	c #C1C5F2",
"7.	c #BFC2F1",
"8.	c #BCC0F0",
"9.	c #B4B9EC",
"0.	c #AFB4EA",
"a.	c #7675BA",
"b.	c #7C7CBF",
"c.	c #8686C6",
"d.	c #9293CF",
"e.	c #9FA1D8",
"f.	c #ABADE0",
"g.	c #B5B8E7",
"h.	c #BCBFEC",
"i.	c #C4C7F0",
"j.	c #C6C9F2",
"k.	c #CACDF5",
"l.	c #CCCEF5",
"m.	c #CED0F5",
"n.	c #CFD1F5",
"o.	c #D0D2F5",
"p.	c #D2D4F6",
"q.	c #D5D7F6",
"r.	c #D8DAF6",
"s.	c #DADCF7",
"t.	c #DBDDF7",
"u.	c #DBDCF7",
"v.	c #D9DAF7",
"w.	c #D7D9F6",
"x.	c #D6D8F6",
"y.	c #D8DAF7",
"z.	c #D9DBF7",
"A.	c #DCDEF7",
"B.	c #DDDFF8",
"C.	c #DDDFF7",
"D.	c #CCCEF4",
"E.	c #C5C8F2",
"F.	c #C1C4F1",
"G.	c #BDC0EF",
"H.	c #B5B9EB",
"I.	c #AEB2E7",
"J.	c #A6AAE2",
"K.	c #9C9FDA",
"L.	c #9193D2",
"M.	c #8788CA",
"N.	c #7E7EC3",
"O.	c #7777BE",
"P.	c #625FAB",
"Q.	c #6866B0",
"R.	c #7270B7",
"S.	c #807FC1",
"T.	c #9191CD",
"U.	c #A2A4DA",
"V.	c #B1B3E4",
"W.	c #BBBEEB",
"X.	c #C3C6F0",
"Y.	c #C7CAF2",
"Z.	c #CBCEF5",
"`.	c #CED1F6",
" +	c #D1D3F6",
".+	c #D4D6F7",
"++	c #D5D7F7",
"@+	c #D7D9F7",
"#+	c #DFE0F8",
"$+	c #DFE1F8",
"%+	c #DEE0F8",
"&+	c #DEDFF8",
"*+	c #DCDEF8",
"=+	c #DCDDF8",
"-+	c #E0E1F8",
";+	c #E0E2F9",
">+	c #E0E2F8",
",+	c #D4D6F5",
"'+	c #BBBFEE",
")+	c #B3B7EA",
"!+	c #AAADE3",
"~+	c #9EA0DB",
"{+	c #8F91D0",
"]+	c #8081C5",
"^+	c #7373BB",
"/+	c #6A68B3",
"(+	c #6360AE",
"_+	c #5450A1",
":+	c #5855A4",
"<+	c #615EAA",
"[+	c #6F6DB5",
"}+	c #8382C3",
"|+	c #9899D3",
"1+	c #ACAEE1",
"2+	c #BABCEA",
"3+	c #C9CCF3",
"4+	c #CED1F5",
"5+	c #D3D5F6",
"6+	c #D6D8F7",
"7+	c #DADBF7",
"8+	c #E1E2F8",
"9+	c #E1E3F9",
"0+	c #E1E2F9",
"a+	c #BFC2F0",
"b+	c #B9BDEE",
"c+	c #B0B4E8",
"d+	c #A4A8E0",
"e+	c #9597D4",
"f+	c #8383C7",
"g+	c #7271BA",
"h+	c #6462AF",
"i+	c #5B58A8",
"j+	c #5551A3",
"k+	c #4B479C",
"l+	c #4A469B",
"m+	c #4B479B",
"n+	c #4D499C",
"o+	c #514D9F",
"p+	c #5A56A5",
"q+	c #6865B0",
"r+	c #7C7BBF",
"s+	c #9495D0",
"t+	c #AAACE0",
"u+	c #B9BCEA",
"v+	c #C4C7F1",
"w+	c #D2D5F6",
"x+	c #DBDDF8",
"y+	c #DDDEF8",
"z+	c #E1E3F8",
"A+	c #D4D7F6",
"B+	c #CCCFF4",
"C+	c #C4C7F2",
"D+	c #BDC1F0",
"E+	c #B7BBEE",
"F+	c #AEB2E8",
"G+	c #A2A5DF",
"H+	c #9193D3",
"I+	c #7E7FC4",
"J+	c #6D6BB7",
"K+	c #5F5DAC",
"L+	c #5653A5",
"M+	c #514CA0",
"N+	c #4D499D",
"O+	c #4F4B9F",
"P+	c #4E499D",
"Q+	c #4E4A9D",
"R+	c #504C9F",
"S+	c #5551A2",
"T+	c #5E5BA9",
"U+	c #6C6AB4",
"V+	c #8080C3",
"W+	c #9798D3",
"X+	c #BBBDEB",
"Y+	c #CDCFF4",
"Z+	c #DEE0F7",
"`+	c #CBCDF4",
" @	c #C3C6F2",
".@	c #BCC0F1",
"+@	c #B6BBEE",
"@@	c #AFB3E9",
"#@	c #A4A8E1",
"$@	c #9698D6",
"%@	c #8485C9",
"&@	c #7473BC",
"*@	c #6664B2",
"=@	c #5D5AAA",
"-@	c #524EA1",
";@	c #5C59A9",
">@	c #5A57A7",
",@	c #5956A6",
"'@	c #5A57A6",
")@	c #5D5AA9",
"!@	c #6361AD",
"~@	c #6D6CB5",
"{@	c #7C7BC0",
"]@	c #8E8FCD",
"^@	c #A1A3DA",
"/@	c #B1B4E5",
"(@	c #BDC0ED",
"_@	c #DADCF8",
":@	c #DBDCF8",
"<@	c #DDE0F8",
"[@	c #CFD2F5",
"}@	c #B8BCEF",
"|@	c #B3B7EB",
"1@	c #ABAFE6",
"2@	c #A0A3DE",
"3@	c #9394D4",
"4@	c #7877BF",
"5@	c #6D6CB7",
"6@	c #6664B1",
"7@	c #605DAC",
"8@	c #7372BA",
"9@	c #706FB8",
"0@	c #6F6EB7",
"a@	c #706FB7",
"b@	c #7473BA",
"c@	c #7A7ABF",
"d@	c #8484C6",
"e@	c #9192CF",
"f@	c #9EA0DA",
"g@	c #ACAFE3",
"h@	c #C0C4EE",
"i@	c #C9CBF2",
"j@	c #CED1F3",
"k@	c #DADDF7",
"l@	c #DADDF8",
"m@	c #D9DCF7",
"n@	c #CDD0F5",
"o@	c #C4C7F3",
"p@	c #BFC3F2",
"q@	c #B8BCEE",
"r@	c #ACB0E6",
"s@	c #A3A6DF",
"t@	c #999BD8",
"u@	c #8F90D0",
"v@	c #8686C9",
"w@	c #7877BE",
"x@	c #8F90CE",
"y@	c #8C8CCC",
"z@	c #8B8BCA",
"A@	c #8B8CCB",
"B@	c #9495D1",
"C@	c #9B9DD7",
"D@	c #A4A7DE",
"E@	c #ADB0E4",
"F@	c #B6B9E9",
"G@	c #BDC1ED",
"H@	c #CACDF2",
"I@	c #CFD1F3",
"J@	c #D6D9F6",
"K@	c #D7DAF7",
"L@	c #D9DBF8",
"M@	c #D8DBF8",
"N@	c #D8DAF8",
"O@	c #D7DAF8",
"P@	c #D1D4F6",
"Q@	c #CACDF4",
"R@	c #BDC2F0",
"S@	c #BABEEE",
"T@	c #B7BAEC",
"U@	c #B2B5E9",
"V@	c #ACAFE5",
"W@	c #A6A8E0",
"X@	c #9FA1DB",
"Y@	c #999BD6",
"Z@	c #9395D2",
"`@	c #A8ABE0",
" #	c #A6A8DE",
".#	c #A5A6DD",
"+#	c #A5A7DD",
"@#	c #A7A9DE",
"##	c #AAACE1",
"$#	c #AEB1E4",
"%#	c #B3B6E7",
"&#	c #B8BBEB",
"*#	c #C2C5EF",
"=#	c #C6CAF1",
"-#	c #CBCFF3",
";#	c #D6D9F7",
">#	c #D6DAF8",
",#	c #D6D9F8",
"'#	c #D5D8F7",
")#	c #D4D6F6",
"!#	c #CBCEF4",
"~#	c #C6CAF3",
"{#	c #C2C6F1",
"]#	c #BEC2F0",
"^#	c #BCC0EE",
"/#	c #B9BDED",
"(#	c #B6BAEA",
"_#	c #B3B7E8",
":#	c #B0B3E5",
"<#	c #ACAFE2",
"[#	c #B7BAE9",
"}#	c #B6B9E8",
"|#	c #B8BBEA",
"1#	c #BABDEB",
"2#	c #BCC0ED",
"3#	c #BFC2EE",
"4#	c #C2C5F0",
"5#	c #C5C9F1",
"6#	c #C9CCF2",
"7#	c #D1D4F4",
"8#	c #D5D9F8",
"9#	c #D5D8F8",
"0#	c #D4D7F7",
"a#	c #CFD1F4",
"b#	c #CACEF4",
"c#	c #C2C5F1",
"d#	c #C1C5F1",
"e#	c #C0C4F0",
"f#	c #BFC3EF",
"g#	c #BDC1EE",
"h#	c #BBBEEC",
"i#	c #C1C5F0",
"j#	c #C0C4EF",
"k#	c #C0C3EF",
"l#	c #C6C9F1",
"m#	c #CCCFF2",
"n#	c #D3D6F4",
"o#	c #D5D8F5",
"p#	c #D6D8F5",
"q#	c #D4D8F8",
"r#	c #D4D7F8",
"s#	c #D3D6F7",
"t#	c #D1D4F5",
"u#	c #C5C8F3",
"v#	c #C4C8F3",
"w#	c #C4C8F1",
"x#	c #CBCEF2",
"y#	c #D2D5F4",
"z#	c #D5D7F5",
"A#	c #D7DAF6",
"B#	c #D3D7F8",
"C#	c #D3D6F8",
"D#	c #D2D5F7",
"E#	c #DBDEF7",
"F#	c #D3D5F5",
"G#	c #C7CAF4",
"H#	c #C6C9F4",
"I#	c #C5C9F3",
"J#	c #C8CBF3",
"K#	c #CDD0F3",
"L#	c #D0D3F3",
"M#	c #D6D9F5",
"N#	c #D9DBF6",
"O#	c #D3D6F6",
"P#	c #D3D5F7",
"Q#	c #D2D6F8",
"R#	c #D2D5F8",
"S#	c #DBDEF8",
"T#	c #C8CCF4",
"U#	c #C6CAF4",
"V#	c #C7CBF4",
"W#	c #C9CDF4",
"X#	c #D2D4F7",
"Y#	c #D1D5F8",
"Z#	c #D1D4F8",
"`#	c #D1D4F7",
" $	c #CDD1F6",
".$	c #CACEF5",
"+$	c #C8CBF5",
"@$	c #C6CAF5",
"#$	c #D1D3F7",
"$$	c #D0D4F8",
"%$	c #D0D3F8",
"&$	c #D0D3F7",
"*$	c #D0D4F7",
"=$	c #C7CBF5",
"-$	c #C5CAF5",
";$	c #C7CAF5",
">$	c #C8CCF5",
",$	c #C9CDF5",
"'$	c #CCCFF5",
")$	c #D2D5F5",
"!$	c #D4D8F7",
"~$	c #CFD3F8",
"{$	c #CFD3F7",
"]$	c #D6DAF7",
"^$	c #D0D4F6",
"/$	c #CDD0F6",
"($	c #C9CDF6",
"_$	c #C7CBF6",
":$	c #C5CAF6",
"<$	c #D1D5F7",
"[$	c #D2D6F7",
"}$	c #D3D7F7",
"|$	c #CDD0F7",
"1$	c #C6CBF6",
"2$	c #C6CAF6",
"3$	c #C7CAF6",
"4$	c #C8CCF6",
"5$	c #CBCEF6",
"6$	c #CFD2F6",
"7$	c #D5D9F7",
"8$	c #CED2F8",
"9$	c #CED2F7",
"0$	c #CFD2F7",
"a$	c #CCD0F7",
"b$	c #C7CCF6",
"c$	c #CBCFF7",
"d$	c #C8CCF7",
"e$	c #C6CAF7",
"f$	c #C5CAF7",
"g$	c #C6CBF7",
"h$	c #C9CDF7",
"i$	c #CDD1F7",
"j$	c #D8DCF7",
"k$	c #D9DCF8",
"l$	c #CBCEF7",
"m$	c #C7CCF7",
"n$	c #CACEF7",
"o$	c #C7CBF7",
"p$	c #CCCFF7",
"q$	c #CACDF7",
"                                                                                                                                ",
"                                                                                                                                ",
"                                                                                          .                                     ",
"+ + + + + + + + + + + + + + + + + + + + + + + + + + + + + + + + + + + + + + + + + + + + . + . + + + + + + + + + + + + . + + + + ",
"@ @ @ . @ @ @ @ @ @ @ @ @ @ @ @ @ @ @ @ @ . @ @ @ . @ @ @ @ @ @ @ @ @ @ @ @ @ @ @ @ @ @ @ . @ @ @ @ @ @ @ @ @ @ @ @ @ @ @ @ @ @ ",
"# # . # . # # # # # # # # # # # # # # # # # . # . # # # # # # # # # # # # # # # # # # # # # # # # # # # # # # # # # # . # # # # ",
"$ $ $ . $ $ $ $ $ $ $ $ $ $ $ $ $ $ $ $ $ $ $ $ $ $ $ $ $ $ $ $ $ $ $ $ $ $ $ $ $ $ $ $ $ $ $ $ $ $ $ $ $ $ $ $ . $ . . . $ . $ ",
"% % % % % % % % % % % % % % % % % % % % % % . % . % % % % % % % % % % % % % % . % % % % % % % % % % % % % % % % % % % . % % % % ",
"& & & & & & & & & & & & & & & & & & & & & . & & & . & & & & & & & & & & & & . . . & & & & & & & & & & & & & & & & & & & & & & & ",
"* * * * * * * * * * * * * * . * * * * * * * * * * * * * * * * * * * * * * * * . * * * * * * * * * * * * * * * * * * * . * * * * ",
"= = = = = = = = = = = = = = = = = = = = = = = = = = = = = = = = = = = = = = = = = = = = = = = = = = = = = = = = = = = = = = = = ",
"- - - - - - - - - - - - - - . - - - - - - - - - - - - - - - . - . - - - - - - - - - - - - - - - - - - - - - - - - - - - - - - - ",
"; ; ; ; ; ; ; ; ; ; ; . ; . . . ; . ; ; ; ; ; ; ; ; ; ; ; ; ; ; ; ; ; ; ; ; ; ; ; ; ; ; ; ; ; ; ; ; ; ; ; ; ; ; ; ; ; ; ; ; ; ; ",
"> > > > > > > > > > > > > > . > > > > > > > > > > > > > > > . > . > > > > > > > > > > > > > > > > > > > > > > > > > > > > > > > ",
", , , , , , , , , , , , , , , , , , , , , , , , , , , , , , , , , , , , , , , , , , , , , , , . , . , , , , , . , , , . , , , , ",
"' ' ' ' ' ' ' ' ' ' ' ' ' ' . ' ' ' ' ' ' ' ' ' ' ' ' ' ' ' ' ' ' ' ' ' ' ' ' ' ' ' ' ' ' ' ' ' ' ' ' ' ' ' ' ' . ' . ' ' ' ' ' ",
") ) ) ) ) ) ) ) ) ) ) ) ) ) ) ) ) ) ) ) ) ) ) ) ) ) ) ) ) ) ) ) ) ) ) ) ) ) ) ) ) ) ) ) ) ) ) . ) . ) ) ) ) ) ) ) ) ) ) ) ) ) ) ",
"! ~ ! ! ! ! ! ! ! ! ! ! ! ! ! ! ! ! ! ! ! ! ! ! ! ! ! ! ! ! ! ! ! ! ! ! ! ! ! ! ! ! ! ! ! ! ! ! ! ! ! ! ! ! ! ! . ! . ! ! ! ! ! ",
"~ { ~ ] ] ] ] ] ] ] ] ] ] ] ] ] ] ] ] ] ] ] ] ] ] ] ] ] ] ] ] ] ] ] ] ] ] ] ] ] ] ] ] ] ] ] ] ] ] ] ] ] ] ] ] . ] ] ] . ] ] ] ] ",
"^ ~ ^ ^ ^ ^ ^ ^ ^ ^ ^ ^ ^ ^ ^ ^ ^ ^ ^ ^ ^ ^ ^ ^ ^ ^ ^ ^ ^ ^ ^ ^ ^ ^ ^ ^ ^ ^ . ^ ^ ^ . ^ ^ ^ ^ ^ ^ ^ ^ ^ ^ ^ ^ ^ ^ ^ ^ ^ ^ ^ ^ ^ ",
"~ / ~ ( ( ( ( ( ( ( ( ( ( ( ( ( ( ( ( ( ( ( ( ( ( ( ( ( ( ( ( ( ( ( ( ( ( ( ( . ( . ( ( ( ( ( ( ( ( ( ( ( ( ( ( ( ( ( ( ( ( ( ( ",
"_ _ / ~ . : . : : : : : : : : : : : : : : : . : : : : : : : : : : : : : : : : : : : : : : : : : : : : : : : : : : : : : : : : ~ ",
"_ _ / ~ < < < < < < < < < < < < < < < < < . < . < < < < < < < < < < < < < < < . < . < < < < < < < < < < . < < < < < < < < < < ~ ",
"_ _ _ / ~ [ . [ [ [ [ [ [ [ [ [ [ [ [ [ [ [ . [ [ [ [ [ [ [ [ [ [ [ [ [ [ [ . [ [ [ . [ [ [ [ [ [ [ [ . [ . [ [ [ [ [ [ [ [ ~ _ ",
"_ } _ _ / ~ | | | | | | | | | | | | | | | | | | | | | | | | | | | | | | | | | | | | | | | | | | | | | | . | | | | | | | | ~ _ } ",
"} } } } } 1 ~ 2 2 2 2 2 2 2 2 2 2 2 2 2 2 2 2 2 2 2 2 2 2 2 2 2 2 2 2 2 2 2 2 2 2 2 2 2 2 2 2 2 2 2 2 2 2 2 2 2 2 2 2 2 ~ } } } ",
"1 1 1 1 ~ ~ 3 3 3 3 3 3 3 3 3 3 3 3 3 3 3 3 3 3 3 3 3 3 3 3 3 3 3 3 3 3 3 3 3 3 3 3 3 3 3 3 3 3 3 3 3 3 3 3 3 3 3 3 3 3 3 ~ ~ 1 ",
"} } } } 1 1 ~ 4 4 4 4 4 4 4 4 4 4 4 4 4 4 4 4 4 4 4 4 4 4 4 4 4 4 4 4 4 4 4 4 4 4 4 4 4 4 4 4 4 4 4 4 4 4 4 4 4 4 4 4 4 ~ 1 } 5 ",
"5 } } 5 } 1 1 ~ 4 4 4 4 4 4 4 4 4 4 4 4 4 4 4 4 4 4 4 4 4 4 4 4 4 4 4 4 4 4 4 4 4 4 4 4 4 4 4 4 4 4 4 4 4 4 4 4 4 4 4 ~ 1 } 5 6 ",
"} } 5 6 5 } 1 1 ~ 4 4 4 4 4 4 4 4 4 4 4 4 4 4 4 4 4 4 4 4 4 4 4 4 4 4 4 4 4 4 4 4 4 4 4 4 4 4 4 4 4 4 4 4 4 4 4 4 4 ~ { } } } 5 ",
"} } } 5 } } 1 { ~ 4 4 4 4 4 4 4 4 4 4 4 4 4 4 4 4 4 4 4 4 4 4 4 4 4 4 4 4 4 4 4 4 4 4 4 4 4 4 4 4 4 4 4 4 4 4 4 4 4 ~ 1 { { } } ",
"{ } } } } { { 1 1 ~ 4 4 4 4 4 4 4 4 4 4 4 4 4 4 4 4 4 4 4 4 4 4 4 4 4 4 4 4 4 4 4 4 4 4 4 4 4 4 4 4 4 4 4 4 4 4 4 ~ 1 } } } { { ",
"} { { { { } } } 1 1 ~ 4 4 4 4 4 4 4 4 4 4 4 4 4 4 4 4 4 4 4 4 4 4 4 4 4 4 4 4 4 4 4 4 4 4 4 4 4 4 4 4 4 4 4 4 4 ~ 1 } } } } } } ",
"} } } } } } 1 1 ~ ~ 4 4 4 4 4 4 4 4 4 4 4 4 4 4 4 4 4 4 4 4 4 4 4 4 4 4 4 4 4 4 4 4 4 4 4 4 4 4 4 4 4 4 4 4 4 4 4 ~ ~ 1 1 } } } ",
"1 1 1 1 5 1 1 ~ 4 4 4 4 4 4 4 4 4 4 4 4 4 4 4 4 4 4 4 4 4 4 4 4 4 4 4 4 4 4 4 4 4 4 4 4 4 4 4 4 4 4 4 4 4 4 4 4 4 4 4 ~ 1 1 1 1 ",
"1 1 1 5 6 5 1 1 ~ ~ 4 4 4 4 4 4 4 4 4 4 4 4 4 4 4 4 4 4 4 4 4 4 4 4 4 4 4 4 4 4 4 4 4 4 4 4 4 4 4 4 4 4 4 4 4 4 4 ~ ~ 1 1 1 5 1 ",
"} } } } 5 } } } 1 1 ~ ~ 4 4 4 4 4 4 4 4 4 4 4 4 4 4 4 4 4 4 4 4 4 4 4 4 4 4 4 4 4 4 4 4 4 4 4 4 4 4 4 4 4 4 4 ~ ~ { 1 } } 5 6 5 ",
"} } } } } } } } { { 1 1 ~ 4 4 4 4 4 4 4 4 4 4 4 4 4 4 4 4 4 4 4 4 4 4 4 4 4 4 4 4 4 4 4 4 4 4 4 4 4 4 4 4 4 ~ 1 1 } { { } } 5 } ",
"} } } } { { { { } } } 1 1 ~ 7 7 8 9 0 0 a b c c d d e f g g h h i i j k k l m n n o o p p q q r r s t u v ~ 1 } } } } } { { } } ",
"{ { { { } } } } } 1 1 ~ ~ w x y y y y z A B C D D D E F F F F G G G G H H H H I J J J K K K L L L L M N O P ~ ~ 1 } } } } } { { ",
"1 1 1 1 1 1 1 1 1 1 ~ Q R S T U U U U U V W X Y Y Y Y Y Y Y Y Y T T T T T T T T T Z `  . . .......+.@.#.$.%.&.*.~ 1 1 1 1 1 1 1 ",
"=.=.-.~ ~ ~ ~ ~ ~ ~ ;.>.,.'.).!.!.~.~.{.].^./.(._._._._._._._.(.:./.<./.:.(.[.[.}.|.1.2.3.3.3.4.4.3.5.!.6.7.8.9.0.~ ~ ~ ~ ~ ~ ~ ",
"=.=.-.~ a.b.c.d.e.f.g.h.i.j.{.k.l.m.n.o.p.q.r.s.t.t.t.t.t.t.u.s.v.w.x.w.y.z.s.s.s.t.A.B.B.B.C.C.A.z.|.D.E.F.G.H.I.J.K.L.M.N.O.~ ",
"=.=.-.~ P.Q.R.S.T.U.V.W.X.Y.Z.`. +.+++@+v.t.B.#+$+$+$+$+$+$+$+%+&+*+=+*+B.%+#+#+#+#+-+-+;+>+-+-+$+A.,+<.j.@.'+)+!+~+{+]+^+/+(+~ ",
"~ ~ ~ ~ _+:+<+[+}+|+1+2+X.3+4+5+6+v.7+u.*+%+>+8+9+9+9+9+9+9+0+>+-+$+$+$+-+>+0+0+0+0+;+;+;+>+-+-+$+A.q.<.E.a+b+c+d+e+f+g+h+i+j+~ ",
"k+l+l+m+n+o+p+q+r+s+t+u+v+].w+@+s.x+*+y+%+$+>+z+9+8+8+8+8+8+8+>+>+>+>+>+>+>+>+>+>+>+>+-+-+$+$+$+$+A.A+B+C+D+E+F+G+H+I+J+K+L+M+N+",
"O+P+N+Q+R+S+T+U+V+W+1+X+Z Y+6+s.x+=+*+*+&+#+-+>+>+>+>+>+-+-+-+-+$+$+$+$+$+$+$+$+$+$+$+$+#+%+%+%+Z+t.|.`+ @.@+@@@#@$@%@&@*@=@L+-@",
";@>@,@'@)@!@~@{@]@^@/@(@Y./.x.4.s._@:@x+=+*+B.B.<@<@<@B.B.B.B.B.B.B.B.B.B.B.B.B.*+*+*+*+*+A.t.t.z.q.[@{. @#.}@|@1@2@3@%@4@5@6@7@",
"8@9@0@a@b@c@d@e@f@g@R h@i@j@,+x.r.y.z.z.z.s.s.k@t.x+x+x+x+l@l@l@l@l@l@l@l@l@l@_@_@_@_@m@m@m@z.y.x.w+n@~.o@p@.@q@|@r@s@t@u@v@N.w@",
"x@y@z@A@]@B@C@D@E@F@G@Y H@I@1.q.J@w.K@K@y.y.y.4.z.L@L@L@L@M@M@M@M@M@M@M@M@M@M@N@N@N@O@K@K@K@K@w.q.P@4+Q@!.C+6.R@S@T@U@V@W@X@Y@Z@",
"`@ #.#+#@###$#%#&#(@*#=#-#:.1.q.3.x.;#J@;#@+@+@+K@O@O@O@O@O@O@O@O@>#>#>#>#,#,#,#,#,#,#'#'#6+@+w.x.)#[.4+!#3+~#{#@.]#^#/#(#_#:#<#",
"u+[#}#F@[#|#1#2#3#4#5#6#j@7#2.q.q.3.3.3.'#6+6+6+;#,#,#,#,#,#,#,#8#8#8#8#8#9#9#9#9#9#9#0#0#'#@+y.4.w.)#|.a#Y+b#!.V U c#d#e#f#g#h#",
"i#j#k#k#k#k#,.4#i.l#6#m#(.n#o#p#3.q.q.A+0#++++++'#9#9#9#9#9#9#q#q#q#q#q#q#r#r#r#r#r#r#s#0#++@+z.k@m@J@A+t#[@<.3+!.).u#v#V V U {#",
"E.w#v+v+v+v+Z l#Y.6#x#j@y#z#A#A#w.x.A+)#s#.+.+.+0#r#r#r#r#r#r#B#B#B#B#B#B#C#C#C#C#C#C#D#s#0#@+m@E#t.4.x.F#[.n@Q@~.G#H#H#H#).I#u#",
"~#~#~#).).!.!.J#3+].K#L#,+M#N#N#r.J@A+O#P#P#P#P#s#C#C#C#C#C#C#Q#Q#Q#Q#Q#Q#Q#R#R#R#R#R#D#D#s#6+z.S#*+s.K@O#[.n@b#T#G#U#U#U#H#H#).",
"G#V#~.~.~.~.T#W#!#<.:.7#2.w.s.s.z.@+++5+X#X#X#X#D#R#R#R#R#R#R#Y#Y#Y#Y#Y#Y#Y#Z#Z#Z#Z#Z#`#`#D#0#K@l@*+s.4.3.P@ $.$+$@$@$@$@$@$@$G#",
"G#~.~.~.~.T#{.Q@B+<.:.y#o#A#s.t.s.K@'#D#`##$#$#$`#Z#Z#Z#Z#Z#Z#$$$$$$$$$$$$$$%$%$%$%$%$&$&$*$D#'#M@l@m@K@'#P@ $k.=$@$-$-$-$-$@$@$",
";$+$+$+$+$>$,$.$'$4+[.)$3.4.s.t.s.K@!$D#&$&$&$&$&$%$%$%$%$%$%$~$~$~$~$~$~$~$~$~$~$~$~${${${$*$D#r#>#]$;#0#^$/$($_$:$:$:$:$:$-$@$",
"@$=$=$=$=$>$,$Z.'$4+[.)$3.4.s.t.s.K@!$<$&${${${${$~$~$~$~$~$~$~$~$~$~$~$~$~$~$~$~$~$~$~$~$~$~$&$<$[$0#!$}$*$|$($1$:$:$:$:$:$:$:$",
"2$2$3$3$_$4$($5$/$6$P@O#7$4.k@t.s.K@}$<${${${${${$~$~$~$~$~$~$~$~$~$~$~$~$~$~$~$~$~$~$~$~$~$8$9$0${$*$<$<${$a$4$2$:$:$:$:$:$:$:$",
":$:$2$2$1$b$($5$/$6$P@O#;#4.k@t.m@]$}$*${${${${${$~$~$~$~$~$~$~$~$~$~$~$~$~$~$~$~$~$~$~$~$~$8$9$9$9$9${${$9$c$d$e$f$f$f$f$f$:$:$",
"f$f$f$f$g$d$h$c$i${$<$}$;#j$k@k@k$,#C#*${${${${${$~$~$~$~$~$~$~$~$~$~$~$~$~$~$~$~$~$~$~$~$~$8$9$i$i$i$9$9$i$l$d$e$f$f$f$f$f$f$f$",
"f$f$f$f$g$m$h$c$i${$<$0#]$m@k@l@M@9#Q#$$~$~$~$~$~$~$~$~$~$~$~$~$~$~$~$~$~$~$~$~$~$~$~$~$~$~$8$9$i$i$a$i$i$a$n$o$e$f$f$f$f$f$f$f$",
"f$f$f$f$g$m$h$c$i${$<$0#]$m@k@l@M@9#R#%$~$~$~$~$~$~$~$~$~$~$~$~$~$~$~$~$~$~$~$~$~$~$~$~$~$~$8$9$i$a$a$a$|$p$q$o$f$f$f$f$f$f$f$f$"};
