/* XPM */
static char * cadeau_xpm[] = {
"64 64 508 2",
"  	c #3B4794",
". 	c #FCF67C",
"+ 	c #3C4896",
"@ 	c #3D4999",
"# 	c #3E4B9C",
"$ 	c #3F4C9F",
"% 	c #404EA2",
"& 	c #414FA4",
"* 	c #4351A7",
"= 	c #4452AA",
"- 	c #4553AD",
"; 	c #4655B0",
"> 	c #4756B2",
", 	c #4858B5",
"' 	c #4A59B8",
") 	c #4B5BBB",
"! 	c #4C5CBE",
"~ 	c #000000",
"{ 	c #FBF236",
"] 	c #4D5EC0",
"^ 	c #4E5FC3",
"/ 	c #E2E5F9",
"( 	c #4F60C6",
"_ 	c #FFFFFF",
": 	c #5162C9",
"< 	c #5263CC",
"[ 	c #5365CE",
"} 	c #37946E",
"| 	c #5466D1",
"1 	c #286B50",
"2 	c #5568D4",
"3 	c #FFF200",
"4 	c #5669D7",
"5 	c #586BDA",
"6 	c #AC3232",
"7 	c #D95763",
"8 	c #FF7E00",
"9 	c #8891D3",
"0 	c #8991D4",
"a 	c #8992D4",
"b 	c #8992D5",
"c 	c #8992D6",
"d 	c #8993D6",
"e 	c #8A93D7",
"f 	c #8A93D8",
"g 	c #CD272D",
"h 	c #8C96DE",
"i 	c #8D96DE",
"j 	c #8D97DF",
"k 	c #8D97E0",
"l 	c #8E98E1",
"m 	c #8E98E2",
"n 	c #8E98E3",
"o 	c #8E98E4",
"p 	c #8F99E4",
"q 	c #8F99E5",
"r 	c #8691E3",
"s 	c #A4ABE1",
"t 	c #ACB2E5",
"u 	c #ACB2E6",
"v 	c #ACB2E7",
"w 	c #ADB3E7",
"x 	c #AEB4E7",
"y 	c #AFB5E8",
"z 	c #B0B5E8",
"A 	c #B0B6EB",
"B 	c #B1B6EB",
"C 	c #B1B7EB",
"D 	c #B1B7EC",
"E 	c #B1B7ED",
"F 	c #B0B6EE",
"G 	c #AFB5EE",
"H 	c #A8AEEC",
"I 	c #A7AEEC",
"J 	c #AFB4E5",
"K 	c #B7BBEA",
"L 	c #B9BDEB",
"M 	c #C3C7F1",
"N 	c #C3C7F2",
"O 	c #C4C8F2",
"P 	c #C1C5EF",
"Q 	c #C2C6F0",
"R 	c #C3C7F0",
"S 	c #C5C8F1",
"T 	c #C6CAF2",
"U 	c #C8CCF2",
"V 	c #C8CCF3",
"W 	c #C5C9F2",
"X 	c #C0C4F1",
"Y 	c #BDC1F1",
"Z 	c #B9BEF0",
"` 	c #B8BCF0",
" .	c #B7BCEF",
"..	c #ADB3EC",
"+.	c #6D433B",
"@.	c #4A2A24",
"#.	c #B4B7E7",
"$.	c #B9BDEA",
"%.	c #C1C4EF",
"&.	c #C3C6F1",
"*.	c #C6C9F3",
"=.	c #C7CAF3",
"-.	c #C8CBF4",
";.	c #C9CCF4",
">.	c #CBCEF3",
",.	c #CCCFF3",
"'.	c #CED1F4",
").	c #D0D3F4",
"!.	c #D1D3F4",
"~.	c #D0D3F5",
"{.	c #D1D3F5",
"].	c #D2D4F5",
"^.	c #D3D6F5",
"/.	c #D4D7F5",
"(.	c #D5D8F6",
"_.	c #D8DBF7",
":.	c #CBCFF4",
"<.	c #C1C5F2",
"[.	c #BFC2F1",
"}.	c #BCC0F0",
"|.	c #B4B9EC",
"1.	c #AFB4EA",
"2.	c #7675BA",
"3.	c #7C7CBF",
"4.	c #8686C6",
"5.	c #9293CF",
"6.	c #9FA1D8",
"7.	c #ABADE0",
"8.	c #B5B8E7",
"9.	c #BCBFEC",
"0.	c #C4C7F0",
"a.	c #C6C9F2",
"b.	c #CACDF5",
"c.	c #CCCEF5",
"d.	c #CED0F5",
"e.	c #CFD1F5",
"f.	c #D0D2F5",
"g.	c #D2D4F6",
"h.	c #D5D7F6",
"i.	c #D8DAF6",
"j.	c #DADCF7",
"k.	c #DBDDF7",
"l.	c #D9DBF7",
"m.	c #DCDEF7",
"n.	c #DDDFF8",
"o.	c #DDDFF7",
"p.	c #CCCEF4",
"q.	c #C5C8F2",
"r.	c #C1C4F1",
"s.	c #BDC0EF",
"t.	c #B5B9EB",
"u.	c #AEB2E7",
"v.	c #A6AAE2",
"w.	c #9C9FDA",
"x.	c #9193D2",
"y.	c #8788CA",
"z.	c #7E7EC3",
"A.	c #7777BE",
"B.	c #625FAB",
"C.	c #6866B0",
"D.	c #7270B7",
"E.	c #807FC1",
"F.	c #9191CD",
"G.	c #A2A4DA",
"H.	c #B1B3E4",
"I.	c #BBBEEB",
"J.	c #C3C6F0",
"K.	c #C7CAF2",
"L.	c #CBCEF5",
"M.	c #CED1F6",
"N.	c #D1D3F6",
"O.	c #D4D6F7",
"P.	c #D5D7F7",
"Q.	c #D7D9F7",
"R.	c #D9DAF7",
"S.	c #DFE0F8",
"T.	c #DFE1F8",
"U.	c #DEE0F8",
"V.	c #E0E1F8",
"W.	c #E0E2F9",
"X.	c #E0E2F8",
"Y.	c #D4D6F5",
"Z.	c #CDD0F4",
"`.	c #BBBFEE",
" +	c #B3B7EA",
".+	c #AAADE3",
"++	c #9EA0DB",
"@+	c #8F91D0",
"#+	c #8081C5",
"$+	c #7373BB",
"%+	c #6A68B3",
"&+	c #6360AE",
"*+	c #5450A1",
"=+	c #5855A4",
"-+	c #615EAA",
";+	c #6F6DB5",
">+	c #8382C3",
",+	c #9899D3",
"'+	c #ACAEE1",
")+	c #BABCEA",
"!+	c #C9CCF3",
"~+	c #CED1F5",
"{+	c #D3D5F6",
"]+	c #D6D8F7",
"^+	c #DADBF7",
"/+	c #DBDCF7",
"(+	c #DCDEF8",
"_+	c #E1E2F8",
":+	c #E1E3F9",
"<+	c #E1E2F9",
"[+	c #BFC2F0",
"}+	c #B9BDEE",
"|+	c #B0B4E8",
"1+	c #A4A8E0",
"2+	c #9597D4",
"3+	c #8383C7",
"4+	c #7271BA",
"5+	c #6462AF",
"6+	c #5B58A8",
"7+	c #5551A3",
"8+	c #4B479C",
"9+	c #4A469B",
"0+	c #4B479B",
"a+	c #4D499C",
"b+	c #514D9F",
"c+	c #5A56A5",
"d+	c #6865B0",
"e+	c #7C7BBF",
"f+	c #9495D0",
"g+	c #AAACE0",
"h+	c #B9BCEA",
"i+	c #C4C7F1",
"j+	c #D2D5F6",
"k+	c #DBDDF8",
"l+	c #DDDEF8",
"m+	c #E1E3F8",
"n+	c #D4D7F6",
"o+	c #CCCFF4",
"p+	c #C4C7F2",
"q+	c #BDC1F0",
"r+	c #B7BBEE",
"s+	c #AEB2E8",
"t+	c #A2A5DF",
"u+	c #9193D3",
"v+	c #7E7FC4",
"w+	c #6D6BB7",
"x+	c #5F5DAC",
"y+	c #5653A5",
"z+	c #514CA0",
"A+	c #4D499D",
"B+	c #4F4B9F",
"C+	c #4E499D",
"D+	c #4E4A9D",
"E+	c #504C9F",
"F+	c #5551A2",
"G+	c #5E5BA9",
"H+	c #6C6AB4",
"I+	c #8080C3",
"J+	c #9798D3",
"K+	c #BBBDEB",
"L+	c #CDCFF4",
"M+	c #DCDDF8",
"N+	c #DEDFF8",
"O+	c #DEE0F7",
"P+	c #CBCDF4",
"Q+	c #C3C6F2",
"R+	c #BCC0F1",
"S+	c #B6BBEE",
"T+	c #AFB3E9",
"U+	c #A4A8E1",
"V+	c #9698D6",
"W+	c #8485C9",
"X+	c #7473BC",
"Y+	c #6664B2",
"Z+	c #5D5AAA",
"`+	c #524EA1",
" @	c #5C59A9",
".@	c #5A57A7",
"+@	c #5956A6",
"@@	c #5A57A6",
"#@	c #5D5AA9",
"$@	c #6361AD",
"%@	c #6D6CB5",
"&@	c #7C7BC0",
"*@	c #8E8FCD",
"=@	c #A1A3DA",
"-@	c #B1B4E5",
";@	c #BDC0ED",
">@	c #D6D8F6",
",@	c #DADCF8",
"'@	c #DBDCF8",
")@	c #DDE0F8",
"!@	c #CFD2F5",
"~@	c #B8BCEF",
"{@	c #B3B7EB",
"]@	c #ABAFE6",
"^@	c #A0A3DE",
"/@	c #9394D4",
"(@	c #7877BF",
"_@	c #6D6CB7",
":@	c #6664B1",
"<@	c #605DAC",
"[@	c #7372BA",
"}@	c #706FB8",
"|@	c #6F6EB7",
"1@	c #706FB7",
"2@	c #7473BA",
"3@	c #7A7ABF",
"4@	c #8484C6",
"5@	c #9192CF",
"6@	c #9EA0DA",
"7@	c #ACAFE3",
"8@	c #C0C4EE",
"9@	c #C9CBF2",
"0@	c #CED1F3",
"a@	c #D8DAF7",
"b@	c #DADDF7",
"c@	c #DADDF8",
"d@	c #D9DCF7",
"e@	c #CDD0F5",
"f@	c #C4C7F3",
"g@	c #BFC3F2",
"h@	c #B8BCEE",
"i@	c #ACB0E6",
"j@	c #A3A6DF",
"k@	c #999BD8",
"l@	c #8F90D0",
"m@	c #8686C9",
"n@	c #7877BE",
"o@	c #8F90CE",
"p@	c #8C8CCC",
"q@	c #8B8BCA",
"r@	c #8B8CCB",
"s@	c #9495D1",
"t@	c #9B9DD7",
"u@	c #A4A7DE",
"v@	c #ADB0E4",
"w@	c #B6B9E9",
"x@	c #BDC1ED",
"y@	c #CACDF2",
"z@	c #CFD1F3",
"A@	c #D6D9F6",
"B@	c #D7D9F6",
"C@	c #D7DAF7",
"D@	c #D8DBF8",
"E@	c #D8DAF8",
"F@	c #D7DAF8",
"G@	c #D1D4F6",
"H@	c #CACDF4",
"I@	c #BDC2F0",
"J@	c #BABEEE",
"K@	c #B7BAEC",
"L@	c #B2B5E9",
"M@	c #ACAFE5",
"N@	c #A6A8E0",
"O@	c #9FA1DB",
"P@	c #999BD6",
"Q@	c #9395D2",
"R@	c #A8ABE0",
"S@	c #A6A8DE",
"T@	c #A5A6DD",
"U@	c #A5A7DD",
"V@	c #A7A9DE",
"W@	c #AAACE1",
"X@	c #AEB1E4",
"Y@	c #B3B6E7",
"Z@	c #B8BBEB",
"`@	c #C2C5EF",
" #	c #C6CAF1",
".#	c #CBCFF3",
"+#	c #CFD2F4",
"@#	c #D6D9F7",
"##	c #D6D9F8",
"$#	c #D5D8F7",
"%#	c #D4D6F6",
"&#	c #CBCEF4",
"*#	c #C6CAF3",
"=#	c #C2C6F1",
"-#	c #BEC2F0",
";#	c #BCC0EE",
">#	c #B9BDED",
",#	c #B6BAEA",
"'#	c #B3B7E8",
")#	c #B0B3E5",
"!#	c #ACAFE2",
"~#	c #B7BAE9",
"{#	c #B6B9E8",
"]#	c #B8BBEA",
"^#	c #BABDEB",
"/#	c #BCC0ED",
"(#	c #BFC2EE",
"_#	c #C2C5F0",
":#	c #C5C9F1",
"<#	c #C9CCF2",
"[#	c #D1D4F4",
"}#	c #D5D9F8",
"|#	c #D5D8F8",
"1#	c #D4D7F7",
"2#	c #CFD1F4",
"3#	c #CACEF4",
"4#	c #C2C5F1",
"5#	c #C1C5F1",
"6#	c #C0C4F0",
"7#	c #BFC3EF",
"8#	c #BDC1EE",
"9#	c #BBBEEC",
"0#	c #C1C5F0",
"a#	c #C0C4EF",
"b#	c #C0C3EF",
"c#	c #C6C9F1",
"d#	c #CCCFF2",
"e#	c #D3D6F4",
"f#	c #D5D8F5",
"g#	c #D6D8F5",
"h#	c #D4D8F8",
"i#	c #D4D7F8",
"j#	c #D3D6F7",
"k#	c #D1D4F5",
"l#	c #C5C8F3",
"m#	c #C4C8F3",
"n#	c #C4C8F1",
"o#	c #CBCEF2",
"p#	c #D2D5F4",
"q#	c #D5D7F5",
"r#	c #D7DAF6",
"s#	c #D3D7F8",
"t#	c #D3D6F8",
"u#	c #D2D5F7",
"v#	c #DBDEF7",
"w#	c #D3D5F5",
"x#	c #C7CAF4",
"y#	c #C6C9F4",
"z#	c #C5C9F3",
"A#	c #C8CBF3",
"B#	c #CDD0F3",
"C#	c #D0D3F3",
"D#	c #D6D9F5",
"E#	c #D9DBF6",
"F#	c #D3D6F6",
"G#	c #D3D5F7",
"H#	c #D2D6F8",
"I#	c #D2D5F8",
"J#	c #DBDEF8",
"K#	c #C8CCF4",
"L#	c #C6CAF4",
"M#	c #C7CBF4",
"N#	c #C9CDF4",
"O#	c #D2D4F7",
"P#	c #D1D5F8",
"Q#	c #D1D4F8",
"R#	c #D1D4F7",
"S#	c #CDD1F6",
"T#	c #CACEF5",
"U#	c #C8CBF5",
"V#	c #C6CAF5",
"W#	c #D1D3F7",
"X#	c #D0D4F8",
"Y#	c #D0D3F8",
"Z#	c #D0D3F7",
"`#	c #D0D4F7",
" $	c #C7CBF5",
".$	c #C5CAF5",
"+$	c #C7CAF5",
"@$	c #C8CCF5",
"#$	c #C9CDF5",
"$$	c #CCCFF5",
"%$	c #D2D5F5",
"&$	c #D4D8F7",
"*$	c #CFD3F8",
"=$	c #CFD3F7",
"-$	c #D6DAF8",
";$	c #D6DAF7",
">$	c #D0D4F6",
",$	c #CDD0F6",
"'$	c #C9CDF6",
")$	c #C7CBF6",
"!$	c #C5CAF6",
"~$	c #D1D5F7",
"{$	c #D2D6F7",
"]$	c #D3D7F7",
"^$	c #CDD0F7",
"/$	c #C6CBF6",
"($	c #C6CAF6",
"_$	c #C7CAF6",
":$	c #C8CCF6",
"<$	c #CBCEF6",
"[$	c #CFD2F6",
"}$	c #D5D9F7",
"|$	c #CED2F8",
"1$	c #CED2F7",
"2$	c #CFD2F7",
"3$	c #CCD0F7",
"4$	c #C7CCF6",
"5$	c #CBCFF7",
"6$	c #C8CCF7",
"7$	c #C6CAF7",
"8$	c #C5CAF7",
"9$	c #C6CBF7",
"0$	c #C9CDF7",
"a$	c #CDD1F7",
"b$	c #D8DCF7",
"c$	c #D9DCF8",
"d$	c #CBCEF7",
"e$	c #C7CCF7",
"f$	c #CACEF7",
"g$	c #C7CBF7",
"h$	c #CCCFF7",
"i$	c #CACDF7",
"                                                                                                                                ",
"                                                                                                                                ",
"                                                                                          .                                     ",
"+ + + + + + + + + + + + + + + + + + + + + + + + + + + + + + + + + + + + + + + + + + + + . + . + + + + + + + + + + + + . + + + + ",
"@ @ @ . @ @ @ @ @ @ @ @ @ @ @ @ @ @ @ @ @ . @ @ @ . @ @ @ @ @ @ @ @ @ @ @ @ @ @ @ @ @ @ @ . @ @ @ @ @ @ @ @ @ @ @ @ @ @ @ @ @ @ ",
"# # . # . # # # # # # # # # # # # # # # # # . # . # # # # # # # # # # # # # # # # # # # # # # # # # # # # # # # # # # . # # # # ",
"$ $ $ . $ $ $ $ $ $ $ $ $ $ $ $ $ $ $ $ $ $ $ $ $ $ $ $ $ $ $ $ $ $ $ $ $ $ $ $ $ $ $ $ $ $ $ $ $ $ $ $ $ $ $ $ . $ . . . $ . $ ",
"% % % % % % % % % % % % % % % % % % % % % % . % . % % % % % % % % % % % % % % . % % % % % % % % % % % % % % % % % % % . % % % % ",
"& & & & & & & & & & & & & & & & & & & & & . & & & . & & & & & & & & & & & & . . . & & & & & & & & & & & & & & & & & & & & & & & ",
"* * * * * * * * * * * * * * . * * * * * * * * * * * * * * * * * * * * * * * * . * * * * * * * * * * * * * * * * * * * . * * * * ",
"= = = = = = = = = = = = = = = = = = = = = = = = = = = = = = = = = = = = = = = = = = = = = = = = = = = = = = = = = = = = = = = = ",
"- - - - - - - - - - - - - - . - - - - - - - - - - - - - - - . - . - - - - - - - - - - - - - - - - - - - - - - - - - - - - - - - ",
"; ; ; ; ; ; ; ; ; ; ; . ; . . . ; . ; ; ; ; ; ; ; ; ; ; ; ; ; ; ; ; ; ; ; ; ; ; ; ; ; ; ; ; ; ; ; ; ; ; ; ; ; ; ; ; ; ; ; ; ; ; ",
"> > > > > > > > > > > > > > . > > > > > > > > > > > > > > > . > . > > > > > > > > > > > > > > > > > > > > > > > > > > > > > > > ",
", , , , , , , , , , , , , , , , , , , , , , , , , , , , , , , , , , , , , , , , , , , , , , , . , . , , , , , . , , , . , , , , ",
"' ' ' ' ' ' ' ' ' ' ' ' ' ' . ' ' ' ' ' ' ' ' ' ' ' ' ' ' ' ' ' ' ' ' ' ' ' ' ' ' ' ' ' ' ' ' ' ' ' ' ' ' ' ' ' . ' . ' ' ' ' ' ",
") ) ) ) ) ) ) ) ) ) ) ) ) ) ) ) ) ) ) ) ) ) ) ) ) ) ) ) ) ) ) ) ) ) ) ) ) ) ) ) ) ) ) ) ) ) ) . ) . ) ) ) ) ) ) ) ) ) ) ) ) ) ) ",
"! ~ ! ! ! ! ! ! ! ! ! ! ! ! ! ! ! ! ! ! ! ! ! ! ! ! ! ! ! ! ! ! ! ! ! ! ! ! ! ! ! ! ! ! ! ! ! ! ! ! ! ! ! ! ! ! . ! . ! ! ! ! ! ",
"~ { ~ ] ] ] ] ] ] ] ] ] ] ] ] ] ] ] ] ] ] ] ] ] ] ] ] ] ] ] ] ] ] ] ] ] ] ] ] ] ] ] ] ] ] ] ] ] ] ] ] ] ] ] ] . ] ] ] . ] ] ] ] ",
"^ ~ ^ ^ ^ ^ ^ ^ ^ ^ ^ ^ ^ ^ ^ ^ ^ ^ ^ ^ ^ ^ ^ ^ ^ ^ ^ ^ ^ ^ ^ ^ ^ ^ ^ ^ ^ ^ . ^ ^ ^ . ^ ^ ^ ^ ^ ^ ^ ^ ^ ^ ^ ^ ^ ^ ^ ^ ^ ^ ^ ^ ^ ",
"~ / ~ ( ( ( ( ( ( ( ( ( ( ( ( ( ( ( ( ( ( ( ( ( ( ( ( ( ( ( ( ( ( ( ( ( ( ( ( . ( . ( ( ( ( ( ( ( ( ( ( ( ( ( ( ( ( ( ( ( ( ( ( ",
"_ _ / ~ . : . : : : : : : : : : : : : : : : . : : : : : : : : : : : : : : : : : : : : : : : : : : : : : : : : : : : : : : : : ~ ",
"_ _ / ~ < < < < < < < < < < < < < < < < < . < . < < < < < < < < < < < < < < < . < . < < < < < < < < < < . < < < < < < < < < < ~ ",
"_ _ _ / ~ [ . [ [ [ [ [ [ [ [ [ [ [ [ [ [ [ . [ [ [ [ [ [ [ [ [ [ [ [ [ [ [ . [ [ [ . [ [ [ [ [ [ [ [ . [ . [ [ [ [ [ [ [ [ ~ _ ",
"_ } _ _ / ~ | | | | | | | | | | | | | | | | | | | | | | | | | | | | | | | | | | | | | | | | | | | | | | . | | | | | | | | ~ _ } ",
"} } } } } 1 ~ 2 2 2 2 2 2 2 2 2 2 2 2 2 2 2 2 2 2 3 3 3 3 3 3 3 3 3 3 3 3 2 2 2 2 2 2 2 2 2 2 2 2 2 2 2 2 2 2 2 2 2 2 2 ~ } } } ",
"1 1 1 1 ~ ~ 4 4 4 4 4 4 4 4 4 4 4 4 4 4 4 4 4 4 4 3 3 3 3 3 3 3 3 3 3 3 3 4 4 4 4 4 4 4 4 4 4 4 4 4 4 4 4 4 4 4 4 4 4 4 4 ~ ~ 1 ",
"} } } } 1 1 ~ 5 5 5 5 5 5 5 5 5 5 5 5 5 5 5 5 5 5 3 3 3 3 3 3 3 3 3 3 3 3 5 5 5 5 5 5 5 5 5 5 5 5 5 5 5 5 5 5 5 5 5 5 5 ~ 1 } 6 ",
"6 } } 6 } 1 1 ~ 5 5 5 5 5 5 5 5 5 5 5 5 5 5 5 5 5 3 3 3 3 3 3 3 3 3 3 3 3 5 5 5 5 5 5 5 5 5 5 5 5 5 5 5 5 5 5 5 5 5 5 ~ 1 } 6 7 ",
"} } 6 7 6 } 1 1 ~ 5 5 5 5 5 5 5 5 5 5 5 5 5 5 5 5 3 3 3 3 3 3 3 3 3 3 3 3 5 5 5 5 5 5 5 5 5 5 5 5 5 5 5 5 5 5 5 5 5 ~ { } } } 6 ",
"} } } 6 } } 1 { ~ 5 5 5 5 5 5 5 5 5 5 5 5 5 5 5 5 3 3 3 3 3 3 3 3 3 3 3 3 5 5 5 5 5 5 5 5 5 5 5 5 5 5 5 5 5 5 5 5 5 ~ 1 { { } } ",
"{ } } } } { { 1 1 ~ 5 5 5 5 5 5 5 5 5 5 5 5 5 5 5 3 3 ~ ~ ~ ~ 3 3 ~ ~ ~ ~ 5 5 5 5 5 5 5 5 5 5 5 5 5 5 5 5 5 5 5 5 ~ 1 } } } { { ",
"} { { { { } } } 1 1 ~ 5 5 5 5 5 5 5 5 5 5 5 5 5 5 3 3 ~ ~ ~ ~ 3 3 ~ ~ ~ ~ 5 5 5 5 5 5 5 5 5 5 5 5 5 5 5 5 5 5 5 ~ 1 } } } } } } ",
"} } } } } } 1 1 ~ ~ 5 5 5 5 5 5 5 5 5 5 5 5 5 5 5 3 3 ~ ~ ~ ~ 3 3 ~ ~ ~ ~ 5 5 5 5 5 5 5 5 5 5 5 5 5 5 5 5 5 5 5 5 ~ ~ 1 1 } } } ",
"1 1 1 1 6 1 1 ~ 5 5 5 5 5 5 5 5 5 5 5 5 5 5 5 5 5 3 3 3 3 3 3 8 8 8 8 8 8 8 8 5 5 5 5 5 5 5 5 5 5 5 5 5 5 5 5 5 5 5 5 ~ 1 1 1 1 ",
"1 1 1 6 7 6 1 1 ~ ~ 5 5 5 5 5 5 5 5 5 5 5 5 5 5 5 3 3 3 3 3 3 8 8 8 8 8 8 8 8 5 5 5 5 5 5 5 5 5 5 5 5 5 5 5 5 5 5 ~ ~ 1 1 1 6 1 ",
"} } } } 6 } } } 1 1 ~ ~ 5 5 5 5 5 5 5 5 5 5 5 5 5 3 3 3 3 3 3 8 8 8 8 8 8 8 8 5 5 5 5 5 5 5 5 5 5 5 5 5 5 5 5 ~ ~ { 1 } } 6 7 6 ",
"} } } } } } } } { { 1 1 ~ 5 5 5 5 5 5 5 5 5 5 5 5 3 3 3 3 3 3 8 8 8 8 8 8 8 8 5 5 5 5 5 5 5 5 5 5 5 5 5 5 5 ~ 1 1 } { { } } 6 } ",
"} } } } { { { { } } } 1 1 ~ 9 9 0 a b b c d e e f g g _ g 3 3 3 3 g _ g g h i j j k k l l m m n n o p q r ~ 1 } } } } } { { } } ",
"{ { { { } } } } } 1 1 ~ ~ s t u u u u v w x y z z g g _ g g _ _ g g _ g g A A B C C C D D D E E E E F G H I ~ ~ 1 } } } } } { { ",
"1 1 1 1 1 1 1 1 1 1 ~ J K L M N N N N N O P Q R R g g g _ g g g g _ g g g M M M M S T U U U V V V W X Y Z `  ...~ 1 1 1 1 1 1 1 ",
"+.+.@.~ ~ ~ ~ ~ ~ ~ #.$.%.&.*.=.=.-.-.;.>.,.'.).!._ g g g _ _ _ _ g g g _ ).~.~.{.].^./.(.(.(._._.(.:.=.<.[.}.|.1.~ ~ ~ ~ ~ ~ ~ ",
"+.+.@.~ 2.3.4.5.6.7.8.9.0.a.;.b.c.d.e.f.g.h.i.j.k.g _ g g g g g g g g _ g l.j.j.j.k.m.n.n.n.o.o.m.l.].p.q.r.s.t.u.v.w.x.y.z.A.~ ",
"+.+.@.~ B.C.D.E.F.G.H.I.J.K.L.M.N.O.P.Q.R.k.n.S.T._ g g g g g g g g g g _ U.S.S.S.S.V.V.W.X.V.V.T.m.Y.Z.a.X `. +.+++@+#+$+%+&+~ ",
"~ ~ ~ ~ *+=+-+;+>+,+'+)+J.!+~+{+]+R.^+/+(+U.X._+:+g g g g g g g g g g g g X.<+<+<+<+W.W.W.X.V.V.T.m.h.Z.q.[+}+|+1+2+3+4+5+6+7+~ ",
"8+9+9+0+a+b+c+d+e+f+g+h+i+>.j+Q.j.k+(+l+U.T.X.m+:+_ g _ g _ g _ g _ g _ g X.X.X.X.X.X.V.V.T.T.T.T.m.n+o+p+q+r+s+t+u+v+w+x+y+z+A+",
"B+C+A+D+E+F+G+H+I+J+'+K+S L+]+j.k+M+(+(+N+S.V.X.X.3 3 3 3 3 3 3 3 3 3 3 3 T.T.T.T.T.T.T.S.U.U.U.O+k.].P+Q+R+S+T+U+V+W+X+Y+Z+y+`+",
" @.@+@@@#@$@%@&@*@=@-@;@K.'.>@_.j.,@'@k+M+(+n.n.)@3 3 3 3 n.n.n.n.3 3 3 3 n.n.n.(+(+(+(+(+m.k.k.l.h.!@;.Q+Y ~@{@]@^@/@W+(@_@:@<@",
"[@}@|@1@2@3@4@5@6@7@K 8@9@0@Y.>@i.a@l.l.l.j.j.b@k.3 3 3 3 c@c@c@c@3 3 3 3 c@c@,@,@,@,@d@d@d@l.a@>@j+e@-.f@g@R+h@{@i@j@k@l@m@z.n@",
"o@p@q@r@*@s@t@u@v@w@x@R y@z@^.h.A@B@C@C@a@a@a@_.l.3 3 3 3 D@D@D@D@3 3 3 3 D@D@E@E@E@F@C@C@C@C@B@h.G@~+H@=.p+<.I@J@K@L@M@N@O@P@Q@",
"R@S@T@U@V@W@X@Y@Z@;@`@ #.#+#^.h.(.>@@#A@@#Q.Q.Q.C@3 3 3 3 F@F@F@F@3 3 3 3 ############$#$#]+Q.B@>@%#~.~+&#!+*#=#X -#;#>#,#'#)#!#",
"h+~#{#w@~#]#^#/#(#_#:#<#0@[#/.h.h.(.(.(.$#]+]+]+@#3 3 3 3 ######}#3 3 3 3 |#|#|#|#|#|#1#1#$#Q.a@_.B@%#].2#L+3#=.O N 4#5#6#7#8#9#",
"0#a#b#b#b#b#%._#0.c#<#d#).e#f#g#(.h.h.n+1#P.P.P.$#3 3 3 3 |#|#h#h#3 3 3 3 i#i#i#i#i#i#j#1#P.Q.l.b@d@A@n+k#!@Z.!+=.*.l#m#O O N =#",
"q.n#i+i+i+i+S c#K.<#o#0@p#q#r#r#B@>@n+%#j#O.O.O.1#3 3 3 3 i#i#s#s#3 3 3 3 t#t#t#t#t#t#u#j#1#Q.d@v#k._.>@w#~.e@H@-.x#y#y#y#*.z#l#",
"*#*#*#*.*.=.=.A#!+>.B#C#Y.D#E#E#i.A@n+F#G#G#G#G#j#t#t#t#t#t#t#H#H#H#H#H#H#H#I#I#I#I#I#u#u#j#]+l.J#(+j.C@F#~.e@3#K#x#L#L#L#y#y#*.",
"x#M#-.-.-.-.K#N#&#Z.+#[#/.B@j.j.l.Q.P.{+O#O#O#O#u#I#I#I#I#I#I#P#P#P#P#P#P#P#Q#Q#Q#Q#Q#R#R#u#1#C@c@(+j._.(.G@S#T#U#V#V#V#V#V#V#x#",
"x#-.-.-.-.K#;.H@o+Z.+#p#f#r#j.k.j.C@$#u#R#W#W#W#R#Q#Q#Q#Q#Q#Q#X#X#X#X#X#X#X#Y#Y#Y#Y#Y#Z#Z#`#u#$#D@c@d@C@$#G@S#b. $V#.$.$.$.$V#V#",
"+$U#U#U#U#@$#$T#$$~+~.%$(._.j.k.j.C@&$u#Z#Z#Z#Z#Z#Y#Y#Y#Y#Y#Y#*$*$*$*$*$*$*$*$*$*$*$*$=$=$=$`#u#i#-$;$@#1#>$,$'$)$!$!$!$!$!$.$V#",
"V# $ $ $ $@$#$L.$$~+~.%$(._.j.k.j.C@&$~$Z#=$=$=$=$*$*$*$*$*$*$*$*$*$*$*$*$*$*$*$*$*$*$*$*$*$*$Z#~${$1#&$]$`#^$'$/$!$!$!$!$!$!$!$",
"($($_$_$)$:$'$<$,$[$G@F#}$_.b@k.j.C@]$~$=$=$=$=$=$*$*$*$*$*$*$*$*$*$*$*$*$*$*$*$*$*$*$*$*$*$|$1$2$=$`#~$~$=$3$:$($!$!$!$!$!$!$!$",
"!$!$($($/$4$'$<$,$[$G@F#@#_.b@k.d@;$]$`#=$=$=$=$=$*$*$*$*$*$*$*$*$*$*$*$*$*$*$*$*$*$*$*$*$*$|$1$1$1$1$=$=$1$5$6$7$8$8$8$8$8$!$!$",
"8$8$8$8$9$6$0$5$a$=$~$]$@#b$b@b@c$##t#`#=$=$=$=$=$*$*$*$*$*$*$*$*$*$*$*$*$*$*$*$*$*$*$*$*$*$|$1$a$a$a$1$1$a$d$6$7$8$8$8$8$8$8$8$",
"8$8$8$8$9$e$0$5$a$=$~$1#;$d@b@c@D@|#H#X#*$*$*$*$*$*$*$*$*$*$*$*$*$*$*$*$*$*$*$*$*$*$*$*$*$*$|$1$a$a$3$a$a$3$f$g$7$8$8$8$8$8$8$8$",
"8$8$8$8$9$e$0$5$a$=$~$1#;$d@b@c@D@|#I#Y#*$*$*$*$*$*$*$*$*$*$*$*$*$*$*$*$*$*$*$*$*$*$*$*$*$*$|$1$a$3$3$3$^$h$i$g$8$8$8$8$8$8$8$8$"};
