/* XPM */
static char * candycan_xpm[] = {
"64 64 497 2",
"  	c #3B4794",
". 	c #FCF67C",
"+ 	c #3C4896",
"@ 	c #3D4999",
"# 	c #3E4B9C",
"$ 	c #3F4C9F",
"% 	c #404EA2",
"& 	c #414FA4",
"* 	c #4351A7",
"= 	c #4452AA",
"- 	c #4553AD",
"; 	c #4655B0",
"> 	c #4756B2",
", 	c #4858B5",
"' 	c #4A59B8",
") 	c #4B5BBB",
"! 	c #4C5CBE",
"~ 	c #000000",
"{ 	c #FBF236",
"] 	c #4D5EC0",
"^ 	c #4E5FC3",
"/ 	c #E2E5F9",
"( 	c #4F60C6",
"_ 	c #FFFFFF",
": 	c #5162C9",
"< 	c #5263CC",
"[ 	c #5365CE",
"} 	c #37946E",
"| 	c #5466D1",
"1 	c #286B50",
"2 	c #5568D4",
"3 	c #CBC3C3",
"4 	c #8D2A2A",
"5 	c #5669D7",
"6 	c #F9EFEF",
"7 	c #AC3232",
"8 	c #586BDA",
"9 	c #D95763",
"0 	c #8891D3",
"a 	c #8991D4",
"b 	c #8A94D9",
"c 	c #8B94D9",
"d 	c #8B94DA",
"e 	c #8B95DB",
"f 	c #8C95DC",
"g 	c #8D97E0",
"h 	c #8E98E1",
"i 	c #8E98E2",
"j 	c #8E98E3",
"k 	c #8E98E4",
"l 	c #8F99E4",
"m 	c #8F99E5",
"n 	c #8691E3",
"o 	c #A4ABE1",
"p 	c #ACB2E5",
"q 	c #ACB2E6",
"r 	c #B0B5E9",
"s 	c #B0B6E9",
"t 	c #B0B6EA",
"u 	c #B1B7EB",
"v 	c #B1B7EC",
"w 	c #B1B7ED",
"x 	c #B0B6EE",
"y 	c #AFB5EE",
"z 	c #A8AEEC",
"A 	c #A7AEEC",
"B 	c #AFB4E5",
"C 	c #B7BBEA",
"D 	c #B9BDEB",
"E 	c #C3C7F1",
"F 	c #C3C7F2",
"G 	c #C3C7F0",
"H 	c #C6CAF2",
"I 	c #C8CCF2",
"J 	c #C8CCF3",
"K 	c #C5C9F2",
"L 	c #C0C4F1",
"M 	c #BDC1F1",
"N 	c #B9BEF0",
"O 	c #B8BCF0",
"P 	c #B7BCEF",
"Q 	c #ADB3EC",
"R 	c #6D433B",
"S 	c #4A2A24",
"T 	c #B4B7E7",
"U 	c #B9BDEA",
"V 	c #C1C4EF",
"W 	c #C3C6F1",
"X 	c #C6C9F3",
"Y 	c #C7CAF3",
"Z 	c #E6E6E6",
"` 	c #D0D0D0",
" .	c #D1D3F4",
"..	c #D0D3F4",
"+.	c #CFD2F4",
"@.	c #D3D6F5",
"#.	c #D4D7F5",
"$.	c #D5D8F6",
"%.	c #D8DBF7",
"&.	c #CBCFF4",
"*.	c #C1C5F2",
"=.	c #BFC2F1",
"-.	c #BCC0F0",
";.	c #B4B9EC",
">.	c #AFB4EA",
",.	c #7675BA",
"'.	c #7C7CBF",
").	c #8686C6",
"!.	c #9293CF",
"~.	c #9FA1D8",
"{.	c #ABADE0",
"].	c #B5B8E7",
"^.	c #BCBFEC",
"/.	c #C4C7F0",
"(.	c #C6C9F2",
"_.	c #C9CCF4",
":.	c #CACDF5",
"<.	c #CCCEF5",
"[.	c #DBDDF7",
"}.	c #DBDCF7",
"|.	c #DADCF7",
"1.	c #D9DAF7",
"2.	c #DCDEF7",
"3.	c #DDDFF8",
"4.	c #DDDFF7",
"5.	c #D9DBF7",
"6.	c #D2D4F5",
"7.	c #CCCEF4",
"8.	c #C5C8F2",
"9.	c #C1C4F1",
"0.	c #BDC0EF",
"a.	c #B5B9EB",
"b.	c #AEB2E7",
"c.	c #A6AAE2",
"d.	c #9C9FDA",
"e.	c #9193D2",
"f.	c #8788CA",
"g.	c #7E7EC3",
"h.	c #7777BE",
"i.	c #625FAB",
"j.	c #6866B0",
"k.	c #7270B7",
"l.	c #807FC1",
"m.	c #9191CD",
"n.	c #A2A4DA",
"o.	c #B1B3E4",
"p.	c #BBBEEB",
"q.	c #C3C6F0",
"r.	c #C7CAF2",
"s.	c #CBCEF5",
"t.	c #CED1F6",
"u.	c #D1D3F6",
"v.	c #D4D6F7",
"w.	c #DFE1F8",
"x.	c #DEE0F8",
"y.	c #DEDFF8",
"z.	c #E0E1F8",
"A.	c #E0E2F9",
"B.	c #E0E2F8",
"C.	c #D4D6F5",
"D.	c #CDD0F4",
"E.	c #BBBFEE",
"F.	c #B3B7EA",
"G.	c #AAADE3",
"H.	c #9EA0DB",
"I.	c #8F91D0",
"J.	c #8081C5",
"K.	c #7373BB",
"L.	c #6A68B3",
"M.	c #6360AE",
"N.	c #5450A1",
"O.	c #5855A4",
"P.	c #615EAA",
"Q.	c #6F6DB5",
"R.	c #8382C3",
"S.	c #9899D3",
"T.	c #ACAEE1",
"U.	c #BABCEA",
"V.	c #C9CCF3",
"W.	c #CED1F5",
"X.	c #D3D5F6",
"Y.	c #D6D8F7",
"Z.	c #DADBF7",
"`.	c #E1E3F9",
" +	c #E1E2F9",
".+	c #D5D7F6",
"++	c #BFC2F0",
"@+	c #B9BDEE",
"#+	c #B0B4E8",
"$+	c #A4A8E0",
"%+	c #9597D4",
"&+	c #8383C7",
"*+	c #7271BA",
"=+	c #6462AF",
"-+	c #5B58A8",
";+	c #5551A3",
">+	c #4B479C",
",+	c #4A469B",
"'+	c #4B479B",
")+	c #4D499C",
"!+	c #514D9F",
"~+	c #5A56A5",
"{+	c #6865B0",
"]+	c #7C7BBF",
"^+	c #9495D0",
"/+	c #AAACE0",
"(+	c #B9BCEA",
"_+	c #C4C7F1",
":+	c #CBCEF3",
"<+	c #D2D5F6",
"[+	c #D7D9F7",
"}+	c #DBDDF8",
"|+	c #DCDEF8",
"1+	c #DDDEF8",
"2+	c #E1E3F8",
"3+	c #E1E2F8",
"4+	c #D4D7F6",
"5+	c #CCCFF4",
"6+	c #C4C7F2",
"7+	c #BDC1F0",
"8+	c #B7BBEE",
"9+	c #AEB2E8",
"0+	c #A2A5DF",
"a+	c #9193D3",
"b+	c #7E7FC4",
"c+	c #6D6BB7",
"d+	c #5F5DAC",
"e+	c #5653A5",
"f+	c #514CA0",
"g+	c #4D499D",
"h+	c #4F4B9F",
"i+	c #4E499D",
"j+	c #4E4A9D",
"k+	c #504C9F",
"l+	c #5551A2",
"m+	c #5E5BA9",
"n+	c #6C6AB4",
"o+	c #8080C3",
"p+	c #9798D3",
"q+	c #BBBDEB",
"r+	c #C5C8F1",
"s+	c #CDCFF4",
"t+	c #DCDDF8",
"u+	c #DFE0F8",
"v+	c #DEE0F7",
"w+	c #CBCDF4",
"x+	c #C3C6F2",
"y+	c #BCC0F1",
"z+	c #B6BBEE",
"A+	c #AFB3E9",
"B+	c #A4A8E1",
"C+	c #9698D6",
"D+	c #8485C9",
"E+	c #7473BC",
"F+	c #6664B2",
"G+	c #5D5AAA",
"H+	c #524EA1",
"I+	c #5C59A9",
"J+	c #5A57A7",
"K+	c #5956A6",
"L+	c #5A57A6",
"M+	c #5D5AA9",
"N+	c #6361AD",
"O+	c #6D6CB5",
"P+	c #7C7BC0",
"Q+	c #8E8FCD",
"R+	c #A1A3DA",
"S+	c #B1B4E5",
"T+	c #BDC0ED",
"U+	c #CED1F4",
"V+	c #D6D8F6",
"W+	c #DADCF8",
"X+	c #DBDCF8",
"Y+	c #DDE0F8",
"Z+	c #CFD2F5",
"`+	c #B8BCEF",
" @	c #B3B7EB",
".@	c #ABAFE6",
"+@	c #A0A3DE",
"@@	c #9394D4",
"#@	c #7877BF",
"$@	c #6D6CB7",
"%@	c #6664B1",
"&@	c #605DAC",
"*@	c #7372BA",
"=@	c #706FB8",
"-@	c #6F6EB7",
";@	c #706FB7",
">@	c #7473BA",
",@	c #7A7ABF",
"'@	c #8484C6",
")@	c #9192CF",
"!@	c #9EA0DA",
"~@	c #ACAFE3",
"{@	c #C0C4EE",
"]@	c #C9CBF2",
"^@	c #CED1F3",
"/@	c #D8DAF6",
"(@	c #D8DAF7",
"_@	c #DADDF7",
":@	c #DADDF8",
"<@	c #D9DCF7",
"[@	c #CDD0F5",
"}@	c #C8CBF4",
"|@	c #C4C7F3",
"1@	c #BFC3F2",
"2@	c #B8BCEE",
"3@	c #ACB0E6",
"4@	c #A3A6DF",
"5@	c #999BD8",
"6@	c #8F90D0",
"7@	c #8686C9",
"8@	c #7877BE",
"9@	c #8F90CE",
"0@	c #8C8CCC",
"a@	c #8B8BCA",
"b@	c #8B8CCB",
"c@	c #9495D1",
"d@	c #9B9DD7",
"e@	c #A4A7DE",
"f@	c #ADB0E4",
"g@	c #B6B9E9",
"h@	c #BDC1ED",
"i@	c #CACDF2",
"j@	c #CFD1F3",
"k@	c #D6D9F6",
"l@	c #D7D9F6",
"m@	c #D7DAF7",
"n@	c #D9DBF8",
"o@	c #D8DBF8",
"p@	c #D7DAF8",
"q@	c #D1D4F6",
"r@	c #CACDF4",
"s@	c #BDC2F0",
"t@	c #BABEEE",
"u@	c #B7BAEC",
"v@	c #B2B5E9",
"w@	c #ACAFE5",
"x@	c #A6A8E0",
"y@	c #9FA1DB",
"z@	c #999BD6",
"A@	c #9395D2",
"B@	c #A8ABE0",
"C@	c #A6A8DE",
"D@	c #A5A6DD",
"E@	c #A5A7DD",
"F@	c #A7A9DE",
"G@	c #AAACE1",
"H@	c #AEB1E4",
"I@	c #B3B6E7",
"J@	c #B8BBEB",
"K@	c #C2C5EF",
"L@	c #C6CAF1",
"M@	c #CBCFF3",
"N@	c #D6D9F7",
"O@	c #D6D9F8",
"P@	c #D5D8F7",
"Q@	c #D4D6F6",
"R@	c #D0D3F5",
"S@	c #CBCEF4",
"T@	c #C6CAF3",
"U@	c #C2C6F1",
"V@	c #BEC2F0",
"W@	c #BCC0EE",
"X@	c #B9BDED",
"Y@	c #B6BAEA",
"Z@	c #B3B7E8",
"`@	c #B0B3E5",
" #	c #ACAFE2",
".#	c #B7BAE9",
"+#	c #B6B9E8",
"@#	c #B8BBEA",
"##	c #BABDEB",
"$#	c #BCC0ED",
"%#	c #BFC2EE",
"&#	c #C2C5F0",
"*#	c #C5C9F1",
"=#	c #C9CCF2",
"-#	c #D1D4F4",
";#	c #D5D9F8",
">#	c #D5D8F8",
",#	c #D4D7F7",
"'#	c #CFD1F4",
")#	c #CACEF4",
"!#	c #C4C8F2",
"~#	c #C2C5F1",
"{#	c #C1C5F1",
"]#	c #C0C4F0",
"^#	c #BFC3EF",
"/#	c #BDC1EE",
"(#	c #BBBEEC",
"_#	c #C1C5F0",
":#	c #C0C4EF",
"<#	c #C0C3EF",
"[#	c #C6C9F1",
"}#	c #CCCFF2",
"|#	c #D3D6F4",
"1#	c #D5D8F5",
"2#	c #D6D8F5",
"3#	c #D5D7F7",
"4#	c #D4D8F8",
"5#	c #D4D7F8",
"6#	c #D3D6F7",
"7#	c #D1D4F5",
"8#	c #C5C8F3",
"9#	c #C4C8F3",
"0#	c #C4C8F1",
"a#	c #CBCEF2",
"b#	c #D2D5F4",
"c#	c #D5D7F5",
"d#	c #D7DAF6",
"e#	c #D3D7F8",
"f#	c #D3D6F8",
"g#	c #D2D5F7",
"h#	c #DBDEF7",
"i#	c #D3D5F5",
"j#	c #C7CAF4",
"k#	c #C6C9F4",
"l#	c #C5C9F3",
"m#	c #C8CBF3",
"n#	c #CDD0F3",
"o#	c #D0D3F3",
"p#	c #D6D9F5",
"q#	c #D9DBF6",
"r#	c #D3D6F6",
"s#	c #D3D5F7",
"t#	c #D2D6F8",
"u#	c #D2D5F8",
"v#	c #DBDEF8",
"w#	c #C8CCF4",
"x#	c #C6CAF4",
"y#	c #C7CBF4",
"z#	c #C9CDF4",
"A#	c #D2D4F7",
"B#	c #D1D5F8",
"C#	c #D1D4F8",
"D#	c #D1D4F7",
"E#	c #CDD1F6",
"F#	c #CACEF5",
"G#	c #C8CBF5",
"H#	c #C6CAF5",
"I#	c #D1D3F7",
"J#	c #D0D4F8",
"K#	c #D0D3F8",
"L#	c #D0D3F7",
"M#	c #D0D4F7",
"N#	c #C7CBF5",
"O#	c #C5CAF5",
"P#	c #C7CAF5",
"Q#	c #C8CCF5",
"R#	c #C9CDF5",
"S#	c #CCCFF5",
"T#	c #D2D5F5",
"U#	c #D4D8F7",
"V#	c #CFD3F8",
"W#	c #E1D8D8",
"X#	c #CFD3F7",
"Y#	c #D6DAF8",
"Z#	c #D6DAF7",
"`#	c #D0D4F6",
" $	c #CDD0F6",
".$	c #C9CDF6",
"+$	c #C7CBF6",
"@$	c #C5CAF6",
"#$	c #D1D5F7",
"$$	c #F2E8E8",
"%$	c #D2D6F7",
"&$	c #D3D7F7",
"*$	c #CDD0F7",
"=$	c #C6CBF6",
"-$	c #C6CAF6",
";$	c #C7CAF6",
">$	c #C8CCF6",
",$	c #CBCEF6",
"'$	c #CFD2F6",
")$	c #D5D9F7",
"!$	c #C6BEBE",
"~$	c #CED2F8",
"{$	c #CED2F7",
"]$	c #CFD2F7",
"^$	c #CCD0F7",
"/$	c #C7CCF6",
"($	c #CBCFF7",
"_$	c #C8CCF7",
":$	c #C6CAF7",
"<$	c #C5CAF7",
"[$	c #C6CBF7",
"}$	c #C9CDF7",
"|$	c #CDD1F7",
"1$	c #D8DCF7",
"2$	c #D9DCF8",
"3$	c #CBCEF7",
"4$	c #C7CCF7",
"5$	c #CACEF7",
"6$	c #C7CBF7",
"7$	c #CCCFF7",
"8$	c #CACDF7",
"                                                                                                                                ",
"                                                                                                                                ",
"                                                                                          .                                     ",
"+ + + + + + + + + + + + + + + + + + + + + + + + + + + + + + + + + + + + + + + + + + + + . + . + + + + + + + + + + + + . + + + + ",
"@ @ @ . @ @ @ @ @ @ @ @ @ @ @ @ @ @ @ @ @ . @ @ @ . @ @ @ @ @ @ @ @ @ @ @ @ @ @ @ @ @ @ @ . @ @ @ @ @ @ @ @ @ @ @ @ @ @ @ @ @ @ ",
"# # . # . # # # # # # # # # # # # # # # # # . # . # # # # # # # # # # # # # # # # # # # # # # # # # # # # # # # # # # . # # # # ",
"$ $ $ . $ $ $ $ $ $ $ $ $ $ $ $ $ $ $ $ $ $ $ $ $ $ $ $ $ $ $ $ $ $ $ $ $ $ $ $ $ $ $ $ $ $ $ $ $ $ $ $ $ $ $ $ . $ . . . $ . $ ",
"% % % % % % % % % % % % % % % % % % % % % % . % . % % % % % % % % % % % % % % . % % % % % % % % % % % % % % % % % % % . % % % % ",
"& & & & & & & & & & & & & & & & & & & & & . & & & . & & & & & & & & & & & & . . . & & & & & & & & & & & & & & & & & & & & & & & ",
"* * * * * * * * * * * * * * . * * * * * * * * * * * * * * * * * * * * * * * * . * * * * * * * * * * * * * * * * * * * . * * * * ",
"= = = = = = = = = = = = = = = = = = = = = = = = = = = = = = = = = = = = = = = = = = = = = = = = = = = = = = = = = = = = = = = = ",
"- - - - - - - - - - - - - - . - - - - - - - - - - - - - - - . - . - - - - - - - - - - - - - - - - - - - - - - - - - - - - - - - ",
"; ; ; ; ; ; ; ; ; ; ; . ; . . . ; . ; ; ; ; ; ; ; ; ; ; ; ; ; ; ; ; ; ; ; ; ; ; ; ; ; ; ; ; ; ; ; ; ; ; ; ; ; ; ; ; ; ; ; ; ; ; ",
"> > > > > > > > > > > > > > . > > > > > > > > > > > > > > > . > . > > > > > > > > > > > > > > > > > > > > > > > > > > > > > > > ",
", , , , , , , , , , , , , , , , , , , , , , , , , , , , , , , , , , , , , , , , , , , , , , , . , . , , , , , . , , , . , , , , ",
"' ' ' ' ' ' ' ' ' ' ' ' ' ' . ' ' ' ' ' ' ' ' ' ' ' ' ' ' ' ' ' ' ' ' ' ' ' ' ' ' ' ' ' ' ' ' ' ' ' ' ' ' ' ' ' . ' . ' ' ' ' ' ",
") ) ) ) ) ) ) ) ) ) ) ) ) ) ) ) ) ) ) ) ) ) ) ) ) ) ) ) ) ) ) ) ) ) ) ) ) ) ) ) ) ) ) ) ) ) ) . ) . ) ) ) ) ) ) ) ) ) ) ) ) ) ) ",
"! ~ ! ! ! ! ! ! ! ! ! ! ! ! ! ! ! ! ! ! ! ! ! ! ! ! ! ! ! ! ! ! ! ! ! ! ! ! ! ! ! ! ! ! ! ! ! ! ! ! ! ! ! ! ! ! . ! . ! ! ! ! ! ",
"~ { ~ ] ] ] ] ] ] ] ] ] ] ] ] ] ] ] ] ] ] ] ] ] ] ] ] ] ] ] ] ] ] ] ] ] ] ] ] ] ] ] ] ] ] ] ] ] ] ] ] ] ] ] ] . ] ] ] . ] ] ] ] ",
"^ ~ ^ ^ ^ ^ ^ ^ ^ ^ ^ ^ ^ ^ ^ ^ ^ ^ ^ ^ ^ ^ ^ ^ ^ ^ ^ ^ ^ ^ ^ ^ ^ ^ ^ ^ ^ ^ . ^ ^ ^ . ^ ^ ^ ^ ^ ^ ^ ^ ^ ^ ^ ^ ^ ^ ^ ^ ^ ^ ^ ^ ^ ",
"~ / ~ ( ( ( ( ( ( ( ( ( ( ( ( ( ( ( ( ( ( ( ( ( ( ( ( ( ( ( ( ( ( ( ( ( ( ( ( . ( . ( ( ( ( ( ( ( ( ( ( ( ( ( ( ( ( ( ( ( ( ( ( ",
"_ _ / ~ . : . : : : : : : : : : : : : : : : . : : : : : : : : : : : : : : : : : : : : : : : : : : : : : : : : : : : : : : : : ~ ",
"_ _ / ~ < < < < < < < < < < < < < < < < < . < . < < < < < < < < < < < < < < < . < . < < < < < < < < < < . < < < < < < < < < < ~ ",
"_ _ _ / ~ [ . [ [ [ [ [ [ [ [ [ [ [ [ [ [ [ . [ [ [ [ [ [ [ [ [ [ [ [ [ [ [ . [ [ [ . [ [ [ [ [ [ [ [ . [ . [ [ [ [ [ [ [ [ ~ _ ",
"_ } _ _ / ~ | | | | | | | | | | | | | | | | | | | | ~ ~ ~ ~ ~ ~ ~ | | | | | | | | | | | | | | | | | | | . | | | | | | | | ~ _ } ",
"} } } } } 1 ~ 2 2 2 2 2 2 2 2 2 2 2 2 2 2 2 2 ~ ~ ~ 3 3 3 3 3 3 4 ~ ~ ~ 2 2 2 2 2 2 2 2 2 2 2 2 2 2 2 2 2 2 2 2 2 2 2 2 ~ } } } ",
"1 1 1 1 ~ ~ 5 5 5 5 5 5 5 5 5 5 5 5 5 5 5 5 ~ 6 6 6 6 6 6 6 6 7 7 4 4 4 ~ 5 5 5 5 5 5 5 5 5 5 5 5 5 5 5 5 5 5 5 5 5 5 5 5 ~ ~ 1 ",
"} } } } 1 1 ~ 8 8 8 8 8 8 8 8 8 8 8 8 8 ~ ~ 6 6 6 6 6 6 6 6 6 7 7 7 7 7 4 ~ ~ 8 8 8 8 8 8 8 8 8 8 8 8 8 8 8 8 8 8 8 8 8 ~ 1 } 7 ",
"7 } } 7 } 1 1 ~ 8 8 8 8 8 8 8 8 8 8 8 ~ 6 6 6 6 6 6 6 6 6 6 7 7 7 7 7 7 7 4 4 ~ 8 8 8 8 8 8 8 8 8 8 8 8 8 8 8 8 8 8 8 ~ 1 } 7 9 ",
"} } 7 9 7 } 1 1 ~ 8 8 8 8 8 8 8 8 8 ~ 7 7 6 6 6 6 6 6 6 6 6 7 7 7 7 7 7 7 7 7 3 ~ 8 8 8 8 8 8 8 8 8 8 8 8 8 8 8 8 8 ~ { } } } 7 ",
"} } } 7 } } 1 { ~ 8 8 8 8 8 8 8 8 8 ~ 7 7 7 7 6 6 6 6 6 6 7 7 7 7 7 7 7 7 7 7 3 ~ 8 8 8 8 8 8 8 8 8 8 8 8 8 8 8 8 8 ~ 1 { { } } ",
"{ } } } } { { 1 1 ~ 8 8 8 8 8 8 8 ~ 7 7 7 7 7 7 6 6 6 3 ~ ~ ~ 7 7 7 7 7 7 7 7 6 3 ~ 8 8 8 8 8 8 8 8 8 8 8 8 8 8 8 ~ 1 } } } { { ",
"} { { { { } } } 1 1 ~ 8 8 8 8 8 8 ~ 7 7 7 7 7 7 7 6 3 ~ 8 8 8 ~ 7 7 7 7 7 7 7 6 3 ~ 8 8 8 8 8 8 8 8 8 8 8 8 8 8 ~ 1 } } } } } } ",
"} } } } } } 1 1 ~ ~ 8 8 8 8 8 8 8 ~ 7 7 7 7 7 7 7 4 ~ 8 8 8 8 8 ~ 7 7 7 7 7 7 6 3 ~ 8 8 8 8 8 8 8 8 8 8 8 8 8 8 8 ~ ~ 1 1 } } } ",
"1 1 1 1 7 1 1 ~ 8 8 8 8 8 8 8 8 8 ~ 7 7 7 7 7 7 4 ~ 8 8 8 8 8 8 8 ~ 7 7 7 7 6 6 3 ~ 8 8 8 8 8 8 8 8 8 8 8 8 8 8 8 8 8 ~ 1 1 1 1 ",
"1 1 1 7 9 7 1 1 ~ ~ 8 8 8 8 8 8 8 ~ 7 7 7 7 7 7 4 ~ 8 8 8 8 8 8 8 ~ 7 7 7 7 6 6 3 ~ 8 8 8 8 8 8 8 8 8 8 8 8 8 8 8 ~ ~ 1 1 1 7 1 ",
"} } } } 7 } } } 1 1 ~ ~ 8 8 8 8 8 ~ 7 7 7 7 7 7 4 ~ 8 8 8 8 8 8 8 ~ 7 7 7 6 6 6 3 ~ 8 8 8 8 8 8 8 8 8 8 8 8 8 ~ ~ { 1 } } 7 9 7 ",
"} } } } } } } } { { 1 1 ~ 8 8 8 8 ~ 7 7 7 7 7 7 4 ~ 8 8 8 8 8 8 8 ~ 7 7 6 6 6 6 3 ~ 8 8 8 8 8 8 8 8 8 8 8 8 ~ 1 1 } { { } } 7 } ",
"} } } } { { { { } } } 1 1 ~ 0 0 a ~ 7 7 7 7 7 7 4 ~ b c d d e e f ~ 7 6 6 6 6 6 4 ~ g h h i i j j k l m n ~ 1 } } } } } { { } } ",
"{ { { { } } } } } 1 1 ~ ~ o p q q ~ 7 7 7 7 7 7 4 ~ r s s s s t t ~ 6 6 6 6 6 6 4 ~ u v v v w w w w x y z A ~ ~ 1 } } } } } { { ",
"1 1 1 1 1 1 1 1 1 1 ~ B C D E F F ~ 7 7 _ _ _ _ 4 ~ G G G G G G E ~ 6 6 6 6 6 6 4 ~ H I I I J J J K L M N O P Q ~ 1 1 1 1 1 1 1 ",
"R R S ~ ~ ~ ~ ~ ~ ~ T U V W X Y Y ~ _ _ _ _ _ Z ` ~  . . . . ...+.~ 6 6 6 6 6 7 4 ~ @.#.$.$.$.%.%.$.&.Y *.=.-.;.>.~ ~ ~ ~ ~ ~ ~ ",
"R R S ~ ,.'.).!.~.{.].^./.(._.:.<.~ _ _ _ _ Z Z ` ~ [.[.[.[.}.|.1.~ 6 6 6 6 6 7 4 ~ 2.3.3.3.4.4.2.5.6.7.8.9.0.a.b.c.d.e.f.g.h.~ ",
"R R S ~ i.j.k.l.m.n.o.p.q.r.s.t.u.v.~ ` ` ` ` ` ~ w.w.w.w.w.w.x.y.~ 6 6 6 6 6 7 4 ~ z.z.A.B.z.z.w.2.C.D.(.L E.F.G.H.I.J.K.L.M.~ ",
"~ ~ ~ ~ N.O.P.Q.R.S.T.U.q.V.W.X.Y.1.Z.~ ~ ~ ~ ~ `.`.`.`.`.`. +B.z.~ 6 6 6 6 7 7 4 ~ A.A.A.B.z.z.w.2..+D.8.++@+#+$+%+&+*+=+-+;+~ ",
">+,+,+'+)+!+~+{+]+^+/+(+_+:+<+[+|.}+|+1+x.w.B.2+`.3+3+3+3+3+3+B.B.~ 6 6 6 7 7 7 4 ~ B.z.z.w.w.w.w.2.4+5+6+7+8+9+0+a+b+c+d+e+f+g+",
"h+i+g+j+k+l+m+n+o+p+T.q+r+s+Y.|.}+t+|+|+y.u+z.B.B.B.B.B.z.z.z.z.w.~ 6 7 7 7 7 7 4 ~ w.w.u+x.x.x.v+[.6.w+x+y+z+A+B+C+D+E+F+G+e+H+",
"I+J+K+L+M+N+O+P+Q+R+S+T+r.U+V+%.|.W+X+}+t+|+3.3.Y+Y+Y+3.3.3.3.3.3.~ 7 7 7 7 7 7 4 ~ |+|+|+2.[.[.5..+Z+_.x+M `+ @.@+@@@D+#@$@%@&@",
"*@=@-@;@>@,@'@)@!@~@C {@]@^@C.V+/@(@5.5.5.|.|._@[.}+}+}+}+:@:@:@:@~ 7 7 7 7 7 7 4 ~ W+<@<@<@5.(@V+<+[@}@|@1@y+2@ @3@4@5@6@7@g.8@",
"9@0@a@b@Q+c@d@e@f@g@h@G i@j@@..+k@l@m@m@(@(@(@%.5.n@n@n@n@o@o@o@o@~ 7 7 7 7 7 7 4 ~ p@m@m@m@m@l@.+q@W.r@Y 6+*.s@t@u@v@w@x@y@z@A@",
"B@C@D@E@F@G@H@I@J@T+K@L@M@+.@..+$.V+N@k@N@[+[+[+m@p@p@p@p@p@p@p@p@~ 7 7 7 7 7 7 4 ~ O@P@P@Y.[+l@V+Q@R@W.S@V.T@U@L V@W@X@Y@Z@`@ #",
"(+.#+#g@.#@###$#%#&#*#=#^@-##..+.+$.$.$.P@Y.Y.Y.N@O@O@O@O@O@O@O@;#~ 7 7 7 7 7 7 3 ~ >#,#,#P@[+(@%.l@Q@6.'#s+)#Y !#F ~#{#]#^#/#(#",
"_#:#<#<#<#<#V &#/.[#=#}#..|#1#2#$..+.+4+,#3#3#3#P@>#>#>#>#>#>#4#4#~ 7 7 7 7 7 7 3 ~ 5#6#,#3#[+5._@<@k@4+7#Z+D.V.Y X 8#9#!#!#F U@",
"8.0#_+_+_+_+r+[#r.=#a#^@b#c#d#d#l@V+4+Q@6#v.v.v.,#5#5#5#5#5#5#e#e#~ 7 7 7 7 7 6 3 ~ f#g#6#,#[+<@h#[.%.V+i#R@[@r@}@j#k#k#k#X l#8#",
"T@T@T@X X Y Y m#V.:+n#o#C.p#q#q#/@k@4+r#s#s#s#s#6#f#f#f#f#f#f#t#t#~ 7 7 7 7 7 6 3 ~ u#g#g#6#Y.5.v#|+|.m@r#R@[@)#w#j#x#x#x#k#k#X ",
"j#y#}@}@}@}@w#z#S@D.+.-##.l@|.|.5.[+3#X.A#A#A#A#g#u#u#u#u#u#u#B#B#~ 7 7 7 7 6 6 3 ~ C#D#D#g#,#m@:@|+|.%.$.q@E#F#G#H#H#H#H#H#H#j#",
"j#}@}@}@}@w#_.r@5+D.+.b#1#d#|.[.|.m@P@g#D#I#I#I#D#C#C#C#C#C#C#J#J#~ 7 7 6 6 6 6 3 ~ K#L#L#M#g#P@o@:@<@m@P@q@E#:.N#H#O#O#O#O#H#H#",
"P#G#G#G#G#Q#R#F#S#W.R@T#$.%.|.[.|.m@U#g#L#L#L#L#L#K#K#K#K#K#K#V#V#~ 6 6 6 6 6 W#3 ~ V#X#X#X#M#g#5#Y#Z#N@,#`# $.$+$@$@$@$@$@$O#H#",
"H#N#N#N#N#Q#R#s.S#W.R@T#$.%.|.[.|.m@U##$L#X#X#X#X#V#V#V#V#V#V#V#V#~ $$$$6 6 W#W#3 ~ V#V#V#V#V#L##$%$,#U#&$M#*$.$=$@$@$@$@$@$@$@$",
"-$-$;$;$+$>$.$,$ $'$q@r#)$%._@[.|.m@&$#$X#X#X#X#X#V#V#V#V#V#V#V#V#~ !$!$3 3 3 3 3 ~ V#V#V#V#~${$]$X#M##$#$X#^$>$-$@$@$@$@$@$@$@$",
"@$@$-$-$=$/$.$,$ $'$q@r#N@%._@[.<@Z#&$M#X#X#X#X#X#V#V#V#V#V#V#V#V#~ ~ ~ ~ ~ ~ ~ ~ ~ V#V#V#V#~${${${${$X#X#{$($_$:$<$<$<$<$<$@$@$",
"<$<$<$<$[$_$}$($|$X##$&$N@1$_@_@2$O@f#M#X#X#X#X#X#V#V#V#V#V#V#V#V#V#V#V#V#V#V#V#V#V#V#V#V#V#~${$|$|$|${${$|$3$_$:$<$<$<$<$<$<$<$",
"<$<$<$<$[$4$}$($|$X##$,#Z#<@_@:@o@>#t#J#V#V#V#V#V#V#V#V#V#V#V#V#V#V#V#V#V#V#V#V#V#V#V#V#V#V#~${$|$|$^$|$|$^$5$6$:$<$<$<$<$<$<$<$",
"<$<$<$<$[$4$}$($|$X##$,#Z#<@_@:@o@>#u#K#V#V#V#V#V#V#V#V#V#V#V#V#V#V#V#V#V#V#V#V#V#V#V#V#V#V#~${$|$^$^$^$*$7$8$6$<$<$<$<$<$<$<$<$"};
