/* XPM */
static char * santa_xpm[] = {
"64 64 521 2",
"  	c #3B4794",
". 	c #FCF67C",
"+ 	c #3C4896",
"@ 	c #3D4999",
"# 	c #3E4B9C",
"$ 	c #3F4C9F",
"% 	c #404EA2",
"& 	c #414FA4",
"* 	c #4351A7",
"= 	c #4452AA",
"- 	c #4553AD",
"; 	c #4655B0",
"> 	c #4756B2",
", 	c #4858B5",
"' 	c #4A59B8",
") 	c #4B5BBB",
"! 	c #4C5CBE",
"~ 	c #000000",
"{ 	c #FBF236",
"] 	c #4D5EC0",
"^ 	c #4E5FC3",
"/ 	c #E2E5F9",
"( 	c #4F60C6",
"_ 	c #FFFFFF",
": 	c #5162C9",
"< 	c #5263CC",
"[ 	c #5365CE",
"} 	c #37946E",
"| 	c #5466D1",
"1 	c #286B50",
"2 	c #5568D4",
"3 	c #DE0000",
"4 	c #5669D7",
"5 	c #586BDA",
"6 	c #AC3232",
"7 	c #D95763",
"8 	c #8891D3",
"9 	c #8991D4",
"0 	c #8992D4",
"a 	c #8992D5",
"b 	c #8992D6",
"c 	c #8993D6",
"d 	c #8A93D7",
"e 	c #162737",
"f 	c #162836",
"g 	c #162834",
"h 	c #FDF8DB",
"i 	c #FDF8D8",
"j 	c #FEF8D8",
"k 	c #FEF7DA",
"l 	c #8D97DF",
"m 	c #8D97E0",
"n 	c #8E98E1",
"o 	c #8E98E2",
"p 	c #8E98E3",
"q 	c #8E98E4",
"r 	c #8F99E4",
"s 	c #8F99E5",
"t 	c #8691E3",
"u 	c #A4ABE1",
"v 	c #ACB2E5",
"w 	c #ACB2E6",
"x 	c #ACB2E7",
"y 	c #ADB3E7",
"z 	c #AEB4E7",
"A 	c #162739",
"B 	c #FDF7DF",
"C 	c #B1B7EB",
"D 	c #B1B7EC",
"E 	c #B1B7ED",
"F 	c #B0B6EE",
"G 	c #AFB5EE",
"H 	c #A8AEEC",
"I 	c #A7AEEC",
"J 	c #AFB4E5",
"K 	c #B7BBEA",
"L 	c #B9BDEB",
"M 	c #C3C7F1",
"N 	c #C3C7F2",
"O 	c #C4C8F2",
"P 	c #C1C5EF",
"Q 	c #C6CAF2",
"R 	c #C8CCF2",
"S 	c #C8CCF3",
"T 	c #C5C9F2",
"U 	c #C0C4F1",
"V 	c #BDC1F1",
"W 	c #B9BEF0",
"X 	c #B8BCF0",
"Y 	c #B7BCEF",
"Z 	c #ADB3EC",
"` 	c #6D433B",
" .	c #4A2A24",
"..	c #B4B7E7",
"+.	c #B9BDEA",
"@.	c #C1C4EF",
"#.	c #C3C6F1",
"$.	c #C6C9F3",
"%.	c #C7CAF3",
"&.	c #C8CBF4",
"*.	c #C9CCF4",
"=.	c #CBCEF3",
"-.	c #CCCFF3",
";.	c #010101",
">.	c #FFFFFD",
",.	c #FEF7DB",
"'.	c #D3D6F5",
").	c #D4D7F5",
"!.	c #D5D8F6",
"~.	c #D8DBF7",
"{.	c #CBCFF4",
"].	c #C1C5F2",
"^.	c #BFC2F1",
"/.	c #BCC0F0",
"(.	c #B4B9EC",
"_.	c #AFB4EA",
":.	c #7675BA",
"<.	c #7C7CBF",
"[.	c #8686C6",
"}.	c #9293CF",
"|.	c #9FA1D8",
"1.	c #ABADE0",
"2.	c #B5B8E7",
"3.	c #BCBFEC",
"4.	c #C4C7F0",
"5.	c #C6C9F2",
"6.	c #CACDF5",
"7.	c #CCCEF5",
"8.	c #CED0F5",
"9.	c #CFD1F5",
"0.	c #D0D2F5",
"a.	c #D2D4F6",
"b.	c #D5D7F6",
"c.	c #DCDEF7",
"d.	c #DDDFF8",
"e.	c #DDDFF7",
"f.	c #D9DBF7",
"g.	c #D2D4F5",
"h.	c #CCCEF4",
"i.	c #C5C8F2",
"j.	c #C1C4F1",
"k.	c #BDC0EF",
"l.	c #B5B9EB",
"m.	c #AEB2E7",
"n.	c #A6AAE2",
"o.	c #9C9FDA",
"p.	c #9193D2",
"q.	c #8788CA",
"r.	c #7E7EC3",
"s.	c #7777BE",
"t.	c #625FAB",
"u.	c #6866B0",
"v.	c #7270B7",
"w.	c #807FC1",
"x.	c #9191CD",
"y.	c #A2A4DA",
"z.	c #B1B3E4",
"A.	c #BBBEEB",
"B.	c #C3C6F0",
"C.	c #C7CAF2",
"D.	c #CBCEF5",
"E.	c #CED1F6",
"F.	c #D1D3F6",
"G.	c #D4D6F7",
"H.	c #D5D7F7",
"I.	c #D7D9F7",
"J.	c #D9DAF7",
"K.	c #DBDDF7",
"L.	c #FEF8D6",
"M.	c #000100",
"N.	c #E0E1F8",
"O.	c #E0E2F9",
"P.	c #E0E2F8",
"Q.	c #DFE1F8",
"R.	c #D4D6F5",
"S.	c #CDD0F4",
"T.	c #BBBFEE",
"U.	c #B3B7EA",
"V.	c #AAADE3",
"W.	c #9EA0DB",
"X.	c #8F91D0",
"Y.	c #8081C5",
"Z.	c #7373BB",
"`.	c #6A68B3",
" +	c #6360AE",
".+	c #5450A1",
"++	c #5855A4",
"@+	c #615EAA",
"#+	c #6F6DB5",
"$+	c #8382C3",
"%+	c #9899D3",
"&+	c #ACAEE1",
"*+	c #BABCEA",
"=+	c #C9CCF3",
"-+	c #CED1F5",
";+	c #D3D5F6",
">+	c #D6D8F7",
",+	c #DADBF7",
"'+	c #DBDCF7",
")+	c #DCDEF8",
"!+	c #DEE0F8",
"~+	c #FFF9D9",
"{+	c #FFF9D7",
"]+	c #010000",
"^+	c #BFC2F0",
"/+	c #B9BDEE",
"(+	c #B0B4E8",
"_+	c #A4A8E0",
":+	c #9597D4",
"<+	c #8383C7",
"[+	c #7271BA",
"}+	c #6462AF",
"|+	c #5B58A8",
"1+	c #5551A3",
"2+	c #4B479C",
"3+	c #4A469B",
"4+	c #4B479B",
"5+	c #4D499C",
"6+	c #514D9F",
"7+	c #5A56A5",
"8+	c #6865B0",
"9+	c #7C7BBF",
"0+	c #9495D0",
"a+	c #AAACE0",
"b+	c #B9BCEA",
"c+	c #C4C7F1",
"d+	c #D2D5F6",
"e+	c #DADCF7",
"f+	c #DBDDF8",
"g+	c #DDDEF8",
"h+	c #F2C720",
"i+	c #F5C61E",
"j+	c #F3C913",
"k+	c #F3C912",
"l+	c #F3C817",
"m+	c #F2CA13",
"n+	c #D4D7F6",
"o+	c #CCCFF4",
"p+	c #C4C7F2",
"q+	c #BDC1F0",
"r+	c #B7BBEE",
"s+	c #AEB2E8",
"t+	c #A2A5DF",
"u+	c #9193D3",
"v+	c #7E7FC4",
"w+	c #6D6BB7",
"x+	c #5F5DAC",
"y+	c #5653A5",
"z+	c #514CA0",
"A+	c #4D499D",
"B+	c #4F4B9F",
"C+	c #4E499D",
"D+	c #4E4A9D",
"E+	c #504C9F",
"F+	c #5551A2",
"G+	c #5E5BA9",
"H+	c #6C6AB4",
"I+	c #8080C3",
"J+	c #9798D3",
"K+	c #BBBDEB",
"L+	c #C5C8F1",
"M+	c #CDCFF4",
"N+	c #DCDDF8",
"O+	c #DEDFF8",
"P+	c #DFE0F8",
"Q+	c #F1C723",
"R+	c #F5C622",
"S+	c #F2C917",
"T+	c #F2C915",
"U+	c #F2C81A",
"V+	c #F1CA17",
"W+	c #DEE0F7",
"X+	c #CBCDF4",
"Y+	c #C3C6F2",
"Z+	c #BCC0F1",
"`+	c #B6BBEE",
" @	c #AFB3E9",
".@	c #A4A8E1",
"+@	c #9698D6",
"@@	c #8485C9",
"#@	c #7473BC",
"$@	c #6664B2",
"%@	c #5D5AAA",
"&@	c #524EA1",
"*@	c #5C59A9",
"=@	c #5A57A7",
"-@	c #5956A6",
";@	c #5A57A6",
">@	c #5D5AA9",
",@	c #6361AD",
"'@	c #6D6CB5",
")@	c #7C7BC0",
"!@	c #8E8FCD",
"~@	c #A1A3DA",
"{@	c #B1B4E5",
"]@	c #BDC0ED",
"^@	c #CED1F4",
"/@	c #D6D8F6",
"(@	c #DADCF8",
"_@	c #DBDCF8",
":@	c #FDF8DA",
"<@	c #CFD2F5",
"[@	c #B8BCEF",
"}@	c #B3B7EB",
"|@	c #ABAFE6",
"1@	c #A0A3DE",
"2@	c #9394D4",
"3@	c #7877BF",
"4@	c #6D6CB7",
"5@	c #6664B1",
"6@	c #605DAC",
"7@	c #7372BA",
"8@	c #706FB8",
"9@	c #6F6EB7",
"0@	c #706FB7",
"a@	c #7473BA",
"b@	c #7A7ABF",
"c@	c #8484C6",
"d@	c #9192CF",
"e@	c #9EA0DA",
"f@	c #ACAFE3",
"g@	c #C0C4EE",
"h@	c #C9CBF2",
"i@	c #CED1F3",
"j@	c #D8DAF6",
"k@	c #D8DAF7",
"l@	c #D9DCF7",
"m@	c #CDD0F5",
"n@	c #C4C7F3",
"o@	c #BFC3F2",
"p@	c #B8BCEE",
"q@	c #ACB0E6",
"r@	c #A3A6DF",
"s@	c #999BD8",
"t@	c #8F90D0",
"u@	c #8686C9",
"v@	c #7877BE",
"w@	c #8F90CE",
"x@	c #8C8CCC",
"y@	c #8B8BCA",
"z@	c #8B8CCB",
"A@	c #9495D1",
"B@	c #9B9DD7",
"C@	c #A4A7DE",
"D@	c #ADB0E4",
"E@	c #B6B9E9",
"F@	c #BDC1ED",
"G@	c #C3C7F0",
"H@	c #CACDF2",
"I@	c #CFD1F3",
"J@	c #D6D9F6",
"K@	c #D7D9F6",
"L@	c #D7DAF7",
"M@	c #122231",
"N@	c #12232D",
"O@	c #D7DAF8",
"P@	c #D1D4F6",
"Q@	c #CACDF4",
"R@	c #BDC2F0",
"S@	c #BABEEE",
"T@	c #B7BAEC",
"U@	c #B2B5E9",
"V@	c #ACAFE5",
"W@	c #A6A8E0",
"X@	c #9FA1DB",
"Y@	c #999BD6",
"Z@	c #9395D2",
"`@	c #A8ABE0",
" #	c #A6A8DE",
".#	c #A5A6DD",
"+#	c #A5A7DD",
"@#	c #A7A9DE",
"##	c #AAACE1",
"$#	c #AEB1E4",
"%#	c #B3B6E7",
"&#	c #B8BBEB",
"*#	c #C2C5EF",
"=#	c #C6CAF1",
"-#	c #CBCFF3",
";#	c #CFD2F4",
">#	c #D6D9F7",
",#	c #122134",
"'#	c #D6D9F8",
")#	c #D5D8F7",
"!#	c #D4D6F6",
"~#	c #D0D3F5",
"{#	c #CBCEF4",
"]#	c #C6CAF3",
"^#	c #C2C6F1",
"/#	c #BEC2F0",
"(#	c #BCC0EE",
"_#	c #B9BDED",
":#	c #B6BAEA",
"<#	c #B3B7E8",
"[#	c #B0B3E5",
"}#	c #ACAFE2",
"|#	c #B7BAE9",
"1#	c #B6B9E8",
"2#	c #B8BBEA",
"3#	c #BABDEB",
"4#	c #BCC0ED",
"5#	c #BFC2EE",
"6#	c #C2C5F0",
"7#	c #C5C9F1",
"8#	c #C9CCF2",
"9#	c #D1D4F4",
"0#	c #122232",
"a#	c #12222F",
"b#	c #D5D8F8",
"c#	c #D4D7F7",
"d#	c #CFD1F4",
"e#	c #CACEF4",
"f#	c #C2C5F1",
"g#	c #C1C5F1",
"h#	c #C0C4F0",
"i#	c #BFC3EF",
"j#	c #BDC1EE",
"k#	c #BBBEEC",
"l#	c #C1C5F0",
"m#	c #C0C4EF",
"n#	c #C0C3EF",
"o#	c #C6C9F1",
"p#	c #CCCFF2",
"q#	c #D0D3F4",
"r#	c #D3D6F4",
"s#	c #D5D8F5",
"t#	c #D6D8F5",
"u#	c #D4D7F8",
"v#	c #D3D6F7",
"w#	c #DADDF7",
"x#	c #D1D4F5",
"y#	c #C5C8F3",
"z#	c #C4C8F3",
"A#	c #C4C8F1",
"B#	c #CBCEF2",
"C#	c #D2D5F4",
"D#	c #D5D7F5",
"E#	c #D7DAF6",
"F#	c #D3D6F8",
"G#	c #D2D5F7",
"H#	c #DBDEF7",
"I#	c #D3D5F5",
"J#	c #C7CAF4",
"K#	c #C6C9F4",
"L#	c #C5C9F3",
"M#	c #C8CBF3",
"N#	c #CDD0F3",
"O#	c #D0D3F3",
"P#	c #D6D9F5",
"Q#	c #D9DBF6",
"R#	c #D3D6F6",
"S#	c #D3D5F7",
"T#	c #D2D5F8",
"U#	c #DBDEF8",
"V#	c #C8CCF4",
"W#	c #C6CAF4",
"X#	c #C7CBF4",
"Y#	c #C9CDF4",
"Z#	c #D2D4F7",
"`#	c #D1D4F8",
" $	c #D1D4F7",
".$	c #DADDF8",
"+$	c #CDD1F6",
"@$	c #CACEF5",
"#$	c #C8CBF5",
"$$	c #C6CAF5",
"%$	c #D1D3F7",
"&$	c #D0D3F8",
"*$	c #D0D3F7",
"=$	c #D0D4F7",
"-$	c #D8DBF8",
";$	c #C7CBF5",
">$	c #C5CAF5",
",$	c #C7CAF5",
"'$	c #C8CCF5",
")$	c #C9CDF5",
"!$	c #CCCFF5",
"~$	c #D2D5F5",
"{$	c #D4D8F7",
"]$	c #CFD3F8",
"^$	c #CFD3F7",
"/$	c #D6DAF8",
"($	c #D6DAF7",
"_$	c #D0D4F6",
":$	c #CDD0F6",
"<$	c #C9CDF6",
"[$	c #C7CBF6",
"}$	c #C5CAF6",
"|$	c #D1D5F7",
"1$	c #D2D6F7",
"2$	c #D3D7F7",
"3$	c #CDD0F7",
"4$	c #C6CBF6",
"5$	c #C6CAF6",
"6$	c #C7CAF6",
"7$	c #C8CCF6",
"8$	c #CBCEF6",
"9$	c #CFD2F6",
"0$	c #D5D9F7",
"a$	c #CED2F8",
"b$	c #CED2F7",
"c$	c #CFD2F7",
"d$	c #CCD0F7",
"e$	c #C7CCF6",
"f$	c #CBCFF7",
"g$	c #C8CCF7",
"h$	c #C6CAF7",
"i$	c #C5CAF7",
"j$	c #C6CBF7",
"k$	c #C9CDF7",
"l$	c #CDD1F7",
"m$	c #D8DCF7",
"n$	c #D9DCF8",
"o$	c #CBCEF7",
"p$	c #C7CCF7",
"q$	c #D2D6F8",
"r$	c #D0D4F8",
"s$	c #CACEF7",
"t$	c #C7CBF7",
"u$	c #CCCFF7",
"v$	c #CACDF7",
"                                                                                                                                ",
"                                                                                                                                ",
"                                                                                          .                                     ",
"+ + + + + + + + + + + + + + + + + + + + + + + + + + + + + + + + + + + + + + + + + + + + . + . + + + + + + + + + + + + . + + + + ",
"@ @ @ . @ @ @ @ @ @ @ @ @ @ @ @ @ @ @ @ @ . @ @ @ . @ @ @ @ @ @ @ @ @ @ @ @ @ @ @ @ @ @ @ . @ @ @ @ @ @ @ @ @ @ @ @ @ @ @ @ @ @ ",
"# # . # . # # # # # # # # # # # # # # # # # . # . # # # # # # # # # # # # # # # # # # # # # # # # # # # # # # # # # # . # # # # ",
"$ $ $ . $ $ $ $ $ $ $ $ $ $ $ $ $ $ $ $ $ $ $ $ $ $ $ $ $ $ $ $ $ $ $ $ $ $ $ $ $ $ $ $ $ $ $ $ $ $ $ $ $ $ $ $ . $ . . . $ . $ ",
"% % % % % % % % % % % % % % % % % % % % % % . % . % % % % % % % % % % % % % % . % % % % % % % % % % % % % % % % % % % . % % % % ",
"& & & & & & & & & & & & & & & & & & & & & . & & & . & & & & & & & & & & & & . . . & & & & & & & & & & & & & & & & & & & & & & & ",
"* * * * * * * * * * * * * * . * * * * * * * * * * * * * * * * * * * * * * * * . * * * * * * * * * * * * * * * * * * * . * * * * ",
"= = = = = = = = = = = = = = = = = = = = = = = = = = = = = = = = = = = = = = = = = = = = = = = = = = = = = = = = = = = = = = = = ",
"- - - - - - - - - - - - - - . - - - - - - - - - - - - - - - . - . - - - - - - - - - - - - - - - - - - - - - - - - - - - - - - - ",
"; ; ; ; ; ; ; ; ; ; ; . ; . . . ; . ; ; ; ; ; ; ; ; ; ; ; ; ; ; ; ; ; ; ; ; ; ; ; ; ; ; ; ; ; ; ; ; ; ; ; ; ; ; ; ; ; ; ; ; ; ; ",
"> > > > > > > > > > > > > > . > > > > > > > > > > > > > > > . > . > > > > > > > > > > > > > > > > > > > > > > > > > > > > > > > ",
", , , , , , , , , , , , , , , , , , , , , , , , , , , , , , , , , , , , , , , , , , , , , , , . , . , , , , , . , , , . , , , , ",
"' ' ' ' ' ' ' ' ' ' ' ' ' ' . ' ' ' ' ' ' ' ' ' ' ' ' ' ' ' ' ' ' ' ' ' ' ' ' ' ' ' ' ' ' ' ' ' ' ' ' ' ' ' ' ' . ' . ' ' ' ' ' ",
") ) ) ) ) ) ) ) ) ) ) ) ) ) ) ) ) ) ) ) ) ) ) ) ) ) ) ) ) ) ) ) ) ) ) ) ) ) ) ) ) ) ) ) ) ) ) . ) . ) ) ) ) ) ) ) ) ) ) ) ) ) ) ",
"! ~ ! ! ! ! ! ! ! ! ! ! ! ! ! ! ! ! ! ! ! ! ! ! ! ! ! ! ! ! ! ! ! ! ! ! ! ! ! ! ! ! ! ! ! ! ! ! ! ! ! ! ! ! ! ! . ! . ! ! ! ! ! ",
"~ { ~ ] ] ] ] ] ] ] ] ] ] ] ] ] ] ] ] ] ] ] ] ] ] ] ] ] ] ] ] ] ] ] ] ] ] ] ] ] ] ] ] ] ] ] ] ] ] ] ] ] ] ] ] . ] ] ] . ] ] ] ] ",
"^ ~ ^ ^ ^ ^ ^ ^ ^ ^ ^ ^ ^ ^ ^ ^ ^ ^ ^ ^ ^ ^ ^ ^ ^ ^ ^ ^ ^ ^ ^ ^ ^ ^ ^ ^ ^ ^ . ^ ^ ^ . ^ ^ ^ ^ ^ ^ ^ ^ ^ ^ ^ ^ ^ ^ ^ ^ ^ ^ ^ ^ ^ ",
"~ / ~ ( ( ( ( ( ( ( ( ( ( ( ( ( ( ( ( ( ( ( ( ( ( ( ( ( ( ( ( ( ( ( ( ( ( ( ( . ( . ( ( ( ( ( ( ( ( ( ( ( ( ( ( ( ( ( ( ( ( ( ( ",
"_ _ / ~ . : . : : : : : : : : : : : : : : : . : : : : : : : : : : : : : : : : : : : : : : : : : : : : : : : : : : : : : : : : ~ ",
"_ _ / ~ < < < < < < < < < < < < < < < < < . < . < < < < < < < < < < < < < < < . < . < < < < < < < < < < . < < < < < < < < < < ~ ",
"_ _ _ / ~ [ . [ [ [ [ [ [ [ [ [ [ [ [ [ [ [ . [ [ [ [ [ [ [ [ [ [ [ [ [ [ [ . [ [ [ . [ [ [ [ [ [ [ [ . [ . [ [ [ [ [ [ [ [ ~ _ ",
"_ } _ _ / ~ | | | | | | | | | | | | | | | | | | | | ~ ~ ~ ~ ~ ~ ~ | | | | | | | | | | | | | | | | | | | . | | | | | | | | ~ _ } ",
"} } } } } 1 ~ 2 2 2 2 2 2 2 2 2 2 2 2 2 2 2 2 2 ~ ~ ~ 3 3 3 3 3 ~ ~ ~ 2 2 2 2 2 2 2 2 2 2 2 2 2 2 2 2 2 2 2 2 2 2 2 2 2 ~ } } } ",
"1 1 1 1 ~ ~ 4 4 4 4 4 4 4 4 4 4 4 4 4 4 4 4 ~ ~ ~ 3 3 3 3 3 3 3 3 3 ~ ~ ~ 4 4 4 4 4 4 4 4 4 4 4 4 4 4 4 4 4 4 4 4 4 4 4 4 ~ ~ 1 ",
"} } } } 1 1 ~ 5 5 5 5 5 5 5 5 5 5 5 5 5 5 ~ 3 3 3 3 3 3 3 3 3 3 3 3 3 3 3 ~ ~ 5 5 5 5 5 5 5 5 5 5 5 5 5 5 5 5 5 5 5 5 5 ~ 1 } 6 ",
"6 } } 6 } 1 1 ~ 5 5 5 5 5 5 5 5 5 5 5 5 ~ ~ 3 3 3 3 3 3 3 3 3 3 3 3 3 3 3 3 ~ 5 5 5 5 5 5 5 5 5 5 5 5 5 5 5 5 5 5 5 5 ~ 1 } 6 7 ",
"} } 6 7 6 } 1 1 ~ 5 5 5 5 5 5 5 5 5 5 5 ~ 3 3 3 3 3 3 3 3 3 3 3 3 3 3 3 3 3 ~ ~ 5 5 5 5 5 5 5 5 5 5 5 5 5 5 5 5 5 5 ~ { } } } 6 ",
"} } } 6 } } 1 { ~ 5 5 5 5 5 5 5 5 5 5 ~ ~ 3 3 3 3 3 3 3 3 3 3 3 3 3 3 3 3 3 3 ~ 5 5 5 5 5 5 5 5 5 5 5 5 5 5 5 5 5 5 ~ 1 { { } } ",
"{ } } } } { { 1 1 ~ 5 5 5 5 5 5 5 5 5 ~ 3 3 3 3 ~ 3 3 3 3 3 3 3 3 3 3 3 3 3 3 ~ 5 5 5 5 5 5 5 5 5 5 5 5 5 5 5 5 5 ~ 1 } } } { { ",
"} { { { { } } } 1 1 ~ 5 5 5 5 5 5 ~ ~ ~ 3 3 ~ ~ ~ 3 3 3 3 3 3 3 3 3 3 3 3 3 3 ~ 5 5 5 5 5 5 5 5 5 5 5 5 5 5 5 5 ~ 1 } } } } } } ",
"} } } } } } 1 1 ~ ~ 5 5 5 5 5 5 5 ~ _ ~ ~ ~ 5 5 ~ 3 3 3 3 3 3 3 3 3 3 3 3 3 3 ~ 5 5 5 5 5 5 5 5 5 5 5 5 5 5 5 5 5 ~ ~ 1 1 } } } ",
"1 1 1 1 6 1 1 ~ 5 5 5 5 5 5 5 5 5 ~ _ _ ~ 5 5 ~ ~ ~ ~ ~ ~ ~ ~ ~ ~ ~ ~ ~ ~ ~ ~ ~ ~ 5 5 5 5 5 5 5 5 5 5 5 5 5 5 5 5 5 5 ~ 1 1 1 1 ",
"1 1 1 6 7 6 1 1 ~ ~ 5 5 5 5 5 5 5 ~ ~ ~ ~ 5 ~ _ _ _ _ _ _ _ _ _ _ _ _ _ _ _ _ _ _ ~ 5 5 5 5 5 5 5 5 5 5 5 5 5 5 5 ~ ~ 1 1 1 6 1 ",
"} } } } 6 } } } 1 1 ~ ~ 5 5 5 5 5 5 5 5 5 5 ~ _ _ _ _ _ _ _ _ _ _ _ _ _ _ _ _ _ _ ~ 5 5 5 5 5 5 5 5 5 5 5 5 5 ~ ~ { 1 } } 6 7 6 ",
"} } } } } } } } { { 1 1 ~ 5 5 5 5 5 5 5 5 5 5 ~ ~ ~ ~ ~ ~ ~ ~ ~ ~ ~ ~ ~ ~ ~ ~ ~ ~ 5 5 5 5 5 5 5 5 5 5 5 5 5 ~ 1 1 } { { } } 6 } ",
"} } } } { { { { } } } 1 1 ~ 8 8 9 0 a a b c d d e e e e f g h i j j j j j j k k l m m n n o o p p q r s t ~ 1 } } } } } { { } } ",
"{ { { { } } } } } 1 1 ~ ~ u v w w w w x y z e e e e A f B h k k k k k k k k k k k k C D D D E E E E F G H I ~ ~ 1 } } } } } { { ",
"1 1 1 1 1 1 1 1 1 1 ~ J K L M N N N N N O P e e e e f g h i k k k k k k k k k k k k Q R R R S S S T U V W X Y Z ~ 1 1 1 1 1 1 1 ",
"` `  .~ ~ ~ ~ ~ ~ ~ ..+.@.#.$.%.%.&.&.*.=.-.e e A f B h k k ;.~ >.>.,.k ;.~ >.>.,.k '.).!.!.!.~.~.!.{.%.].^./.(._.~ ~ ~ ~ ~ ~ ~ ",
"` `  .~ :.<.[.}.|.1.2.3.4.5.*.6.7.8.9.0.a.b.e e A f h i k k ~ ~ >.>.,.k ~ ~ >.>.,.k c.d.d.d.e.e.c.f.g.h.i.j.k.l.m.n.o.p.q.r.s.~ ",
"` `  .~ t.u.v.w.x.y.z.A.B.C.D.E.F.G.H.I.J.K.e e A f ,.k k k ~ ~ ~ ~ j L.M.M.M.M.j L.N.N.O.P.N.N.Q.c.R.S.5.U T.U.V.W.X.Y.Z.`. +~ ",
"~ ~ ~ ~ .+++@+#+$+%+&+*+B.=+-+;+>+J.,+'+)+!+e e A f ,.k k k ;.~ ~ ;.~+{+]+]+]+]+~+{+O.O.O.P.N.N.Q.c.b.S.i.^+/+(+_+:+<+[+}+|+1+~ ",
"2+3+3+4+5+6+7+8+9+0+a+b+c+=.d+I.e+f+)+g+!+Q.e e A f ,.k k k k k j ,.h+i+j+j+j+j+k+k+l+m+N.Q.Q.Q.Q.c.n+o+p+q+r+s+t+u+v+w+x+y+z+A+",
"B+C+A+D+E+F+G+H+I+J+&+K+L+M+>+e+f+N+)+)+O+P+e e A f ,.k k k k k j ,.Q+R+S+S+S+S+T+T+U+V+P+!+!+!+W+K.g.X+Y+Z+`+ @.@+@@@#@$@%@y+&@",
"*@=@-@;@>@,@'@)@!@~@{@]@C.^@/@~.e+(@_@f+N+)+e e A f h :@k k k k k k k k k k k k ,.,.)+)+)+c.K.K.f.b.<@*.Y+V [@}@|@1@2@@@3@4@5@6@",
"7@8@9@0@a@b@c@d@e@f@K g@h@i@R./@j@k@f.f.f.e+e e A f B h k k k k k k L.L.L.L.L.L.j j (@l@l@l@f.k@/@d+m@&.n@o@Z+p@}@q@r@s@t@u@r.v@",
"w@x@y@z@!@A@B@C@D@E@F@G@H@I@'.b.J@K@L@L@k@k@e e M@M@M@N@,.k k k k k k k k k k k k k O@L@L@L@L@K@b.P@-+Q@%.p+].R@S@T@U@V@W@X@Y@Z@",
"`@ #.#+#@###$#%#&#]@*#=#-#;#'.b.!./@>#J@>#I.e e M@M@,#M@,.k k k k k k k k k k k k k '#)#)#>+I.K@/@!#~#-+{#=+]#^#U /#(#_#:#<#[#}#",
"b+|#1#E@|#2#3#4#5#6#7#8#i@9#).b.b.!.!.!.)#>+e e M@M@0#a#,.k k k k k k k k k k k k k b#c#c#)#I.k@~.K@!#g.d#M+e#%.O N f#g#h#i#j#k#",
"l#m#n#n#n#n#@.6#4.o#8#p#q#r#s#t#!.b.b.n+c#H.e e M@M@0#a#,.k k k k k k k k k k k k k u#v#c#H.I.f.w#l@J@n+x#<@S.=+%.$.y#z#O O N ^#",
"i.A#c+c+c+c+L+o#C.8#B#i@C#D#E#E#K@/@n+!#v#G.e e M@M@0#a#,.k k k k k k k k k k k k k F#G#v#c#I.l@H#K.~./@I#~#m@Q@&.J#K#K#K#$.L#y#",
"]#]#]#$.$.%.%.M#=+=.N#O#R.P#Q#Q#j@J@n+R#S#S#e e M@M@0#a#,.k k k k k k k k k k k k k T#G#G#v#>+f.U#)+e+L@R#~#m@e#V#J#W#W#W#K#K#$.",
"J#X#&.&.&.&.V#Y#{#S.;#9#).K@e+e+f.I.H.;+Z#Z#e e M@M@0#M@,.k k k k k k k k k k k k k `# $ $G#c#L@.$)+e+~.!.P@+$@$#$$$$$$$$$$$$$J#",
"J#&.&.&.&.V#*.Q@o+S.;#C#s#E#e+K.e+L@)#G# $%$e e M@M@M@N@,.k k k k k k k k k k k k k &$*$*$=$G#)#-$.$l@L@)#P@+$6.;$$$>$>$>$>$$$$$",
",$#$#$#$#$'$)$@$!$-+~#~$!.~.e+K.e+L@{$G#*$*$e e A f B h k k k k k k k k k k k k k k ]$^$^$^$=$G#u#/$($>#c#_$:$<$[$}$}$}$}$}$>$$$",
"$$;$;$;$;$'$)$D.!$-+~#~$!.~.e+K.e+L@{$|$*$^$e e A f h i k k k k k k k k k k k k k k ]$]$]$]$]$*$|$1$c#{$2$=$3$<$4$}$}$}$}$}$}$}$",
"5$5$6$6$[$7$<$8$:$9$P@R#0$~.w#K.e+L@2$|$^$^$e e A f ,.k k k k k k k k k k k k k k k ]$]$]$]$a$b$c$^$=$|$|$^$d$7$5$}$}$}$}$}$}$}$",
"}$}$5$5$4$e$<$8$:$9$P@R#>#~.w#K.l@($2$=$^$^$e e A f ,.k k k k k k k k k k k k k k k ]$]$]$]$a$b$b$b$b$^$^$b$f$g$h$i$i$i$i$i$}$}$",
"i$i$i$i$j$g$k$f$l$^$|$2$>#m$w#w#n$'#F#=$^$^$e e A f ,.k k k k k k k k k k k k k k k ]$]$]$]$a$b$l$l$l$b$b$l$o$g$h$i$i$i$i$i$i$i$",
"i$i$i$i$j$p$k$f$l$^$|$c#($l@w#.$-$b#q$r$]$]$e e A f ,.k k k k k k k k k k k k k k k ]$]$]$]$a$b$l$l$d$l$l$d$s$t$h$i$i$i$i$i$i$i$",
"i$i$i$i$j$p$k$f$l$^$|$c#($l@w#.$-$b#T#&$]$]$]$]$]$]$]$]$]$]$]$]$]$]$]$]$]$]$]$]$]$]$]$]$]$]$a$b$l$d$d$d$3$u$v$t$i$i$i$i$i$i$i$i$"};
