/* XPM */
static char *_3b61188a4ee4777d312e82857f081f82odkZOcNXJj4obNI[] = {
/* columns rows colors chars-per-pixel */
"64 64 113 2 ",
"   c black",
".  c #4A2A24",
"X  c #663931",
"o  c #6D433B",
"O  c #286B50",
"+  c #AC3232",
"@  c #AD581E",
"#  c #8F563B",
"$  c #DF7126",
"%  c #D95763",
"&  c #6ABE30",
"*  c #37946E",
"=  c #FEF525",
"-  c #FBF236",
";  c #FCF67C",
":  c #3F4C9C",
">  c #4B479B",
",  c #404D9F",
"<  c #4E4A9D",
"1  c #514D9F",
"2  c #414FA1",
"3  c #524DA1",
"4  c #4351A5",
"5  c #4554AC",
"6  c #5552A3",
"7  c #5956A6",
"8  c #5D5AAA",
"9  c #4756B1",
"0  c #4857B3",
"q  c #4958B5",
"w  c #4B5BBB",
"e  c #615EAB",
"r  c #6361AE",
"t  c #6664B2",
"y  c #6866B0",
"u  c #6D6BB5",
"i  c #706FB7",
"p  c #706FB8",
"a  c #7270B7",
"s  c #7473BB",
"d  c #7877BF",
"f  c #7B7BBF",
"g  c #4E5EC2",
"h  c #4F60C5",
"j  c #5061C6",
"k  c #5263CB",
"l  c #5566D2",
"z  c #5668D6",
"x  c #5769D8",
"c  c #586ADA",
"v  c #7E7EC3",
"b  c #6978DB",
"n  c #807FC1",
"m  c #9BADB7",
"M  c #8383C5",
"N  c #8585C9",
"B  c #8788CA",
"V  c #8C8DCC",
"C  c #8F90CE",
"Z  c #9192CE",
"A  c #8A91D3",
"S  c #9395D2",
"D  c #9798D5",
"F  c #999BD5",
"G  c #9B9DD9",
"H  c #9FA1DA",
"J  c #A3A5DD",
"K  c #A7A9DE",
"L  c #8691E3",
"P  c #8D97E0",
"I  c #8E98E3",
"U  c #A5A9E1",
"Y  c #ABAEE2",
"T  c #A7AEEC",
"R  c #A8AEEC",
"E  c #ADB2E6",
"W  c #AEB3EB",
"Q  c #B2B5E6",
"!  c #B5B8E7",
"~  c #B2B7EB",
"^  c #B6BAEB",
"/  c #BABDEC",
"(  c #B9BDF0",
")  c #BDC1EE",
"_  c #BDC1F1",
"`  c #C0C4EF",
"'  c #C2C6F1",
"]  c #C5C8F2",
"[  c #C6C9F3",
"{  c #C6CAF5",
"}  c #C8CCF3",
"|  c #C8CBF4",
" . c #CACDF5",
".. c #CCCEF4",
"X. c #CDD0F4",
"o. c #CED1F5",
"O. c #CED2F6",
"+. c #CFD3F8",
"@. c #D2D4F5",
"#. c #D2D5F6",
"$. c #D4D6F7",
"%. c #D6D9F6",
"&. c #D8DBF7",
"*. c #DADCF7",
"=. c #DDDFF7",
"-. c #D2D5F8",
";. c #D6D9F8",
":. c #DDDFF8",
">. c #DEE0F7",
",. c #DFE1F8",
"<. c #E0E1F8",
"1. c #E2E5F9",
"2. c white",
/* pixels */
": : : : : : , , 2 2 2 4 4 4 4 4 5 5 5 5 5 5 5 5 9 9 0 0 q q q q q q q w w w w g g g g g h h j j j j j k k k k l l l l l z z z z ",
": : : : : : , 2 2 2 2 4 4 4 4 4 5 5 5 5 5 5 5 5 9 9 0 0 q q q q q w q w w w w g g g g g h j j j j j j j k k k l l l l l z z z z ",
": : : : : , , 2 2 2 2 4 4 4 4 5 5 5 5 5 5 5 9 9 9 0 0 q q q q q q q w w w w g g g g g g h j j j j j j k k k l l l l l z z z z x ",
": : : : : , , 2 2 2 2 4 4 4 4 5 5 5 5 5 5 5 9 9 9 0 0 q q q q q w w w w w w g g g g g h h j j j j j = = = = l l l l l z z z z x ",
": : : ; : , , 2 2 2 4 4 4 4 4 5 5 5 5 5 5 ; 5 9 9 ; 0 q q q q q q q w w w w w g g g g h h j j j = = = = = = = = l l l z z z z x ",
": : ; : ; , 2 2 2 2 4 4 4 4 4 5 5 5 5 5 5 5 ; 9 ; 0 q q q q q q q q w w w w w g g g g h j j = = = = = = = = = = = = l z z z z x ",
": : : ; , , 2 2 2 2 4 4 4 4 5 5 5 5 5 5 5 5 9 9 0 0 q q q q q q q w w w w w g g g g g h j = = = j j k k = = = = = = = z z z x x ",
": : : : , , 2 2 2 2 4 4 4 4 5 5 5 5 5 5 5 5 ; 9 ; 0 q q q q q q q q w w w w g g g g h h = = j j j j k k k k = = = = = z z z x x ",
": : : : , , 2 2 2 4 4 4 4 4 5 5 5 5 5 5 5 ; 9 9 0 ; q q q q q q q w w w w g g g g g h h = = j j j j k k k k l = = = = = z z x c ",
": : : : , 2 2 2 2 4 4 4 4 4 ; 5 5 5 5 5 5 9 9 0 0 q q q q q q q q w w w w g g g g g h = = j j j j j k k k k l l = = = = z z x c ",
": : : , , 2 2 2 2 4 4 4 4 5 5 5 5 5 5 5 5 9 9 0 0 q q q q q q q w w w w g g g g g g h = j j j j k k k k k l l l = = = = = x x c ",
": : : , , 2 2 2 2 4 4 4 4 4 ; 5 5 5 5 5 5 9 9 0 0 q q q q q q q q w w w g g g g g h h j j j j j k k k k k l l l l = = = = x x c ",
": : : , , 2 2 2 4 4 4 ; 4 ; ; ; 5 ; 5 5 5 9 9 0 0 q q q q q ; w ; w w w w g g g g h h j j j j j k k k k k l l l l = = = = x c c ",
": : : , 2 2 2 2 4 4 4 4 4 5 ; 5 5 5 5 5 9 9 0 0 q q q q q q q w w w w w w g g g g h j j j j j j k k k k k l l l l = = = = x c c ",
": : , , 2 2 2 2 4 4 4 4 5 5 5 5 5 5 5 5 9 9 0 0 q q q q q q ; w ; w w w g g g g g h j j j j j k k k k l l l l l z = = = x x c c ",
": : , , 2 2 2 2 4 4 4 4 5 5 ; 5 5 5 5 5 9 9 0 0 q q q q               w g g g g h h j j j j j k k k k l l l l l = = = = x x c c ",
": : , , 2 2 2 4 4 4 4 4 5 5 5 5 5 5 5 9 9 9 0 0 q q q q               w g g g g h h j j j j j k k k k k l l l l = = = z x c c c ",
":   , 2 2 2 2 4 4 4 4 4 5 5 5 5 5 5 9 9 9 0 0 q q q q q               g g g g g h j j j j j j k k k k k l l l = = = = z x c c c ",
"  -   2 2 2 2 4 4 4 4 5 5 5 5 5 5 5 9 9 9 0 0 q q q q q               g g g g g h j j j j j k k k k k l l l = = = = z x x c c c ",
":   , 2 2 2 2 4 4 4 4 5 5 5 5 5 5 5 9 9 9 0 0 q q q q q               g g g ; h h j ; j j j k k k k k l = = = = z z z x x c c c ",
"  1.  2 2 2 4 4 4 4 4 5 5 5 5 5 5 5 9 9 9 0 0 q q q q q               g g g g ; h ; j j j j k k k k = = = = l z z z z x c c c c ",
"2.2.1.  ; 2 ; 4 4 4 4 5 5 5 5 5 5 5 9 9 0 0 ; q q q q q               g g g g h j j j j j j k k k k l l l l l z z z z x c c c   ",
"2.2.1.  2 2 4 4 4 4 5 5 5 5 5 5 5 5 9 9 0 ; q ; q q m m m m m m m m m m m g g ; j ; j j j k k k k l l l l l z z z z x x c c c   ",
"2.2.2.1.  4 ; 4 4 4 5 5 5 5 5 5 5 5 9 9 0 0 ; q                               h j j ; j j k k k k l l l l l z z z z x x c c   2.",
"2.* 2.2.1.  4 4 4 4 4 5 5 5 5 5 5 5 9 9 0 0 q q q   2.2.2.2.2.2.2.2.2.2.2.  h h j j j j j k k k k k l l l l z z z z x c c   2.* ",
"* * * * * O   4 4 5 5 5 5 5 5 5 5 9 9 0 0 q q q   2.2.    2.2.2.2.    2.2.2.  j j j j j k k k k k l l l l l z z z z x c   * * * ",
"O O O O     4 4 4 4 5 5 5 5 5 5 5 9 9 0 0 q q q   2.2.      2.2.2.      2.2.  j j j j j k k k k k l l l l z z z z x x c c     O ",
"* * * * O O   4 4 5 5 5 5 5 5 5 5 9 9 0 0 q q   2.2.2.      2.2.2.      2.2.2.  j j j j k k k k k l l l l z z z z x x c   O * + ",
"+ * * + * O O   4 5 5 5 5 5 5 5 5 9 9 0 0 q q   2.2.2.2.2.2.2.2.2.2.2.2.2.2.2.  j j j j j k k k k l l l l z z z z x c   O * + % ",
"* * + % + * O O   5 5 5 5 5 5 5 9 9 0 0 q q q   2.2.2.$ $ $ $ $ $ @ 2.2.2.2.2.  j j j k k k k k l l l l z z z z z x   - * * * + ",
"* * * + * * O -   5 5 5 5 5 5 5 9 9 0 0 q q q   2.2.2.2.2.$ $ $ $ @ 2.2.2.2.2.  j j j k k k k k l l l l z z z z x x   O - - * * ",
"- * * * * - - O O   5 5 5 5 5 5 9 9 0 0 q q q   2.2.2.2.2.2.2.@ @ @ 2.2.2.2.2.  j j j k k k k k l l l l z z z z x   O * * * - - ",
"* - - - - * * * O O   5 5 5 5 5 9 9 0 0 q q q q   2.  2.2.2.2.2.2.2.2.2.  2.  j j j j k k k k l l l l l z z z z   O * * * * * * ",
"* * * * * * O O     5 5 5 5 5 9 9 0 0 q q q q q   2.2.  2.2.2.2.2.2.2.  2.2.  j j j k k k k l l l l l z z z z x x     O O * * * ",
"O O O O + O O   5 5 5 5 5 5 5 9 9 0 0 q q q q q q   2.2.              2.2.  j j j j j k k k l l l l l z z z z x x c c   O O O O ",
"O O O + % + O O     5 5 5 5 5 9 9 0 0 q q q q q q     2.2.2.2.2.2.2.2.2.    j j j j j k k k k l l l l z z z z x x     O O O + O ",
"* * * * + * * * O O     5 5 9 9 9 0 0 q q q q q   & &     2.2.2.2.2.    + &   j j j j k k k k l l l l z z z z     - O * * + % + ",
"* * * * * * * * - - O O   9 9 9 0 0 q q q q     + & & & +           + + + & &     j k k k k l l l l z z b b   O O * - - * * + * ",
"* * * * - - - - * * * O O   A A A A A A A   + + + & & & + + + & & & + + + & & & +   P I I I I I I X I I L   O * * * * * - - * * ",
"- - - - * * * * * O O     U E E X E E E   2.2.2.2.2.2.2.2.2.2.2.2.2.2.2.+ + + 2.2.2.  ~ ~ ~ ~ ~ X ~ ~ W R T     O * * * * * - - ",
"O O O O O O O O O O   E ^ / ' X ' ' ' '   2.2.2.2.2.2.2.2.2.2.2.2.2.2.2.+ + + 2.2.2.  ..........X [ ' X ( ( / W   O O O O O O O ",
"o o .               ! / ` ' [ X [ | |   2.2.2.2.2.2.2.2.2.2.      2.2.2.& & & 2.2.2.2.  %.%.%.&.X X X [ ' _ _ ^ W               ",
"o o .   s f N Z H Y ! / X X X X ..o.  2.2.2.2.2.2.2.2.2.2.  X X X   2.2.& & & 2.2.2.2.2.  :.=.X X X #...[ ' ) ^ E U G S B v d   ",
"o o .   e y a n Z J Q / ' [ X X X $.  2.2.2.2.2.2.2.2.2.2.  # # #   2.2.& & & 2.2.2.2.2.  ,.X X ,.=.X X [ ' / ~ Y H A M s y r   ",
"        6 7 e u M D Y / ' X o.X X X X 2.2.2.2.2.2.2.2.2.2.2.      2.2.2.+ + + 2.2.2.2.2.X X X <.,.=.$.o.[ _ / ~ U D M s r 8 6   ",
"> > > > < 1 7 y f S Y / X ..#.%.X X X X 2.2.2.2.2.2.2.2.2.2.2.2.2.2.2.2.2.+ + 2.2.2.2.X X X ,.,.,.=.$...[ _ ^ W J S v u 8 6 3 < ",
"< < < < 1 6 8 u M D Y / [ ..%.*.&.  2.X X 2.2.2.2.2.2.2.2.2.2.2.2.2.2.2.2.2.+ 2.2.2.X X 2.  ,.,.>.*.#. .' _ ^ W U D N s t 8 6 3 ",
"8 7 7 7 8 r u v V J Q ) [ o.%.&.*.  2.2.X X 2.2.2.2.2.2.2.2.      2.2.2.2.2.& 2.2.X X 2.2.  *.*.&.$.o. .' _ / ~ Y J S N d u t e ",
"s p u i s f N Z H Y ^ ` } o.$.%.&.  2.2.2.2.2.2.2.2.2.2.2.  X X X   2.2.2.2.2.2.2.2.2.2.2.  &.&.%.#.o.| [ _ _ / ~ E J G A N v d ",
"C V V V V S G J E ^ ) ` ..o.#.$.%.  2.2.2.2.2.2.2.2.2.2.2.  # # #   2.2.2.2.2.2.2.2.2.2.2.  %.%.$.#.o. .[ [ ' _ / ^ ~ Y U H F S ",
"U K J J K Y E Q ^ ) ` [ ..o.#.$.%.  2.2.2.2.2.2.2.2.2.2.2.2.      2.2.2.2.2.2.2.2.2.2.2.2.  %.%.%.$.#.o. ...[ ' ' _ ) / ^ ~ Q Y ",
"/ ^ ^ ^ ^ ^ / ) ) ` [ ..o.#.$.$.$.  2.2.2.2.2.2.2.2.2.2.2.2.2.2.2.2.2.2.2.2.2.2.2.2.2.2.2.  %.&.&.%.$.#.o... .[ [ ' ' ' ' ) ) / ",
"' ` ` ` ` ` ` ' ` [ ....#.#.%.%.%.$.  2.2.2.2.2.2.2.2.2.2.2.2.2.2.2.2.2.2.2.2.2.2.2.2.2.  $.%.&.*.*.%.$.#.o.o...[ [ [ ' ' ' ' ' ",
"[ [ [ [ [ [ [ [ [ ....o.#.$.%.%.%.%.  2.2.2.2.2.2.2.2.2.2.2.      2.2.2.2.2.2.2.2.2.2.2.  $.%.*.*.*.&.%.#.#.o. .| | | | | | | | ",
"[ [ [ [ [ [ [ } ....o.#.$.%.&.&.&.%.  2.2.2.2.2.2.2.2.2.2.  X X X   2.2.2.2.2.2.2.2.2.2.  #.%.&.&.:.*.%.#.#.o. .{ | | | | | | | ",
"| | | | | |  . ...o.o.#.$.%.*.*.&.%.$.  2.2.2.2.2.2.2.2.2.  # # #   2.2.2.2.2.2.2.2.2.  #.#.$.%.&.:.*.&.%.#.o. .| | | | | | | | ",
"| | | | |  . . ...o.o.#.%.%.*.*.*.%.%.#.  2.2.2.2.2.2.2.2.2.      2.2.2.2.2.2.2.2.2.  #.#.#.#.%.&.&.*.%.;.#.o. .| | | | | | | | ",
"| | | | |  . . ...o.#.#.%.&.*.*.*.%.%.#.  2.2.2.2.2.2.2.2.2.2.2.2.2.2.2.2.2.2.2.2.2.  o.o.o.#.#.$.;.%.%.$.#.o. .| | | | | | | | ",
"| | | | |  . . ...o.#.#.%.&.*.*.*.%.%.#.#.  2.2.2.2.2.2.2.2.2.2.2.2.2.2.2.2.2.2.2.  +.+.+.+.+.#.#.#.$.%.-.-.+. .| | | | | | | | ",
"| | | | |  . . .o.o.#.#.%.&.*.*.*.%.#.#.o.o.    2.2.2.2.2.2.2.2.2.2.2.2.2.2.2.    +.+.+.+.+.+.o.o.o.#.#.-.+.+. .| | | | | | | | ",
"| | | | | {  . .o.o.#.#.;.&.*.*.*.%.#.#.o.o.o.o.  2.2.2.2.2.2.2.2.2.2.2.2.2.  +.+.+.+.+.+.+.+.o.o.o.+.+.+.+. . .{ { { { { { | | ",
"| | { { { {  . .o.o.#.#.;.&.*.*.&.;.-.#.o.o.o.o.o.      2.2.2.2.2.2.2.      +.+.+.+.+.+.+.+.+.o.o.o.+.+.+.+. . .{ { { { { { { { ",
"| { { { { {  . .o.o.#.$.;.*.*.&.&.;.-.-.+.+.+.+.+.+.+.+.              +.+.+.+.+.+.+.+.+.+.+.+.o.o.o.o.+.o.o. .| { { { { { { { { ",
"| | { { { {  . .o.o.#.$.%.*.*.&.&.;.-.-.+.+.+.+.+.+.+.+.+.+.+.+.+.+.+.+.+.+.+.+.+.+.+.+.+.+.+.o.o.o.+.+.o. . .| { { { { { { { { "
};
