/* XPM */
static char * snowman_xpm[] = {
"64 64 464 2",
"  	c #3B4794",
". 	c #FCF67C",
"+ 	c #3C4896",
"@ 	c #3D4999",
"# 	c #3E4B9C",
"$ 	c #3F4C9F",
"% 	c #404EA2",
"& 	c #414FA4",
"* 	c #4351A7",
"= 	c #4452AA",
"- 	c #4553AD",
"; 	c #4655B0",
"> 	c #4756B2",
", 	c #4858B5",
"' 	c #4A59B8",
") 	c #4B5BBB",
"! 	c #000000",
"~ 	c #4C5CBE",
"{ 	c #FBF236",
"] 	c #4D5EC0",
"^ 	c #4E5FC3",
"/ 	c #E2E5F9",
"( 	c #4F60C6",
"_ 	c #FFFFFF",
": 	c #5162C9",
"< 	c #5263CC",
"[ 	c #5365CE",
"} 	c #9BADB7",
"| 	c #37946E",
"1 	c #5466D1",
"2 	c #286B50",
"3 	c #5568D4",
"4 	c #5669D7",
"5 	c #586BDA",
"6 	c #AC3232",
"7 	c #D95763",
"8 	c #DF7126",
"9 	c #AD581E",
"0 	c #6ABE30",
"a 	c #8891D3",
"b 	c #8991D4",
"c 	c #8992D4",
"d 	c #8992D5",
"e 	c #8992D6",
"f 	c #8993D6",
"g 	c #8D97E0",
"h 	c #8E98E1",
"i 	c #8E98E2",
"j 	c #8E98E3",
"k 	c #8E98E4",
"l 	c #8F99E4",
"m 	c #8F99E5",
"n 	c #8691E3",
"o 	c #A4ABE1",
"p 	c #ACB2E5",
"q 	c #ACB2E6",
"r 	c #ACB2E7",
"s 	c #ADB3E7",
"t 	c #B1B7EB",
"u 	c #B1B7EC",
"v 	c #B1B7ED",
"w 	c #663931",
"x 	c #B0B6EE",
"y 	c #AFB5EE",
"z 	c #A8AEEC",
"A 	c #A7AEEC",
"B 	c #AFB4E5",
"C 	c #B7BBEA",
"D 	c #B9BDEB",
"E 	c #C3C7F1",
"F 	c #C3C7F2",
"G 	c #C8CCF2",
"H 	c #C8CCF3",
"I 	c #C5C9F2",
"J 	c #C0C4F1",
"K 	c #BDC1F1",
"L 	c #B9BEF0",
"M 	c #B8BCF0",
"N 	c #B7BCEF",
"O 	c #ADB3EC",
"P 	c #6D433B",
"Q 	c #4A2A24",
"R 	c #B4B7E7",
"S 	c #B9BDEA",
"T 	c #C1C4EF",
"U 	c #C3C6F1",
"V 	c #C6C9F3",
"W 	c #C7CAF3",
"X 	c #C8CBF4",
"Y 	c #C9CCF4",
"Z 	c #D4D7F5",
"` 	c #D5D8F6",
" .	c #D8DBF7",
"..	c #CBCFF4",
"+.	c #C1C5F2",
"@.	c #BFC2F1",
"#.	c #BCC0F0",
"$.	c #B4B9EC",
"%.	c #AFB4EA",
"&.	c #7675BA",
"*.	c #7C7CBF",
"=.	c #8686C6",
"-.	c #9293CF",
";.	c #9FA1D8",
">.	c #ABADE0",
",.	c #B5B8E7",
"'.	c #BCBFEC",
").	c #C4C7F0",
"!.	c #C6C9F2",
"~.	c #CCCEF5",
"{.	c #CED0F5",
"].	c #CFD1F5",
"^.	c #DDDFF8",
"/.	c #DDDFF7",
"(.	c #CCCEF4",
"_.	c #C5C8F2",
":.	c #C1C4F1",
"<.	c #BDC0EF",
"[.	c #B5B9EB",
"}.	c #AEB2E7",
"|.	c #A6AAE2",
"1.	c #9C9FDA",
"2.	c #9193D2",
"3.	c #8788CA",
"4.	c #7E7EC3",
"5.	c #7777BE",
"6.	c #625FAB",
"7.	c #6866B0",
"8.	c #7270B7",
"9.	c #807FC1",
"0.	c #9191CD",
"a.	c #A2A4DA",
"b.	c #B1B3E4",
"c.	c #BBBEEB",
"d.	c #D1D3F6",
"e.	c #D4D6F7",
"f.	c #E0E2F8",
"g.	c #E0E1F8",
"h.	c #D4D6F5",
"i.	c #CDD0F4",
"j.	c #BBBFEE",
"k.	c #B3B7EA",
"l.	c #AAADE3",
"m.	c #9EA0DB",
"n.	c #8F91D0",
"o.	c #8081C5",
"p.	c #7373BB",
"q.	c #6A68B3",
"r.	c #6360AE",
"s.	c #5450A1",
"t.	c #5855A4",
"u.	c #615EAA",
"v.	c #6F6DB5",
"w.	c #8382C3",
"x.	c #9899D3",
"y.	c #ACAEE1",
"z.	c #BABCEA",
"A.	c #C3C6F0",
"B.	c #C9CCF3",
"C.	c #D9DAF7",
"D.	c #8F563B",
"E.	c #DFE1F8",
"F.	c #DCDEF7",
"G.	c #BFC2F0",
"H.	c #B9BDEE",
"I.	c #B0B4E8",
"J.	c #A4A8E0",
"K.	c #9597D4",
"L.	c #8383C7",
"M.	c #7271BA",
"N.	c #6462AF",
"O.	c #5B58A8",
"P.	c #5551A3",
"Q.	c #4B479C",
"R.	c #4A469B",
"S.	c #4B479B",
"T.	c #4D499C",
"U.	c #514D9F",
"V.	c #5A56A5",
"W.	c #6865B0",
"X.	c #7C7BBF",
"Y.	c #9495D0",
"Z.	c #AAACE0",
"`.	c #B9BCEA",
" +	c #C4C7F1",
".+	c #D2D5F6",
"++	c #D4D7F6",
"@+	c #CCCFF4",
"#+	c #C4C7F2",
"$+	c #BDC1F0",
"%+	c #B7BBEE",
"&+	c #AEB2E8",
"*+	c #A2A5DF",
"=+	c #9193D3",
"-+	c #7E7FC4",
";+	c #6D6BB7",
">+	c #5F5DAC",
",+	c #5653A5",
"'+	c #514CA0",
")+	c #4D499D",
"!+	c #4F4B9F",
"~+	c #4E499D",
"{+	c #4E4A9D",
"]+	c #504C9F",
"^+	c #5551A2",
"/+	c #5E5BA9",
"(+	c #6C6AB4",
"_+	c #8080C3",
":+	c #9798D3",
"<+	c #BBBDEB",
"[+	c #CDCFF4",
"}+	c #D6D8F7",
"|+	c #DADCF7",
"1+	c #DEE0F8",
"2+	c #DEE0F7",
"3+	c #DBDDF7",
"4+	c #D2D4F5",
"5+	c #CBCDF4",
"6+	c #C3C6F2",
"7+	c #BCC0F1",
"8+	c #B6BBEE",
"9+	c #AFB3E9",
"0+	c #A4A8E1",
"a+	c #9698D6",
"b+	c #8485C9",
"c+	c #7473BC",
"d+	c #6664B2",
"e+	c #5D5AAA",
"f+	c #524EA1",
"g+	c #5C59A9",
"h+	c #5A57A7",
"i+	c #5956A6",
"j+	c #5A57A6",
"k+	c #5D5AA9",
"l+	c #6361AD",
"m+	c #6D6CB5",
"n+	c #7C7BC0",
"o+	c #8E8FCD",
"p+	c #A1A3DA",
"q+	c #B1B4E5",
"r+	c #BDC0ED",
"s+	c #C7CAF2",
"t+	c #CED1F4",
"u+	c #D6D8F6",
"v+	c #D9DBF7",
"w+	c #D5D7F6",
"x+	c #CFD2F5",
"y+	c #B8BCEF",
"z+	c #B3B7EB",
"A+	c #ABAFE6",
"B+	c #A0A3DE",
"C+	c #9394D4",
"D+	c #7877BF",
"E+	c #6D6CB7",
"F+	c #6664B1",
"G+	c #605DAC",
"H+	c #7372BA",
"I+	c #706FB8",
"J+	c #6F6EB7",
"K+	c #706FB7",
"L+	c #7473BA",
"M+	c #7A7ABF",
"N+	c #8484C6",
"O+	c #9192CF",
"P+	c #9EA0DA",
"Q+	c #ACAFE3",
"R+	c #C0C4EE",
"S+	c #C9CBF2",
"T+	c #CED1F3",
"U+	c #D8DAF6",
"V+	c #D8DAF7",
"W+	c #CDD0F5",
"X+	c #C4C7F3",
"Y+	c #BFC3F2",
"Z+	c #B8BCEE",
"`+	c #ACB0E6",
" @	c #A3A6DF",
".@	c #999BD8",
"+@	c #8F90D0",
"@@	c #8686C9",
"#@	c #7877BE",
"$@	c #8F90CE",
"%@	c #8C8CCC",
"&@	c #8B8BCA",
"*@	c #8B8CCB",
"=@	c #9495D1",
"-@	c #9B9DD7",
";@	c #A4A7DE",
">@	c #ADB0E4",
",@	c #B6B9E9",
"'@	c #BDC1ED",
")@	c #C3C7F0",
"!@	c #CACDF2",
"~@	c #CFD1F3",
"{@	c #D3D6F5",
"]@	c #D6D9F6",
"^@	c #D7DAF7",
"/@	c #D7D9F6",
"(@	c #D1D4F6",
"_@	c #CED1F5",
":@	c #CACDF4",
"<@	c #BDC2F0",
"[@	c #BABEEE",
"}@	c #B7BAEC",
"|@	c #B2B5E9",
"1@	c #ACAFE5",
"2@	c #A6A8E0",
"3@	c #9FA1DB",
"4@	c #999BD6",
"5@	c #9395D2",
"6@	c #A8ABE0",
"7@	c #A6A8DE",
"8@	c #A5A6DD",
"9@	c #A5A7DD",
"0@	c #A7A9DE",
"a@	c #AAACE1",
"b@	c #AEB1E4",
"c@	c #B3B6E7",
"d@	c #B8BBEB",
"e@	c #C2C5EF",
"f@	c #C6CAF1",
"g@	c #CBCFF3",
"h@	c #CFD2F4",
"i@	c #D7D9F7",
"j@	c #D4D6F6",
"k@	c #D0D3F5",
"l@	c #CBCEF4",
"m@	c #C6CAF3",
"n@	c #C2C6F1",
"o@	c #BEC2F0",
"p@	c #BCC0EE",
"q@	c #B9BDED",
"r@	c #B6BAEA",
"s@	c #B3B7E8",
"t@	c #B0B3E5",
"u@	c #ACAFE2",
"v@	c #B7BAE9",
"w@	c #B6B9E8",
"x@	c #B8BBEA",
"y@	c #BABDEB",
"z@	c #BCC0ED",
"A@	c #BFC2EE",
"B@	c #C2C5F0",
"C@	c #C5C9F1",
"D@	c #C9CCF2",
"E@	c #D1D4F4",
"F@	c #CFD1F4",
"G@	c #CACEF4",
"H@	c #C4C8F2",
"I@	c #C2C5F1",
"J@	c #C1C5F1",
"K@	c #C0C4F0",
"L@	c #BFC3EF",
"M@	c #BDC1EE",
"N@	c #BBBEEC",
"O@	c #C1C5F0",
"P@	c #C0C4EF",
"Q@	c #C0C3EF",
"R@	c #C6C9F1",
"S@	c #CCCFF2",
"T@	c #D0D3F4",
"U@	c #D3D6F4",
"V@	c #D5D8F5",
"W@	c #D6D8F5",
"X@	c #DADDF7",
"Y@	c #D9DCF7",
"Z@	c #D1D4F5",
"`@	c #C5C8F3",
" #	c #C4C8F3",
".#	c #C4C8F1",
"+#	c #C5C8F1",
"@#	c #CBCEF2",
"##	c #D2D5F4",
"$#	c #D5D7F5",
"%#	c #D7DAF6",
"&#	c #D4D7F7",
"*#	c #DBDEF7",
"=#	c #D3D5F5",
"-#	c #C7CAF4",
";#	c #C6C9F4",
">#	c #C5C9F3",
",#	c #C8CBF3",
"'#	c #CBCEF3",
")#	c #CDD0F3",
"!#	c #D0D3F3",
"~#	c #D6D9F5",
"{#	c #D9DBF6",
"]#	c #D3D6F7",
"^#	c #DBDEF8",
"/#	c #DCDEF8",
"(#	c #D3D6F6",
"_#	c #C8CCF4",
":#	c #C6CAF4",
"<#	c #C7CBF4",
"[#	c #C9CDF4",
"}#	c #D2D5F7",
"|#	c #DADDF8",
"1#	c #CDD1F6",
"2#	c #CACEF5",
"3#	c #C8CBF5",
"4#	c #C6CAF5",
"5#	c #D5D8F7",
"6#	c #D0D3F7",
"7#	c #D0D4F7",
"8#	c #D8DBF8",
"9#	c #CACDF5",
"0#	c #C7CBF5",
"a#	c #C5CAF5",
"b#	c #C7CAF5",
"c#	c #C8CCF5",
"d#	c #C9CDF5",
"e#	c #CCCFF5",
"f#	c #D2D5F5",
"g#	c #D4D8F7",
"h#	c #CFD3F7",
"i#	c #D4D7F8",
"j#	c #D6DAF8",
"k#	c #D6DAF7",
"l#	c #D6D9F7",
"m#	c #D0D4F6",
"n#	c #CDD0F6",
"o#	c #C9CDF6",
"p#	c #C7CBF6",
"q#	c #C5CAF6",
"r#	c #CBCEF5",
"s#	c #D1D5F7",
"t#	c #CFD3F8",
"u#	c #D2D6F7",
"v#	c #D3D7F7",
"w#	c #CDD0F7",
"x#	c #C6CBF6",
"y#	c #C6CAF6",
"z#	c #C7CAF6",
"A#	c #C8CCF6",
"B#	c #CBCEF6",
"C#	c #CFD2F6",
"D#	c #D5D9F7",
"E#	c #CED2F8",
"F#	c #CED2F7",
"G#	c #CFD2F7",
"H#	c #CCD0F7",
"I#	c #C7CCF6",
"J#	c #CBCFF7",
"K#	c #C8CCF7",
"L#	c #C6CAF7",
"M#	c #C5CAF7",
"N#	c #C6CBF7",
"O#	c #C9CDF7",
"P#	c #CDD1F7",
"Q#	c #D8DCF7",
"R#	c #D9DCF8",
"S#	c #D6D9F8",
"T#	c #D3D6F8",
"U#	c #CBCEF7",
"V#	c #C7CCF7",
"W#	c #D5D8F8",
"X#	c #D2D6F8",
"Y#	c #D0D4F8",
"Z#	c #CACEF7",
"`#	c #C7CBF7",
" $	c #D2D5F8",
".$	c #D0D3F8",
"+$	c #CCCFF7",
"@$	c #CACDF7",
"                                                                                                                                ",
"                                                                                                                                ",
"                                                                                          .                                     ",
"+ + + + + + + + + + + + + + + + + + + + + + + + + + + + + + + + + + + + + + + + + + + + . + . + + + + + + + + + + + + . + + + + ",
"@ @ @ . @ @ @ @ @ @ @ @ @ @ @ @ @ @ @ @ @ . @ @ @ . @ @ @ @ @ @ @ @ @ @ @ @ @ @ @ @ @ @ @ . @ @ @ @ @ @ @ @ @ @ @ @ @ @ @ @ @ @ ",
"# # . # . # # # # # # # # # # # # # # # # # . # . # # # # # # # # # # # # # # # # # # # # # # # # # # # # # # # # # # . # # # # ",
"$ $ $ . $ $ $ $ $ $ $ $ $ $ $ $ $ $ $ $ $ $ $ $ $ $ $ $ $ $ $ $ $ $ $ $ $ $ $ $ $ $ $ $ $ $ $ $ $ $ $ $ $ $ $ $ . $ . . . $ . $ ",
"% % % % % % % % % % % % % % % % % % % % % % . % . % % % % % % % % % % % % % % . % % % % % % % % % % % % % % % % % % % . % % % % ",
"& & & & & & & & & & & & & & & & & & & & & . & & & . & & & & & & & & & & & & . . . & & & & & & & & & & & & & & & & & & & & & & & ",
"* * * * * * * * * * * * * * . * * * * * * * * * * * * * * * * * * * * * * * * . * * * * * * * * * * * * * * * * * * * . * * * * ",
"= = = = = = = = = = = = = = = = = = = = = = = = = = = = = = = = = = = = = = = = = = = = = = = = = = = = = = = = = = = = = = = = ",
"- - - - - - - - - - - - - - . - - - - - - - - - - - - - - - . - . - - - - - - - - - - - - - - - - - - - - - - - - - - - - - - - ",
"; ; ; ; ; ; ; ; ; ; ; . ; . . . ; . ; ; ; ; ; ; ; ; ; ; ; ; ; ; ; ; ; ; ; ; ; ; ; ; ; ; ; ; ; ; ; ; ; ; ; ; ; ; ; ; ; ; ; ; ; ; ",
"> > > > > > > > > > > > > > . > > > > > > > > > > > > > > > . > . > > > > > > > > > > > > > > > > > > > > > > > > > > > > > > > ",
", , , , , , , , , , , , , , , , , , , , , , , , , , , , , , , , , , , , , , , , , , , , , , , . , . , , , , , . , , , . , , , , ",
"' ' ' ' ' ' ' ' ' ' ' ' ' ' . ' ' ' ' ' ' ' ' ' ' ' ' ' ' ' ' ' ' ' ' ' ' ' ' ' ' ' ' ' ' ' ' ' ' ' ' ' ' ' ' ' . ' . ' ' ' ' ' ",
") ) ) ) ) ) ) ) ) ) ) ) ) ) ) ) ) ) ) ) ) ) ) ) ) ) ) ) ! ! ! ! ! ! ! ) ) ) ) ) ) ) ) ) ) ) ) . ) . ) ) ) ) ) ) ) ) ) ) ) ) ) ) ",
"~ ! ~ ~ ~ ~ ~ ~ ~ ~ ~ ~ ~ ~ ~ ~ ~ ~ ~ ~ ~ ~ ~ ~ ~ ~ ~ ~ ! ! ! ! ! ! ! ~ ~ ~ ~ ~ ~ ~ ~ ~ ~ ~ ~ ~ ~ ~ ~ ~ ~ ~ ~ ~ . ~ . ~ ~ ~ ~ ~ ",
"! { ! ] ] ] ] ] ] ] ] ] ] ] ] ] ] ] ] ] ] ] ] ] ] ] ] ] ! ! ! ! ! ! ! ] ] ] ] ] ] ] ] ] ] ] ] ] ] ] ] ] ] ] ] . ] ] ] . ] ] ] ] ",
"^ ! ^ ^ ^ ^ ^ ^ ^ ^ ^ ^ ^ ^ ^ ^ ^ ^ ^ ^ ^ ^ ^ ^ ^ ^ ^ ^ ! ! ! ! ! ! ! ^ ^ ^ . ^ ^ ^ . ^ ^ ^ ^ ^ ^ ^ ^ ^ ^ ^ ^ ^ ^ ^ ^ ^ ^ ^ ^ ^ ",
"! / ! ( ( ( ( ( ( ( ( ( ( ( ( ( ( ( ( ( ( ( ( ( ( ( ( ( ! ! ! ! ! ! ! ( ( ( ( . ( . ( ( ( ( ( ( ( ( ( ( ( ( ( ( ( ( ( ( ( ( ( ( ",
"_ _ / ! . : . : : : : : : : : : : : : : : : . : : : : : ! ! ! ! ! ! ! : : : : : : : : : : : : : : : : : : : : : : : : : : : : ! ",
"_ _ / ! < < < < < < < < < < < < < < < < < . < . < < < < ! ! ! ! ! ! ! < < < < . < . < < < < < < < < < < . < < < < < < < < < < ! ",
"_ _ _ / ! [ . [ [ [ [ [ [ [ [ [ [ [ [ [ [ [ . [ [ [ } } } } } } } } } } } [ . [ [ [ . [ [ [ [ [ [ [ [ . [ . [ [ [ [ [ [ [ [ ! _ ",
"_ | _ _ / ! 1 1 1 1 1 1 1 1 1 1 1 1 1 1 1 1 1 1 ! ! ! ! ! ! ! ! ! ! ! ! ! ! ! 1 1 1 1 1 1 1 1 1 1 1 1 1 . 1 1 1 1 1 1 1 1 ! _ | ",
"| | | | | 2 ! 3 3 3 3 3 3 3 3 3 3 3 3 3 3 3 3 3 3 ! _ _ _ _ _ _ _ _ _ _ _ ! 3 3 3 3 3 3 3 3 3 3 3 3 3 3 3 3 3 3 3 3 3 3 ! | | | ",
"2 2 2 2 ! ! 4 4 4 4 4 4 4 4 4 4 4 4 4 4 4 4 4 4 ! _ _ ! ! _ _ _ _ ! ! _ _ _ ! 4 4 4 4 4 4 4 4 4 4 4 4 4 4 4 4 4 4 4 4 4 4 ! ! 2 ",
"| | | | 2 2 ! 5 5 5 5 5 5 5 5 5 5 5 5 5 5 5 5 5 ! _ _ ! ! ! _ _ _ ! ! ! _ _ ! 5 5 5 5 5 5 5 5 5 5 5 5 5 5 5 5 5 5 5 5 5 ! 2 | 6 ",
"6 | | 6 | 2 2 ! 5 5 5 5 5 5 5 5 5 5 5 5 5 5 5 ! _ _ _ ! ! ! _ _ _ ! ! ! _ _ _ ! 5 5 5 5 5 5 5 5 5 5 5 5 5 5 5 5 5 5 5 ! 2 | 6 7 ",
"| | 6 7 6 | 2 2 ! 5 5 5 5 5 5 5 5 5 5 5 5 5 5 ! _ _ _ _ _ _ _ _ _ _ _ _ _ _ _ ! 5 5 5 5 5 5 5 5 5 5 5 5 5 5 5 5 5 5 ! { | | | 6 ",
"| | | 6 | | 2 { ! 5 5 5 5 5 5 5 5 5 5 5 5 5 5 ! _ _ _ 8 8 8 8 8 8 9 _ _ _ _ _ ! 5 5 5 5 5 5 5 5 5 5 5 5 5 5 5 5 5 5 ! 2 { { | | ",
"{ | | | | { { 2 2 ! 5 5 5 5 5 5 5 5 5 5 5 5 5 ! _ _ _ _ _ 8 8 8 8 9 _ _ _ _ _ ! 5 5 5 5 5 5 5 5 5 5 5 5 5 5 5 5 5 ! 2 | | | { { ",
"| { { { { | | | 2 2 ! 5 5 5 5 5 5 5 5 5 5 5 5 ! _ _ _ _ _ _ _ 9 9 9 _ _ _ _ _ ! 5 5 5 5 5 5 5 5 5 5 5 5 5 5 5 5 ! 2 | | | | | | ",
"| | | | | | 2 2 ! ! 5 5 5 5 5 5 5 5 5 5 5 5 5 5 ! _ ! _ _ _ _ _ _ _ _ _ ! _ ! 5 5 5 5 5 5 5 5 5 5 5 5 5 5 5 5 5 5 ! ! 2 2 | | | ",
"2 2 2 2 6 2 2 ! 5 5 5 5 5 5 5 5 5 5 5 5 5 5 5 5 ! _ _ ! _ _ _ _ _ _ _ ! _ _ ! 5 5 5 5 5 5 5 5 5 5 5 5 5 5 5 5 5 5 5 5 ! 2 2 2 2 ",
"2 2 2 6 7 6 2 2 ! ! 5 5 5 5 5 5 5 5 5 5 5 5 5 5 5 ! _ _ ! ! ! ! ! ! ! _ _ ! 5 5 5 5 5 5 5 5 5 5 5 5 5 5 5 5 5 5 5 ! ! 2 2 2 6 2 ",
"| | | | 6 | | | 2 2 ! ! 5 5 5 5 5 5 5 5 5 5 5 5 5 ! ! _ _ _ _ _ _ _ _ _ ! ! 5 5 5 5 5 5 5 5 5 5 5 5 5 5 5 5 5 ! ! { 2 | | 6 7 6 ",
"| | | | | | | | { { 2 2 ! 5 5 5 5 5 5 5 5 5 5 5 ! 0 0 ! ! _ _ _ _ _ ! ! 6 0 ! 5 5 5 5 5 5 5 5 5 5 5 5 5 5 5 ! 2 2 | { { | | 6 | ",
"| | | | { { { { | | | 2 2 ! a a b c d d e f ! ! 6 0 0 0 6 ! ! ! ! ! 6 6 6 0 0 ! ! g g h h i i j j k l m n ! 2 | | | | | { { | | ",
"{ { { { | | | | | 2 2 ! ! o p q q q q r s ! 6 6 6 0 0 0 6 6 6 0 0 0 6 6 6 0 0 0 6 ! t u u u v v v w x y z A ! ! 2 | | | | | { { ",
"2 2 2 2 2 2 2 2 2 2 ! B C D E F w F F F ! _ _ _ _ _ _ _ _ _ _ _ _ _ _ _ 6 6 6 _ _ _ ! G G G H H w I J K L M N O ! 2 2 2 2 2 2 2 ",
"P P Q ! ! ! ! ! ! ! R S T U V w W X X Y ! _ _ _ _ _ _ _ _ _ _ _ _ _ _ _ 6 6 6 _ _ _ ! Z ` ` `  .w ` ..w +.@.#.$.%.! ! ! ! ! ! ! ",
"P P Q ! &.*.=.-.;.>.,.'.).!.Y w ~.{.].! _ _ _ _ _ _ _ _ _ _ ! ! ! _ _ _ 0 0 0 _ _ _ _ ! ^.^././.w w w (._.:.<.[.}.|.1.2.3.4.5.! ",
"P P Q ! 6.7.8.9.0.a.b.c.w w w w d.e.! _ _ _ _ _ _ _ _ _ _ ! w w w ! _ _ 0 0 0 _ _ _ _ _ ! f.g.w w w h.i.!.J j.k.l.m.n.o.p.q.r.! ",
"! ! ! ! s.t.u.v.w.x.y.z.A.B.w w w C.! _ _ _ _ _ _ _ _ _ _ ! D.D.D.! _ _ 0 0 0 _ _ _ _ _ ! f.w w E.F.w w _.G.H.I.J.K.L.M.N.O.P.! ",
"Q.R.R.S.T.U.V.W.X.Y.Z.`. +w .+w w w w _ _ _ _ _ _ _ _ _ _ _ ! ! ! _ _ _ 6 6 6 _ _ _ _ _ w w w E.E.F.++@+#+$+%+&+*+=+-+;+>+,+'+)+",
"!+~+)+{+]+^+/+(+_+:+y.<+w [+}+|+w w w w _ _ _ _ _ _ _ _ _ _ _ _ _ _ _ _ _ 6 6 _ _ _ _ w w w 1+1+2+3+4+5+6+7+8+9+0+a+b+c+d+e+,+f+",
"g+h+i+j+k+l+m+n+o+p+q+r+s+t+u+ .|+! _ w w _ _ _ _ _ _ _ _ _ _ _ _ _ _ _ _ _ 6 _ _ _ w w _ ! 3+3+v+w+x+Y 6+K y+z+A+B+C+b+D+E+F+G+",
"H+I+J+K+L+M+N+O+P+Q+C R+S+T+h.u+U+! _ _ w w _ _ _ _ _ _ _ _ ! ! ! _ _ _ _ _ 0 _ _ w w _ _ ! v+V+u+.+W+X X+Y+7+Z+z+`+ @.@+@@@4.#@",
"$@%@&@*@o+=@-@;@>@,@'@)@!@~@{@w+]@! _ _ _ _ _ _ _ _ _ _ _ ! w w w ! _ _ _ _ _ _ _ _ _ _ _ ! ^@/@w+(@_@:@W #++.<@[@}@|@1@2@3@4@5@",
"6@7@8@9@0@a@b@c@d@r+e@f@g@h@{@w+` ! _ _ _ _ _ _ _ _ _ _ _ ! D.D.D.! _ _ _ _ _ _ _ _ _ _ _ ! i@/@u+j@k@_@l@B.m@n@J o@p@q@r@s@t@u@",
"`.v@w@,@v@x@y@z@A@B@C@D@T+E@Z w+w+! _ _ _ _ _ _ _ _ _ _ _ _ ! ! ! _ _ _ _ _ _ _ _ _ _ _ _ ! i@V+ ./@j@4+F@[+G@W H@F I@J@K@L@M@N@",
"O@P@Q@Q@Q@Q@T B@).R@D@S@T@U@V@W@` ! _ _ _ _ _ _ _ _ _ _ _ _ _ _ _ _ _ _ _ _ _ _ _ _ _ _ _ ! i@v+X@Y@]@++Z@x+i.B.W V `@ #H@H@F n@",
"_..# + + + ++#R@s+D@@#T+##$#%#%#/@u+! _ _ _ _ _ _ _ _ _ _ _ _ _ _ _ _ _ _ _ _ _ _ _ _ _ ! &#i@Y@*#3+ .u+=#k@W+:@X -#;#;#;#V >#`@",
"m@m@m@V V W W ,#B.'#)#!#h.~#{#{#U+]@! _ _ _ _ _ _ _ _ _ _ _ ! ! ! _ _ _ _ _ _ _ _ _ _ _ ! ]#}+v+^#/#|+^@(#k@W+G@_#-#:#:#:#;#;#V ",
"-#<#X X X X _#[#l@i.h@E@Z /@|+|+v+i@! _ _ _ _ _ _ _ _ _ _ ! w w w ! _ _ _ _ _ _ _ _ _ _ ! }#&#^@|#/#|+ .` (@1#2#3#4#4#4#4#4#4#-#",
"-#X X X X _#Y :@@+i.h@##V@%#|+3+|+^@5#! _ _ _ _ _ _ _ _ _ ! D.D.D.! _ _ _ _ _ _ _ _ _ ! 6#7#}#5#8#|#Y@^@5#(@1#9#0#4#a#a#a#a#4#4#",
"b#3#3#3#3#c#d#2#e#_@k@f#`  .|+3+|+^@g#}#! _ _ _ _ _ _ _ _ _ ! ! ! _ _ _ _ _ _ _ _ _ ! h#h#h#7#}#i#j#k#l#&#m#n#o#p#q#q#q#q#q#a#4#",
"4#0#0#0#0#c#d#r#e#_@k@f#`  .|+3+|+^@g#s#! _ _ _ _ _ _ _ _ _ _ _ _ _ _ _ _ _ _ _ _ _ ! t#t#t#t#6#s#u#&#g#v#7#w#o#x#q#q#q#q#q#q#q#",
"y#y#z#z#p#A#o#B#n#C#(@(#D# .X@3+|+^@v#s#h#! _ _ _ _ _ _ _ _ _ _ _ _ _ _ _ _ _ _ _ ! t#t#t#t#E#F#G#h#7#s#s#h#H#A#y#q#q#q#q#q#q#q#",
"q#q#y#y#x#I#o#B#n#C#(@(#l# .X@3+Y@k#v#7#h#h#! ! _ _ _ _ _ _ _ _ _ _ _ _ _ _ _ ! ! t#t#t#t#t#E#F#F#F#F#h#h#F#J#K#L#M#M#M#M#M#q#q#",
"M#M#M#M#N#K#O#J#P#h#s#v#l#Q#X@X@R#S#T#7#h#h#h#h#! _ _ _ _ _ _ _ _ _ _ _ _ _ ! t#t#t#t#t#t#t#E#F#P#P#P#F#F#P#U#K#L#M#M#M#M#M#M#M#",
"M#M#M#M#N#V#O#J#P#h#s#&#k#Y@X@|#8#W#X#Y#t#t#t#t#t#! ! ! _ _ _ _ _ _ _ ! ! ! t#t#t#t#t#t#t#t#E#F#P#P#H#P#P#H#Z#`#L#M#M#M#M#M#M#M#",
"M#M#M#M#N#V#O#J#P#h#s#&#k#Y@X@|#8#W# $.$t#t#t#t#t#t#t#t#! ! ! ! ! ! ! t#t#t#t#t#t#t#t#t#t#t#E#F#P#H#H#H#w#+$@$`#M#M#M#M#M#M#M#M#"};
