/* XPM */
static char * thug_xpm[] = {
"64 64 509 2",
"  	c #3B4794",
". 	c #FCF67C",
"+ 	c #3C4896",
"@ 	c #3D4999",
"# 	c #3E4B9C",
"$ 	c #3F4C9F",
"% 	c #404EA2",
"& 	c #414FA4",
"* 	c #4351A7",
"= 	c #4452AA",
"- 	c #4553AD",
"; 	c #4655B0",
"> 	c #4756B2",
", 	c #4858B5",
"' 	c #4A59B8",
") 	c #4B5BBB",
"! 	c #4C5CBE",
"~ 	c #000000",
"{ 	c #FBF236",
"] 	c #4D5EC0",
"^ 	c #4E5FC3",
"/ 	c #E2E5F9",
"( 	c #4F60C6",
"_ 	c #FFFFFF",
": 	c #5162C9",
"< 	c #5263CC",
"[ 	c #5365CE",
"} 	c #37946E",
"| 	c #5466D1",
"1 	c #286B50",
"2 	c #5568D4",
"3 	c #FFF200",
"4 	c #5669D7",
"5 	c #586BDA",
"6 	c #AC3232",
"7 	c #D95763",
"8 	c #9BADB7",
"9 	c #FF7E00",
"0 	c #8891D3",
"a 	c #8991D4",
"b 	c #8992D4",
"c 	c #8992D5",
"d 	c #8992D6",
"e 	c #8993D6",
"f 	c #8A93D7",
"g 	c #8A93D8",
"h 	c #CD272D",
"i 	c #8C96DE",
"j 	c #8D96DE",
"k 	c #8D97DF",
"l 	c #8D97E0",
"m 	c #8E98E1",
"n 	c #8E98E2",
"o 	c #8E98E3",
"p 	c #8E98E4",
"q 	c #8F99E4",
"r 	c #8F99E5",
"s 	c #8691E3",
"t 	c #A4ABE1",
"u 	c #ACB2E5",
"v 	c #ACB2E6",
"w 	c #ACB2E7",
"x 	c #ADB3E7",
"y 	c #AEB4E7",
"z 	c #AFB5E8",
"A 	c #B0B5E8",
"B 	c #B0B6EB",
"C 	c #B1B6EB",
"D 	c #B1B7EB",
"E 	c #B1B7EC",
"F 	c #B1B7ED",
"G 	c #B0B6EE",
"H 	c #AFB5EE",
"I 	c #A8AEEC",
"J 	c #A7AEEC",
"K 	c #AFB4E5",
"L 	c #B7BBEA",
"M 	c #B9BDEB",
"N 	c #C3C7F1",
"O 	c #C3C7F2",
"P 	c #C4C8F2",
"Q 	c #C1C5EF",
"R 	c #C2C6F0",
"S 	c #C3C7F0",
"T 	c #C5C8F1",
"U 	c #C6CAF2",
"V 	c #C8CCF2",
"W 	c #C8CCF3",
"X 	c #C5C9F2",
"Y 	c #C0C4F1",
"Z 	c #BDC1F1",
"` 	c #B9BEF0",
" .	c #B8BCF0",
"..	c #B7BCEF",
"+.	c #ADB3EC",
"@.	c #6D433B",
"#.	c #4A2A24",
"$.	c #B4B7E7",
"%.	c #B9BDEA",
"&.	c #C1C4EF",
"*.	c #C3C6F1",
"=.	c #C6C9F3",
"-.	c #C7CAF3",
";.	c #C8CBF4",
">.	c #C9CCF4",
",.	c #CBCEF3",
"'.	c #CCCFF3",
").	c #CED1F4",
"!.	c #D0D3F4",
"~.	c #D1D3F4",
"{.	c #D0D3F5",
"].	c #D1D3F5",
"^.	c #D2D4F5",
"/.	c #D3D6F5",
"(.	c #D4D7F5",
"_.	c #D5D8F6",
":.	c #D8DBF7",
"<.	c #CBCFF4",
"[.	c #C1C5F2",
"}.	c #BFC2F1",
"|.	c #BCC0F0",
"1.	c #B4B9EC",
"2.	c #AFB4EA",
"3.	c #7675BA",
"4.	c #7C7CBF",
"5.	c #8686C6",
"6.	c #9293CF",
"7.	c #9FA1D8",
"8.	c #ABADE0",
"9.	c #B5B8E7",
"0.	c #BCBFEC",
"a.	c #C4C7F0",
"b.	c #C6C9F2",
"c.	c #CACDF5",
"d.	c #CCCEF5",
"e.	c #CED0F5",
"f.	c #CFD1F5",
"g.	c #D0D2F5",
"h.	c #D2D4F6",
"i.	c #D5D7F6",
"j.	c #D8DAF6",
"k.	c #DADCF7",
"l.	c #DBDDF7",
"m.	c #D9DBF7",
"n.	c #DCDEF7",
"o.	c #DDDFF8",
"p.	c #DDDFF7",
"q.	c #CCCEF4",
"r.	c #C5C8F2",
"s.	c #C1C4F1",
"t.	c #BDC0EF",
"u.	c #B5B9EB",
"v.	c #AEB2E7",
"w.	c #A6AAE2",
"x.	c #9C9FDA",
"y.	c #9193D2",
"z.	c #8788CA",
"A.	c #7E7EC3",
"B.	c #7777BE",
"C.	c #625FAB",
"D.	c #6866B0",
"E.	c #7270B7",
"F.	c #807FC1",
"G.	c #9191CD",
"H.	c #A2A4DA",
"I.	c #B1B3E4",
"J.	c #BBBEEB",
"K.	c #C3C6F0",
"L.	c #C7CAF2",
"M.	c #CBCEF5",
"N.	c #CED1F6",
"O.	c #D1D3F6",
"P.	c #D4D6F7",
"Q.	c #D5D7F7",
"R.	c #D7D9F7",
"S.	c #D9DAF7",
"T.	c #DFE0F8",
"U.	c #DFE1F8",
"V.	c #DEE0F8",
"W.	c #E0E1F8",
"X.	c #E0E2F9",
"Y.	c #E0E2F8",
"Z.	c #D4D6F5",
"`.	c #CDD0F4",
" +	c #BBBFEE",
".+	c #B3B7EA",
"++	c #AAADE3",
"@+	c #9EA0DB",
"#+	c #8F91D0",
"$+	c #8081C5",
"%+	c #7373BB",
"&+	c #6A68B3",
"*+	c #6360AE",
"=+	c #5450A1",
"-+	c #5855A4",
";+	c #615EAA",
">+	c #6F6DB5",
",+	c #8382C3",
"'+	c #9899D3",
")+	c #ACAEE1",
"!+	c #BABCEA",
"~+	c #C9CCF3",
"{+	c #CED1F5",
"]+	c #D3D5F6",
"^+	c #D6D8F7",
"/+	c #DADBF7",
"(+	c #DBDCF7",
"_+	c #DCDEF8",
":+	c #E1E2F8",
"<+	c #E1E3F9",
"[+	c #E1E2F9",
"}+	c #BFC2F0",
"|+	c #B9BDEE",
"1+	c #B0B4E8",
"2+	c #A4A8E0",
"3+	c #9597D4",
"4+	c #8383C7",
"5+	c #7271BA",
"6+	c #6462AF",
"7+	c #5B58A8",
"8+	c #5551A3",
"9+	c #4B479C",
"0+	c #4A469B",
"a+	c #4B479B",
"b+	c #4D499C",
"c+	c #514D9F",
"d+	c #5A56A5",
"e+	c #6865B0",
"f+	c #7C7BBF",
"g+	c #9495D0",
"h+	c #AAACE0",
"i+	c #B9BCEA",
"j+	c #C4C7F1",
"k+	c #D2D5F6",
"l+	c #DBDDF8",
"m+	c #DDDEF8",
"n+	c #E1E3F8",
"o+	c #D4D7F6",
"p+	c #CCCFF4",
"q+	c #C4C7F2",
"r+	c #BDC1F0",
"s+	c #B7BBEE",
"t+	c #AEB2E8",
"u+	c #A2A5DF",
"v+	c #9193D3",
"w+	c #7E7FC4",
"x+	c #6D6BB7",
"y+	c #5F5DAC",
"z+	c #5653A5",
"A+	c #514CA0",
"B+	c #4D499D",
"C+	c #4F4B9F",
"D+	c #4E499D",
"E+	c #4E4A9D",
"F+	c #504C9F",
"G+	c #5551A2",
"H+	c #5E5BA9",
"I+	c #6C6AB4",
"J+	c #8080C3",
"K+	c #9798D3",
"L+	c #BBBDEB",
"M+	c #CDCFF4",
"N+	c #DCDDF8",
"O+	c #DEDFF8",
"P+	c #DEE0F7",
"Q+	c #CBCDF4",
"R+	c #C3C6F2",
"S+	c #BCC0F1",
"T+	c #B6BBEE",
"U+	c #AFB3E9",
"V+	c #A4A8E1",
"W+	c #9698D6",
"X+	c #8485C9",
"Y+	c #7473BC",
"Z+	c #6664B2",
"`+	c #5D5AAA",
" @	c #524EA1",
".@	c #5C59A9",
"+@	c #5A57A7",
"@@	c #5956A6",
"#@	c #5A57A6",
"$@	c #5D5AA9",
"%@	c #6361AD",
"&@	c #6D6CB5",
"*@	c #7C7BC0",
"=@	c #8E8FCD",
"-@	c #A1A3DA",
";@	c #B1B4E5",
">@	c #BDC0ED",
",@	c #D6D8F6",
"'@	c #DADCF8",
")@	c #DBDCF8",
"!@	c #DDE0F8",
"~@	c #CFD2F5",
"{@	c #B8BCEF",
"]@	c #B3B7EB",
"^@	c #ABAFE6",
"/@	c #A0A3DE",
"(@	c #9394D4",
"_@	c #7877BF",
":@	c #6D6CB7",
"<@	c #6664B1",
"[@	c #605DAC",
"}@	c #7372BA",
"|@	c #706FB8",
"1@	c #6F6EB7",
"2@	c #706FB7",
"3@	c #7473BA",
"4@	c #7A7ABF",
"5@	c #8484C6",
"6@	c #9192CF",
"7@	c #9EA0DA",
"8@	c #ACAFE3",
"9@	c #C0C4EE",
"0@	c #C9CBF2",
"a@	c #CED1F3",
"b@	c #D8DAF7",
"c@	c #DADDF7",
"d@	c #DADDF8",
"e@	c #D9DCF7",
"f@	c #CDD0F5",
"g@	c #C4C7F3",
"h@	c #BFC3F2",
"i@	c #B8BCEE",
"j@	c #ACB0E6",
"k@	c #A3A6DF",
"l@	c #999BD8",
"m@	c #8F90D0",
"n@	c #8686C9",
"o@	c #7877BE",
"p@	c #8F90CE",
"q@	c #8C8CCC",
"r@	c #8B8BCA",
"s@	c #8B8CCB",
"t@	c #9495D1",
"u@	c #9B9DD7",
"v@	c #A4A7DE",
"w@	c #ADB0E4",
"x@	c #B6B9E9",
"y@	c #BDC1ED",
"z@	c #CACDF2",
"A@	c #CFD1F3",
"B@	c #D6D9F6",
"C@	c #D7D9F6",
"D@	c #D7DAF7",
"E@	c #D8DBF8",
"F@	c #D8DAF8",
"G@	c #D7DAF8",
"H@	c #D1D4F6",
"I@	c #CACDF4",
"J@	c #BDC2F0",
"K@	c #BABEEE",
"L@	c #B7BAEC",
"M@	c #B2B5E9",
"N@	c #ACAFE5",
"O@	c #A6A8E0",
"P@	c #9FA1DB",
"Q@	c #999BD6",
"R@	c #9395D2",
"S@	c #A8ABE0",
"T@	c #A6A8DE",
"U@	c #A5A6DD",
"V@	c #A5A7DD",
"W@	c #A7A9DE",
"X@	c #AAACE1",
"Y@	c #AEB1E4",
"Z@	c #B3B6E7",
"`@	c #B8BBEB",
" #	c #C2C5EF",
".#	c #C6CAF1",
"+#	c #CBCFF3",
"@#	c #CFD2F4",
"##	c #D6D9F7",
"$#	c #D6D9F8",
"%#	c #D5D8F7",
"&#	c #D4D6F6",
"*#	c #CBCEF4",
"=#	c #C6CAF3",
"-#	c #C2C6F1",
";#	c #BEC2F0",
">#	c #BCC0EE",
",#	c #B9BDED",
"'#	c #B6BAEA",
")#	c #B3B7E8",
"!#	c #B0B3E5",
"~#	c #ACAFE2",
"{#	c #B7BAE9",
"]#	c #B6B9E8",
"^#	c #B8BBEA",
"/#	c #BABDEB",
"(#	c #BCC0ED",
"_#	c #BFC2EE",
":#	c #C2C5F0",
"<#	c #C5C9F1",
"[#	c #C9CCF2",
"}#	c #D1D4F4",
"|#	c #D5D9F8",
"1#	c #D5D8F8",
"2#	c #D4D7F7",
"3#	c #CFD1F4",
"4#	c #CACEF4",
"5#	c #C2C5F1",
"6#	c #C1C5F1",
"7#	c #C0C4F0",
"8#	c #BFC3EF",
"9#	c #BDC1EE",
"0#	c #BBBEEC",
"a#	c #C1C5F0",
"b#	c #C0C4EF",
"c#	c #C0C3EF",
"d#	c #C6C9F1",
"e#	c #CCCFF2",
"f#	c #D3D6F4",
"g#	c #D5D8F5",
"h#	c #D6D8F5",
"i#	c #D4D8F8",
"j#	c #D4D7F8",
"k#	c #D3D6F7",
"l#	c #D1D4F5",
"m#	c #C5C8F3",
"n#	c #C4C8F3",
"o#	c #C4C8F1",
"p#	c #CBCEF2",
"q#	c #D2D5F4",
"r#	c #D5D7F5",
"s#	c #D7DAF6",
"t#	c #D3D7F8",
"u#	c #D3D6F8",
"v#	c #D2D5F7",
"w#	c #DBDEF7",
"x#	c #D3D5F5",
"y#	c #C7CAF4",
"z#	c #C6C9F4",
"A#	c #C5C9F3",
"B#	c #C8CBF3",
"C#	c #CDD0F3",
"D#	c #D0D3F3",
"E#	c #D6D9F5",
"F#	c #D9DBF6",
"G#	c #D3D6F6",
"H#	c #D3D5F7",
"I#	c #D2D6F8",
"J#	c #D2D5F8",
"K#	c #DBDEF8",
"L#	c #C8CCF4",
"M#	c #C6CAF4",
"N#	c #C7CBF4",
"O#	c #C9CDF4",
"P#	c #D2D4F7",
"Q#	c #D1D5F8",
"R#	c #D1D4F8",
"S#	c #D1D4F7",
"T#	c #CDD1F6",
"U#	c #CACEF5",
"V#	c #C8CBF5",
"W#	c #C6CAF5",
"X#	c #D1D3F7",
"Y#	c #D0D4F8",
"Z#	c #D0D3F8",
"`#	c #D0D3F7",
" $	c #D0D4F7",
".$	c #C7CBF5",
"+$	c #C5CAF5",
"@$	c #C7CAF5",
"#$	c #C8CCF5",
"$$	c #C9CDF5",
"%$	c #CCCFF5",
"&$	c #D2D5F5",
"*$	c #D4D8F7",
"=$	c #CFD3F8",
"-$	c #CFD3F7",
";$	c #D6DAF8",
">$	c #D6DAF7",
",$	c #D0D4F6",
"'$	c #CDD0F6",
")$	c #C9CDF6",
"!$	c #C7CBF6",
"~$	c #C5CAF6",
"{$	c #D1D5F7",
"]$	c #D2D6F7",
"^$	c #D3D7F7",
"/$	c #CDD0F7",
"($	c #C6CBF6",
"_$	c #C6CAF6",
":$	c #C7CAF6",
"<$	c #C8CCF6",
"[$	c #CBCEF6",
"}$	c #CFD2F6",
"|$	c #D5D9F7",
"1$	c #CED2F8",
"2$	c #CED2F7",
"3$	c #CFD2F7",
"4$	c #CCD0F7",
"5$	c #C7CCF6",
"6$	c #CBCFF7",
"7$	c #C8CCF7",
"8$	c #C6CAF7",
"9$	c #C5CAF7",
"0$	c #C6CBF7",
"a$	c #C9CDF7",
"b$	c #CDD1F7",
"c$	c #D8DCF7",
"d$	c #D9DCF8",
"e$	c #CBCEF7",
"f$	c #C7CCF7",
"g$	c #CACEF7",
"h$	c #C7CBF7",
"i$	c #CCCFF7",
"j$	c #CACDF7",
"                                                                                                                                ",
"                                                                                                                                ",
"                                                                                          .                                     ",
"+ + + + + + + + + + + + + + + + + + + + + + + + + + + + + + + + + + + + + + + + + + + + . + . + + + + + + + + + + + + . + + + + ",
"@ @ @ . @ @ @ @ @ @ @ @ @ @ @ @ @ @ @ @ @ . @ @ @ . @ @ @ @ @ @ @ @ @ @ @ @ @ @ @ @ @ @ @ . @ @ @ @ @ @ @ @ @ @ @ @ @ @ @ @ @ @ ",
"# # . # . # # # # # # # # # # # # # # # # # . # . # # # # # # # # # # # # # # # # # # # # # # # # # # # # # # # # # # . # # # # ",
"$ $ $ . $ $ $ $ $ $ $ $ $ $ $ $ $ $ $ $ $ $ $ $ $ $ $ $ $ $ $ $ $ $ $ $ $ $ $ $ $ $ $ $ $ $ $ $ $ $ $ $ $ $ $ $ . $ . . . $ . $ ",
"% % % % % % % % % % % % % % % % % % % % % % . % . % % % % % % % % % % % % % % . % % % % % % % % % % % % % % % % % % % . % % % % ",
"& & & & & & & & & & & & & & & & & & & & & . & & & . & & & & & & & & & & & & . . . & & & & & & & & & & & & & & & & & & & & & & & ",
"* * * * * * * * * * * * * * . * * * * * * * * * * * * * * * * * * * * * * * * . * * * * * * * * * * * * * * * * * * * . * * * * ",
"= = = = = = = = = = = = = = = = = = = = = = = = = = = = = = = = = = = = = = = = = = = = = = = = = = = = = = = = = = = = = = = = ",
"- - - - - - - - - - - - - - . - - - - - - - - - - - - - - - . - . - - - - - - - - - - - - - - - - - - - - - - - - - - - - - - - ",
"; ; ; ; ; ; ; ; ; ; ; . ; . . . ; . ; ; ; ; ; ; ; ; ; ; ; ; ; ; ; ; ; ; ; ; ; ; ; ; ; ; ; ; ; ; ; ; ; ; ; ; ; ; ; ; ; ; ; ; ; ; ",
"> > > > > > > > > > > > > > . > > > > > > > > > > > > > > > . > . > > > > > > > > > > > > > > > > > > > > > > > > > > > > > > > ",
", , , , , , , , , , , , , , , , , , , , , , , , , , , , , , , , , , , , , , , , , , , , , , , . , . , , , , , . , , , . , , , , ",
"' ' ' ' ' ' ' ' ' ' ' ' ' ' . ' ' ' ' ' ' ' ' ' ' ' ' ' ' ' ' ' ' ' ' ' ' ' ' ' ' ' ' ' ' ' ' ' ' ' ' ' ' ' ' ' . ' . ' ' ' ' ' ",
") ) ) ) ) ) ) ) ) ) ) ) ) ) ) ) ) ) ) ) ) ) ) ) ) ) ) ) ) ) ) ) ) ) ) ) ) ) ) ) ) ) ) ) ) ) ) . ) . ) ) ) ) ) ) ) ) ) ) ) ) ) ) ",
"! ~ ! ! ! ! ! ! ! ! ! ! ! ! ! ! ! ! ! ! ! ! ! ! ! ! ! ! ! ! ! ! ! ! ! ! ! ! ! ! ! ! ! ! ! ! ! ! ! ! ! ! ! ! ! ! . ! . ! ! ! ! ! ",
"~ { ~ ] ] ] ] ] ] ] ] ] ] ] ] ] ] ] ] ] ] ] ] ] ] ] ] ] ] ] ] ] ] ] ] ] ] ] ] ] ] ] ] ] ] ] ] ] ] ] ] ] ] ] ] . ] ] ] . ] ] ] ] ",
"^ ~ ^ ^ ^ ^ ^ ^ ^ ^ ^ ^ ^ ^ ^ ^ ^ ^ ^ ^ ^ ^ ^ ^ ^ ^ ^ ^ ^ ^ ^ ^ ^ ^ ^ ^ ^ ^ . ^ ^ ^ . ^ ^ ^ ^ ^ ^ ^ ^ ^ ^ ^ ^ ^ ^ ^ ^ ^ ^ ^ ^ ^ ",
"~ / ~ ( ( ( ( ( ( ( ( ( ( ( ( ( ( ( ( ( ( ( ( ( ( ( ( ( ( ( ( ( ( ( ( ( ( ( ( . ( . ( ( ( ( ( ( ( ( ( ( ( ( ( ( ( ( ( ( ( ( ( ( ",
"_ _ / ~ . : . : : : : : : : : : : : : : : : . : : : : : : : : : : : : : : : : : : : : : : : : : : : : : : : : : : : : : : : : ~ ",
"_ _ / ~ < < < < < < < < < < < < < < < < < . < . < < < < < < < < < < < < < < < . < . < < < < < < < < < < . < < < < < < < < < < ~ ",
"_ _ _ / ~ [ . [ [ [ [ [ [ [ [ [ [ [ [ [ [ [ . [ [ [ [ [ [ [ [ [ [ [ [ [ [ [ . [ [ [ . [ [ [ [ [ [ [ [ . [ . [ [ [ [ [ [ [ [ ~ _ ",
"_ } _ _ / ~ | | | | | | | | | | | | | | | | | | | | | | | | | | | | | | | | | | | | | | | | | | | | | | . | | | | | | | | ~ _ } ",
"} } } } } 1 ~ 2 2 2 2 2 2 2 2 2 2 2 2 2 2 2 2 2 2 3 3 3 3 3 3 3 3 3 3 3 3 2 2 2 2 2 2 2 2 2 2 2 2 2 2 2 2 2 2 2 2 2 2 2 ~ } } } ",
"1 1 1 1 ~ ~ 4 4 4 4 4 4 4 4 4 4 4 4 4 4 4 4 4 4 4 3 3 3 3 3 3 3 3 3 3 3 3 4 4 4 4 4 4 4 4 4 4 4 4 4 4 4 4 4 4 4 4 4 4 4 4 ~ ~ 1 ",
"} } } } 1 1 ~ 5 5 5 5 5 5 5 5 5 5 5 5 5 5 5 5 5 5 3 3 3 3 3 3 3 3 3 3 3 3 5 5 5 5 5 5 5 5 5 5 5 5 5 5 5 5 5 5 5 5 5 5 5 ~ 1 } 6 ",
"6 } } 6 } 1 1 ~ 5 5 5 5 5 5 5 5 5 5 5 5 5 5 5 5 5 3 3 3 3 3 3 3 3 3 3 3 3 5 5 5 5 5 5 5 5 5 5 5 5 5 5 5 5 5 5 5 5 5 5 ~ 1 } 6 7 ",
"} } 6 7 6 } 1 1 ~ 5 5 5 5 5 5 5 5 5 5 5 5 5 5 5 5 3 3 3 3 3 3 3 3 3 3 3 3 5 5 5 5 5 5 5 5 5 5 5 5 5 5 5 5 5 5 5 5 5 ~ { } } } 6 ",
"} } } 6 } } 1 { ~ 5 5 5 5 5 5 5 5 5 5 5 5 5 5 5 5 3 3 3 3 3 3 3 3 3 3 3 3 5 5 5 5 5 5 5 5 5 5 5 5 5 5 5 5 5 5 5 5 5 ~ 1 { { } } ",
"{ } } } } { { 1 1 ~ 5 5 5 5 5 5 5 5 5 5 5 5 5 5 5 ~ 3 ~ ~ ~ ~ 3 3 ~ ~ ~ ~ 5 5 5 5 5 5 5 5 5 5 5 5 5 5 5 5 5 5 5 5 ~ 1 } } } { { ",
"} { { { { } } } 1 1 ~ 5 5 5 5 5 5 5 5 5 5 5 5 5 5 3 ~ ~ ~ ~ ~ ~ ~ ~ ~ ~ ~ 5 5 5 5 5 5 5 5 5 5 5 5 5 5 5 5 5 5 5 ~ 1 } } } } } } ",
"} } } } } } 1 1 ~ ~ 5 5 5 5 5 5 5 5 5 5 5 5 5 5 5 3 3 ~ ~ ~ ~ 3 3 ~ ~ ~ ~ 5 5 5 5 5 5 5 8 5 5 5 5 5 5 5 5 5 5 5 5 ~ ~ 1 1 } } } ",
"1 1 1 1 6 1 1 ~ 5 5 5 5 5 5 5 5 5 5 5 5 5 5 5 5 5 3 3 3 3 3 3 9 9 9 9 9 9 9 9 5 5 5 5 8 5 5 5 5 5 5 5 5 5 5 5 5 5 5 5 ~ 1 1 1 1 ",
"1 1 1 6 7 6 1 1 ~ ~ 5 5 5 5 5 5 5 5 5 5 5 5 5 5 5 3 3 3 3 3 3 9 9 9 9 9 9 9 9 9 9 _ _ 5 5 5 5 5 5 5 5 5 5 5 5 5 5 ~ ~ 1 1 1 6 1 ",
"} } } } 6 } } } 1 1 ~ ~ 5 5 5 5 5 5 5 5 5 5 5 5 5 3 3 3 3 3 3 9 9 9 9 9 9 9 9 5 5 5 5 5 5 5 5 5 5 5 5 5 5 5 5 ~ ~ { 1 } } 6 7 6 ",
"} } } } } } } } { { 1 1 ~ 5 5 5 5 5 5 5 5 5 5 5 5 3 3 3 3 3 3 9 9 9 9 9 9 9 9 5 5 5 5 5 5 5 5 5 5 5 5 5 5 5 ~ 1 1 } { { } } 6 } ",
"} } } } { { { { } } } 1 1 ~ 0 0 a b c c d e f f g h h _ h 3 3 3 3 h _ h h i j k k l l m m n n o o p q r s ~ 1 } } } } } { { } } ",
"{ { { { } } } } } 1 1 ~ ~ t u v v v v w x y z A A h h _ h h _ _ h h _ h h B B C D D D E E E F F F F G H I J ~ ~ 1 } } } } } { { ",
"1 1 1 1 1 1 1 1 1 1 ~ K L M N O O O O O P Q R S S h h h _ h h h h _ h h h N N N N T U V V V W W W X Y Z `  ...+.~ 1 1 1 1 1 1 1 ",
"@.@.#.~ ~ ~ ~ ~ ~ ~ $.%.&.*.=.-.-.;.;.>.,.'.).!.~._ h h h _ _ _ _ h h h _ !.{.{.].^./.(._._._.:.:._.<.-.[.}.|.1.2.~ ~ ~ ~ ~ ~ ~ ",
"@.@.#.~ 3.4.5.6.7.8.9.0.a.b.>.c.d.e.f.g.h.i.j.k.l.h _ h h h h h h h h _ h m.k.k.k.l.n.o.o.o.p.p.n.m.^.q.r.s.t.u.v.w.x.y.z.A.B.~ ",
"@.@.#.~ C.D.E.F.G.H.I.J.K.L.M.N.O.P.Q.R.S.l.o.T.U._ h h h h h h h h h h _ V.T.T.T.T.W.W.X.Y.W.W.U.n.Z.`.b.Y  +.+++@+#+$+%+&+*+~ ",
"~ ~ ~ ~ =+-+;+>+,+'+)+!+K.~+{+]+^+S./+(+_+V.Y.:+<+h h h h h h h h h h h h Y.[+[+[+[+X.X.X.Y.W.W.U.n.i.`.r.}+|+1+2+3+4+5+6+7+8+~ ",
"9+0+0+a+b+c+d+e+f+g+h+i+j+,.k+R.k.l+_+m+V.U.Y.n+<+_ h _ h _ h _ h _ h _ h Y.Y.Y.Y.Y.Y.W.W.U.U.U.U.n.o+p+q+r+s+t+u+v+w+x+y+z+A+B+",
"C+D+B+E+F+G+H+I+J+K+)+L+T M+^+k.l+N+_+_+O+T.W.Y.Y.3 3 3 3 3 3 3 3 3 3 3 3 U.U.U.U.U.U.U.T.V.V.V.P+l.^.Q+R+S+T+U+V+W+X+Y+Z+`+z+ @",
".@+@@@#@$@%@&@*@=@-@;@>@L.).,@:.k.'@)@l+N+_+o.o.!@3 3 3 3 o.o.o.o.3 3 3 3 o.o.o._+_+_+_+_+n.l.l.m.i.~@>.R+Z {@]@^@/@(@X+_@:@<@[@",
"}@|@1@2@3@4@5@6@7@8@L 9@0@a@Z.,@j.b@m.m.m.k.k.c@l.3 3 3 3 d@d@d@d@3 3 3 3 d@d@'@'@'@'@e@e@e@m.b@,@k+f@;.g@h@S+i@]@j@k@l@m@n@A.o@",
"p@q@r@s@=@t@u@v@w@x@y@S z@A@/.i.B@C@D@D@b@b@b@:.m.3 3 3 3 E@E@E@E@3 3 3 3 E@E@F@F@F@G@D@D@D@D@C@i.H@{+I@-.q+[.J@K@L@M@N@O@P@Q@R@",
"S@T@U@V@W@X@Y@Z@`@>@ #.#+#@#/.i._.,@##B@##R.R.R.D@3 3 3 3 G@G@G@G@3 3 3 3 $#$#$#$#$#$#%#%#^+R.C@,@&#{.{+*#~+=#-#Y ;#>#,#'#)#!#~#",
"i+{#]#x@{#^#/#(#_#:#<#[#a@}#(.i.i._._._.%#^+^+^+##3 3 3 3 $#$#$#|#3 3 3 3 1#1#1#1#1#1#2#2#%#R.b@:.C@&#^.3#M+4#-.P O 5#6#7#8#9#0#",
"a#b#c#c#c#c#&.:#a.d#[#e#!.f#g#h#_.i.i.o+2#Q.Q.Q.%#3 3 3 3 1#1#i#i#3 3 3 3 j#j#j#j#j#j#k#2#Q.R.m.c@e@B@o+l#~@`.~+-.=.m#n#P P O -#",
"r.o#j+j+j+j+T d#L.[#p#a@q#r#s#s#C@,@o+&#k#P.P.P.2#3 3 3 3 j#j#t#t#3 3 3 3 u#u#u#u#u#u#v#k#2#R.e@w#l.:.,@x#{.f@I@;.y#z#z#z#=.A#m#",
"=#=#=#=.=.-.-.B#~+,.C#D#Z.E#F#F#j.B@o+G#H#H#H#H#k#u#u#u#u#u#u#I#I#I#I#I#I#I#J#J#J#J#J#v#v#k#^+m.K#_+k.D@G#{.f@4#L#y#M#M#M#z#z#=.",
"y#N#;.;.;.;.L#O#*#`.@#}#(.C@k.k.m.R.Q.]+P#P#P#P#v#J#J#J#J#J#J#Q#Q#Q#Q#Q#Q#Q#R#R#R#R#R#S#S#v#2#D@d@_+k.:._.H@T#U#V#W#W#W#W#W#W#y#",
"y#;.;.;.;.L#>.I@p+`.@#q#g#s#k.l.k.D@%#v#S#X#X#X#S#R#R#R#R#R#R#Y#Y#Y#Y#Y#Y#Y#Z#Z#Z#Z#Z#`#`# $v#%#E@d@e@D@%#H@T#c..$W#+$+$+$+$W#W#",
"@$V#V#V#V##$$$U#%${+{.&$_.:.k.l.k.D@*$v#`#`#`#`#`#Z#Z#Z#Z#Z#Z#=$=$=$=$=$=$=$=$=$=$=$=$-$-$-$ $v#j#;$>$##2#,$'$)$!$~$~$~$~$~$+$W#",
"W#.$.$.$.$#$$$M.%${+{.&$_.:.k.l.k.D@*${$`#-$-$-$-$=$=$=$=$=$=$=$=$=$=$=$=$=$=$=$=$=$=$=$=$=$=$`#{$]$2#*$^$ $/$)$($~$~$~$~$~$~$~$",
"_$_$:$:$!$<$)$[$'$}$H@G#|$:.c@l.k.D@^${$-$-$-$-$-$=$=$=$=$=$=$=$=$=$=$=$=$=$=$=$=$=$=$=$=$=$1$2$3$-$ ${${$-$4$<$_$~$~$~$~$~$~$~$",
"~$~$_$_$($5$)$[$'$}$H@G###:.c@l.e@>$^$ $-$-$-$-$-$=$=$=$=$=$=$=$=$=$=$=$=$=$=$=$=$=$=$=$=$=$1$2$2$2$2$-$-$2$6$7$8$9$9$9$9$9$~$~$",
"9$9$9$9$0$7$a$6$b$-${$^$##c$c@c@d$$#u# $-$-$-$-$-$=$=$=$=$=$=$=$=$=$=$=$=$=$=$=$=$=$=$=$=$=$1$2$b$b$b$2$2$b$e$7$8$9$9$9$9$9$9$9$",
"9$9$9$9$0$f$a$6$b$-${$2#>$e@c@d@E@1#I#Y#=$=$=$=$=$=$=$=$=$=$=$=$=$=$=$=$=$=$=$=$=$=$=$=$=$=$1$2$b$b$4$b$b$4$g$h$8$9$9$9$9$9$9$9$",
"9$9$9$9$0$f$a$6$b$-${$2#>$e@c@d@E@1#J#Z#=$=$=$=$=$=$=$=$=$=$=$=$=$=$=$=$=$=$=$=$=$=$=$=$=$=$1$2$b$4$4$4$/$i$j$h$9$9$9$9$9$9$9$9$"};
