/* XPM */
static char * tile123_xpm[] = {
"64 64 256 2",
"  	c #373737",
". 	c #4D4F4D",
"+ 	c #414341",
"@ 	c #5B5B59",
"# 	c #494947",
"$ 	c #535553",
"% 	c #4D4B4D",
"& 	c #3B3D3B",
"* 	c #515153",
"= 	c #474547",
"- 	c #595759",
"; 	c #515351",
"> 	c #4D4D4B",
", 	c #454745",
"' 	c #61615F",
") 	c #595955",
"! 	c #514F51",
"~ 	c #413F41",
"{ 	c #4B494B",
"] 	c #434345",
"^ 	c #575557",
"/ 	c #41413F",
"( 	c #51514D",
"_ 	c #5F5F5D",
": 	c #4B4B47",
"< 	c #3F3D3F",
"[ 	c #3B3B39",
"} 	c #434543",
"| 	c #575755",
"1 	c #514F4D",
"2 	c #5D5B5D",
"3 	c #4B4D4D",
"4 	c #575553",
"5 	c #454747",
"6 	c #4F4D4D",
"7 	c #454341",
"8 	c #4B4947",
"9 	c #3D3F3D",
"0 	c #535353",
"a 	c #656565",
"b 	c #494747",
"c 	c #3B393B",
"d 	c #5D5D5B",
"e 	c #595959",
"f 	c #4F5151",
"g 	c #494B4B",
"h 	c #434545",
"i 	c #575757",
"j 	c #393937",
"k 	c #4D4F4F",
"l 	c #5B5B5B",
"m 	c #3D3D3D",
"n 	c #656361",
"o 	c #414141",
"p 	c #494B49",
"q 	c #3F3F3F",
"r 	c #3D3B3D",
"s 	c #514F4F",
"t 	c #575555",
"u 	c #4F4D4F",
"v 	c #555355",
"w 	c #494749",
"x 	c #5B595B",
"y 	c #535151",
"z 	c #4D4B4B",
"A 	c #434343",
"B 	c #474949",
"C 	c #555555",
"D 	c #555351",
"E 	c #514D4B",
"F 	c #494745",
"G 	c #616161",
"H 	c #595957",
"I 	c #51514F",
"J 	c #5F5F5F",
"K 	c #3B3B3B",
"L 	c #474543",
"M 	c #5D5D5D",
"N 	c #4D4D4F",
"O 	c #454343",
"P 	c #4B4949",
"Q 	c #575353",
"R 	c #5D5959",
"S 	c #474545",
"T 	c #5B5757",
"U 	c #393939",
"V 	c #434143",
"W 	c #4D4B49",
"X 	c #433F3F",
"Y 	c #4F4F4D",
"Z 	c #434341",
"` 	c #5D5B59",
" .	c #555553",
"..	c #3D3D3B",
"+.	c #535153",
"@.	c #535351",
"#.	c #4F4D4B",
"$.	c #474745",
"%.	c #454345",
"&.	c #595557",
"*.	c #43413F",
"=.	c #454543",
"-.	c #595755",
";.	c #534F4D",
">.	c #4D4D4D",
",.	c #595553",
"'.	c #474747",
").	c #514D4D",
"!.	c #3F3F3D",
"~.	c #555353",
"{.	c #676565",
"].	c #4B4747",
"^.	c #5B5959",
"/.	c #515151",
"(.	c #4B4B4B",
"_.	c #454545",
":.	c #595757",
"<.	c #4F4F4F",
"[.	c #5D5B5B",
"}.	c #3F3D3D",
"|.	c #434141",
"1.	c #4B4B49",
"2.	c #413F3F",
"3.	c #534F4F",
"4.	c #595555",
"5.	c #514D4F",
"6.	c #4B4749",
"7.	c #555151",
"8.	c #4F4B4B",
"9.	c #494949",
"0.	c #636161",
"a.	c #5B5957",
"b.	c #53514F",
"c.	c #615F5F",
"d.	c #3D3B3B",
"e.	c #5F5D5D",
"f.	c #474343",
"g.	c #4D4949",
"h.	c #3B3939",
"i.	c #000000",
"j.	c #000000",
"k.	c #000000",
"l.	c #000000",
"m.	c #000000",
"n.	c #000000",
"o.	c #000000",
"p.	c #000000",
"q.	c #000000",
"r.	c #000000",
"s.	c #000000",
"t.	c #000000",
"u.	c #000000",
"v.	c #000000",
"w.	c #000000",
"x.	c #000000",
"y.	c #000000",
"z.	c #000000",
"A.	c #000000",
"B.	c #000000",
"C.	c #000000",
"D.	c #000000",
"E.	c #000000",
"F.	c #000000",
"G.	c #000000",
"H.	c #000000",
"I.	c #000000",
"J.	c #000000",
"K.	c #000000",
"L.	c #000000",
"M.	c #000000",
"N.	c #000000",
"O.	c #000000",
"P.	c #000000",
"Q.	c #000000",
"R.	c #000000",
"S.	c #000000",
"T.	c #000000",
"U.	c #000000",
"V.	c #000000",
"W.	c #000000",
"X.	c #000000",
"Y.	c #000000",
"Z.	c #000000",
"`.	c #000000",
" +	c #000000",
".+	c #000000",
"++	c #000000",
"@+	c #000000",
"#+	c #000000",
"$+	c #000000",
"%+	c #000000",
"&+	c #000000",
"*+	c #000000",
"=+	c #000000",
"-+	c #000000",
";+	c #000000",
">+	c #000000",
",+	c #000000",
"'+	c #000000",
")+	c #000000",
"!+	c #000000",
"~+	c #000000",
"{+	c #000000",
"]+	c #000000",
"^+	c #000000",
"/+	c #000000",
"(+	c #000000",
"_+	c #000000",
":+	c #000000",
"<+	c #000000",
"[+	c #000000",
"}+	c #000000",
"|+	c #000000",
"1+	c #000000",
"2+	c #000000",
"3+	c #000000",
"4+	c #000000",
"5+	c #000000",
"6+	c #000000",
"7+	c #000000",
"8+	c #000000",
"9+	c #000000",
"0+	c #000000",
"a+	c #000000",
"b+	c #000000",
"c+	c #000000",
"d+	c #000000",
"e+	c #000000",
"f+	c #000000",
"g+	c #000000",
"h+	c #000000",
"i+	c #000000",
"j+	c #000000",
"k+	c #000000",
"l+	c #000000",
"m+	c #000000",
"n+	c #000000",
"o+	c #000000",
"p+	c #000000",
"q+	c #000000",
"r+	c #000000",
"s+	c #000000",
"t+	c #000000",
"u+	c #000000",
"v+	c #000000",
"w+	c #000000",
"x+	c #000000",
"y+	c #000000",
"z+	c #000000",
"A+	c #000000",
"B+	c #000000",
"C+	c #000000",
"D+	c #000000",
"E+	c #000000",
"F+	c #000000",
"G+	c #000000",
"# # % { # # / =.# = { 1 ! = O = < < m q 7 P ! z z y 6 P (.! 6 # ~ ] { '.] 9.% <.{ . z 6 >.% = S b P > } % (.P # z _.A '.= = ] = ",
"o { '.# _.S A L O # z # % A A A ~ < ~ A Z A P { z 1 6 z P (.# P A ] { b _.> 6 (.% ! >.(.] (.# y 6 # 6 # % = $.9.= = = b O O A o ",
"+ S # b A '.L O L S z = A 9 < / o A q 2.O = 1 s ! z >.6 6 6 { 6 % # { > z I 6 6 . 0 (.'.# <.# # # { ! # (.% P '.# = A 9.b ] A O ",
"+ '.9._.= S # # S b = 7 / ~ q q o = o ~ S # ! 0 /.s . y > 6 ; . >.z 6 6 P A 9.> # s % p (.Y 9.# = # > # # { '.= = # ] ] $.# = = ",
"= # { # = = , S q A / q ~ o / o o A _.o '.# { ! I * ! s >.6 6 (.> z s P = A (.6 z y P z . 6 A O =.S P '.= P # ] b b _.b O A # = ",
"~ $.b b O b b o A o O A O o A O =.A A P 1 { { y . >.>.% >.{ P '.z > > (.# { % ! 6 s % P z # S 9.z S 6 s P > = O =.= S S ] ] 9.o ",
"= # z O A , , = S A = = S 7 A } S = o } # # 6 0 ! % (.(.% _.+ S ~ # S # $.% > 6 6 s Y % 6 z = # 9.b z s # P =.o , $.= b # S '.P ",
"A S # # { { _.S = # b b O ~ ] %.b # b } b _.0 s 6 % . 9.9.9.+ , / q = # b $.$.'.P { > { > { '.'.'.O z z { # # _._.b '.'.= ] A = ",
"A = { % z = S = A b # { # b 6 z % # 6 > { 6 0 i y (.(.# S = # / o m S 9.$.'.# _.b S S , { % w b S P z z 6 > # # '.P P P P S S A ",
"= = { >.{ = = = b = # _._.# z { = z 6 P p 1 6 z (.{ { # = A o ~ / 9 + = # $.> '._.] = = = 6 (.{ b = > % 1 # { P P # # # p ] # S ",
"# '.b { # '.= = S Z O =.# S b O # # # P 6 s s 6 (.P # '.'.'.S S L A = A # P (.{ $.= S O { { P b # P P >.6 = > 6 P b P p _.= _.{ ",
"{ P b % . '.A O = L + A O = # = S # % z % 6 > 6 z 0 z # P = A |., S Z = S '.] = ] ] # b b # # b # # # % b S = z # b b = # b O P ",
"6 z $.'.# O A A ] A A A _.# # 9.p 6 > 9.z 6 # z 0 s y 1 6 (.+ A S O A # _.] S A A = # # % P # b , z z % P b =.z # S b O { _.P y ",
"6 # S =.O S o , = b # S O _.A % 6 ! % (.6 z z P s $ :.s # b # # # 1 # % S ] # '.# # 9.b { p # P b z 6 > P # = # # , # = b + b 6 ",
"> S = # P O A A L S = b # P { P z Y s s 6 6 z 6 6 ! 4 1 w S S # = S $.z # = = ] S = P b (.>.z # { P { 6 1 % # # = S '.b b b b P ",
"b = z % % A ] A ] A A O b '.# { b > <.% s z 1 1 6 . y % { 9.# # S b $.= 9.A A A O O b = # { # % > z 6 y y . # b # # 9.= # P { # ",
"= = > P S O =.A A O A = = z P >.P z 6 6 y 6 s % . s % b _.# # # S P # b = = O A O A = # # 9.b b 1 1 y ! * % P b + S b A =.# # S ",
"{ # # b S P = S A '.$.$.S % % z { Y y s 1 y > 6 s s 1 b # % % # S = S A _.O _.'.O = # # z { P z % I s <.>.% 9.S A = b # > P b O ",
"z b S b b # A = # z P { # P > % { { > s y 1 % t y 6 P '.P { P P A o 9.A = # b O S = = $.P P 6 z z 1 % . % % b = _.# # # > P { 1 ",
"y 0 b b S { # A L b P # P { 6 > { > ! s % { s 6 z Y > S # A + _.# S (.# # _.= S P A 7 S P # P > 6 y y s = = # = '.# b b 6 # > t ",
"0 ^ s P = 8 # '.# P 6 P 6 { % % P 6 Y ! . 6 1 ; (.. % P = S = } S { % '.# = _.= = # b # { # = P 6 ! s z S ] ] _.{ b { > > > 6 4 ",
"y 6 z P F b O = 6 z 6 6 6 6 P 6 Y . . . 1 ! 6 % 6 6 s 6 P O _.A (.s % % = # b # # s % # 9.{ # { (.z # 9.# = o ] # , P { > s 6 % ",
"! > P b L A ~ b 6 > 6 ! y % s 6 z (.{ s y % (.(.>.s s 6 # ] + A = > { # b 6 % s 6 6 1 % 9.b # 6 y y z b = _.A S _.b 6 P 6 s { # ",
"P = L O O A O O z P S 6 y . <.>.z 6 z 6 s , { > 9.{ . # = A / A # (.6 { 6 6 ! 0 > y y P 9.P 6 y ! > P # { S A ] ] S P P { p # # ",
"b = b b S O = , z b A { <.s Y 6 % y 6 Y 1 $.z >.% % (.# ] A + A _.= z b 6 ! 4 0 6 > > z # P s 1 4 ! 6 9.9.= = _.S S b = b = = { ",
"z { S } L # P b { z b S P 6 6 Y % 0 s p y s % z ! % <.{ P P S b # { P # (.s t > 6 I 6 % P # . P z >.{ # '.{ 9.# # S S # P P { 0 ",
"0 6 S L S = b { (.# b '.% ; 6 % > ! 0 6 0 6 % % 6 6 b P P P = A |.= (.% s 6 y y s s . P = P 6 6 > P % S A { w P P = # # # z P D ",
"z = # $.A A { # $.= % (.>.y * >.{ { s z 0 ! 6 ! % { > = { P z P % # # # z # y ! 6 v y z { b # 6 z b % = = y z = # = # _.# z 6 4 ",
"A ] = = A o A P 6 6 s P 6 ; 0 6 # # 6 . % ! <.<.z z P % Y 9.z (._.~ # (.= ] { >.z 0 P = = # # z s /.C 6 P 0 { =.'.'.{ { { p { s ",
"A A b L ~ q S 9.z ! ! % Y s 0 6 z 6 <.s 6 ! . . 6 { P 9.p { >.# b S z # P 9.9.P # { '.# % # # { % 0 $ >.s ! # b = = { z b A b # ",
"%.S A } A q 9.Y z 4 ! s s >.$.z 0 P % ! t 0 s y 6 # = { # >.% '.= <.s 6 z 9.# = O _.# $.y z S b 0 <.! { 6 A = b b % 6 6 # S P P ",
"+ A O O ~ o # /.% ! 6 > Y 0 P % s % % z $ 0 y y Y # b b z z 9.P 9.! 6 { ] # S O b O = O P # = 6 b o = , # b { # # ! 6 z 6 z (.S ",
"b o b S A # (.! >.! >.. 6 ! z P # 6 0 # ! * s % s { '.p = b A b P # % (., = ~ O # b P 6 6 = O # < < m q ~ # 6 # { 0 y % { > % S ",
". A # , } I <.{ 6 ! . 6 # 6 % | 6 9./.% >.% z P # z P (.# b A ~ + P = # _.S + + A # z P % L A A / 2.+ A q A # # # 6 y z O (.. + ",
"# ~ A # { $ <.6 s $ 6 { z ! z % % % 0 z u ! { 9.z P b { # S = =.A , b '.A = A / A S z S o < < q + S A Z O # % s ! z 6 1 # z >.A ",
"= _.6 # '.S 9.> { y > P % y z P # { > P P s z { b = =.S { 9.b b A '.P O A A S S A A + q m / q q / '.A o = P s /.0 y >.0 6 P z } ",
"(.z 1 # =.A w (.p 6 P z > s O _._.'.% % > y 6 { { '.] '.9.# { # _.'.{ # L = O o 9 / q q < ~ q ~ o ] b ] # 9.>. .* v y . s (.6 = ",
"z > > { P { { % z z b = # b S b p S 6 s { % P P z P $., = b # o ~ S # # S # b A S o O A } q o ] =.O = > s z z ! <.y /.6 s 6 % '.",
"=.P z { # % 6 z 6 > { { # '.S = b ] { ! P P # # s 9.# 9.z P { P O b > b S = $.# '.] b S S o + A = # A L P b <./.y > 6 > 6 # b '.",
"A ] # # # 9.> { 9.# b # # # # b '.] 9.{ { % { 9.{ b _.z P P b P } ] z z % z '.'.b # = b o q A A $._.'.S P P 0 s 0 s # # P % = '.",
"A ~ # (.# '.9.b # S A A P P P # = P # p > 1 P P b , # = { = $.= ] b { z { P { p =.# P # ] = % (.p b % # { 6 0 i ! # P # b # (.A ",
"O + # { # _.{ w P O = = = 6 z (.b = > % <.% > P p b b = # b P # # P (.(.{ > 6 % > P p O A '.9.= ] # % # # . ! /./.P = '.'.A o o ",
"A + '.A '.'.9.z # = # = 6 % P p # b { 6 z > 6 6 P # # = = # P 6 z # z 6 { = { { P = = S , = b ] = = # # z ! ! ! % # b { '.} ~ o ",
"] O o _.= = A = S A # # P { { b # = { 6 P = = P P P = b { # P z % % z ! ~.P # # z b A b = # z # _.# z b # { { y s % 9.P # o q q ",
"+ ] ] # # ] A A O P b # 6 { P A O { (.z # S O b b # P = # # # > { # # z 6 P # # z = =.O # P { b 9.! z S # (., . s > z z # { ~ ~ ",
"P 6 { z O A _.S b = = b z { (.$.'.P s . { S b = # P z b # O = z % # S = b # # P { P b = # b = { % y % 9.{ P { { > % Y 9.] S b P ",
"b = # >.'.] _.] ] ] b = % s % = 9.= p > % P # $.= b # 9.b = P 6 6 b S b = _.= $.A = P { P P S P > % 6 6 6 { 9.# 9.(.6 P O A S # ",
"O L # P % =.O A A A b b % 6 { z 6 % % s 6 z = = 9.% { b # # % > 1 > % z { = b # b S L S # S A } O (.. 6 s P % % 6 % ! { { 9.P # ",
"} # b ] O _.'.S A ~ ] # 6 1 p # Y . <.<.y 6 p b L # # O _.$.# P { (.1 > = _.# # = # A b S 9.$.# = { { >.> (.Y >.. > > { = # P b ",
"$.P # + ] ] = { = # P P 6 > z z 6 ! % % . <.(.# S z { P z P b = { b b b b '.S S A P # b = { 9.= b 9.z > % >.z { > # # '.P % { $.",
"S A z O # 9.P b # # = { s y y (.b (.P z (.<.P { 6 6 z z > P P > # '.A $.O _.O = , P '.{ b # # = # b # % % p z y 1 9.# O p P '.{ ",
"# b 6 (.> # # b (.7 A = 6 6 s . % s s y 9.9.6 { > % > % 6 { P 0 y ~.b S A $.p A L '.'.= b = 9.= b { (.(.P # 1 6 P s { A '.O S b ",
"b % ! 6 6 > # '.= # z P 1 > 9.P 1 y 6 z % b z 6 % 9.% > 9.P # s s ^ ! # A S # # # P % '.% p P P # >.% 6 6 6 6 0 { % % = _.= # S ",
"% y y I b 6 { '.b ! > z > 6 # P > % { ! s s 6 0 s > y z (.z P # > 9.b = o S , # 6 { % { p P 9.6 . > 6 . s 6 > 6 % P { { # b # S ",
"'.{ # { O 0 . # # % z 1 P $.= > s 0 s b > 1 (.% { ! 0 ! ~.D 6 8 s z = = b O A =.6 s s ! s (.6 6 { { % s s z (.% % > % = O b O _.",
"# (.6 z { t * > $.{ # S '.b { z > { z 6 t { % { % <.! ! 6 y { b P z 7 ~ A O 8 b % z = 6 /.6 s 6 z % { 6 % S 9.>.# { * _._.= A A ",
"A L % b (.y 6 b = { # _.A # P p ! y 0 y 6 ! C y z s s 1 { # S P P b A A O L # z s P = p 1 . 6 s 6 y z >.z = 6 s >.(.. z b # O A ",
"S >.z # { % 6 + A # $., S } % b P { % % $.s 0 6 % I y 6 % # S ! (.> o ~ Z b > 6 y ; z b { 6 6 ! 6 0 y P ! s s 6 . w z % 6 ! , =.",
"7 P % P (.P P A + ~ o o L 7 # P P O 9.# _.# # ! y z z P = P A 6 C /._.q A S P 6 s 6 z { ! ^ s >.6 s s { y 6 6 % % z b 9.z z b o ",
"% z # z P A P b O S A O # A A P z = 6 z b 0 9.(.z ! Y # { 6 > 0 * % _.A A A P P P S z % ! ^ 0 >.{ p 6 { /.<.% 6 z { % # z b % P ",
"# A { s = + = P S { A o = P S P y 0 - 0 6 | { b { <.! y % z # y i 0 = L A + %.(.6 6 ! P !  .$ 6 b (.s 6 . ! 6 1 (.(.9.6 /.# > z ",
"P # P '.# 9.= S O '._.= 6 { S # % t ^ ! $ ^ # '.b z <.. b A O # s I b S o / _.(.% * y % % s y 1 P % . 6 <.! s . (.'.= 9.p { >.# ",
"b s 6 % (.9.'.A ~ o b S 6 # A ] 0 6 ! { 6 L = # # s ! % # A = = 9.# } $.A ~ = ! > 0 s s 1 % _.z . '.# 6 0  .y y z S ] $.= (.{ _.",
"b <.% 9.+ S A o O / b O # '.S z b o , S P P z $.# 0 Y P % b O S A ] A = A A b I % Y % > 6 y $.P 6 { # { ! y 6 6 (.O A A '.P # # "};
