/* XPM */
static char *_031e3090c3b49c39353fb98b4e80610HV53OjgzvDM8lZeE[] = {
/* columns rows colors chars-per-pixel */
"128 128 8 1 ",
"  c #00000000",
". c #84240C",
"X c #F22A2A",
"o c #F27D0C",
"O c #F07F13",
"+ c #E1A041",
"@ c #FDCF58",
"# c #F1C27D",
/* pixels */
"                                                                                                                                ",
"                                                                                                                                ",
"                                                                                                                                ",
"                                                                                                                                ",
"                                                                                                                                ",
"                                                                                                                                ",
"                                                                                                                                ",
"                                                                                                                                ",
"                                                                                                                                ",
"                                                                                                                                ",
"                                                                                                                                ",
"                          X            XX                                                                                       ",
"                          XX           XXX       XX                                                                             ",
"                         XXX           XXX       XXX                                                                            ",
"                         XXX          XXXX       XXX                                                                            ",
"                         XXX          XXXXX      XXXX                                                                           ",
"                         XXXX        XXXXXX      XXXX                                                                           ",
"                        XXXXX       XXXXXXX      XXXX                                                                           ",
"                       XXXXXX      XXXXXXXXX    XXXoX                                                                           ",
"                       XXXXXX      XXXXXXXXX    XXXoX                                                                           ",
"                       XXXXXXX     XXXXXXXXXXXXXXXooX                                                                           ",
"                      XXXXXXXX    XXXXooXXXXXXXXXXooX    XX                                                                     ",
"                      XXXXoXXXX XXXXXooooXXXXXXXXoooXXX  XXXX                                                                   ",
"                     XXXXXoXXXX XXXXooooooXXXXXXooooXX   XXXXX                                                                  ",
"                     XXXXXoXXXXXXXXXoooooooXXXXXooooXX    XXXX                                                                  ",
"                     XXXXoooXXXXXXXooooooooooXXoooooXX    XXXXX                                                                 ",
"                    XXXXXooooXXXXXXoooooooooooooooooXX    XXXXX                                                                 ",
"                    XXXXoooooXXXXoooooo@@oooooooooooXXX  XXXXXX                                                                 ",
"                   XXXXXooooooXXXoooO@@@@oooooo@@ooooXXXXXXXXXXX                                                                ",
"                   XXXXooooooooXXooOO@@@@ooo@@@@@ooooXXoooXXXXXXXX                                                              ",
"                   XXXXooooooooooooo@@@@@ooo@@@@@ooooooooooooXXXXX                                                              ",
"                   XXXXooooooooooooo@@@@@ooo@@@@@ooooooooooooXXXXX                                                              ",
"                   XXXoo@@@ooooooooo@@@oooo@@@@@@ooooo@@@oooXXXXXX                                                              ",
"                   XXXoo@@@ooooooo@@@@@ooo@@@@@@@oooo@@@@@oooXXXX                                                               ",
"                   XXXoo@@@ooooooo@@@@@oo@@@@@@@@ooo@@@@@@ooXXXX                                                                ",
"                   XXXXo@@@@@ooo@@@@@oooo@@@@@@@@@@@@@@@ooooXXX                                                                 ",
"                    XXXo@@@@@ooo@@@@@oooo@@@@@@@@@@@@@oooooXXX                                                                  ",
"                    XXXo@@@@@ooo@@@@@oo@@@@@@@@@@@@@@oooooXXXX                                                                  ",
"                    XXXo@@@@@@@@@@@@@@@@@@@@@@@@@@@@@ooooXXXX                                                                   ",
"                    XXXo@@@@@@@@@@@@@@@@@@@@@@@@@@@@ooooXXXX                                                                    ",
"                    XXXo@@@@@@@@@@@@@@@@@@@@@@@@@@@oooXXXXX                                                                     ",
"                    XXXooo@@@@@@@@@@@@@@@@@@@@@ooooooXXXXX                                                                      ",
"                    XXXoooo@@@@@@@@@@@@@@@@@@@oooooXXXXX                                                                        ",
"                     XXXooooo@@@@@@@@@@@@@@@oooooXXXXXX                                                                         ",
"                     XXXooooooo@@@@@@@@@@@@ooooooXXXXX                                                                          ",
"                     XXXXXoooooo@@@@@@@@@@oooooXXXXX                                                                            ",
"                        XXXXXoooo@@@@@@@@ooooXXXXXX                                                                             ",
"                        XXXXXooooo@@@@@@@ooooXXXXX                                                                              ",
"                           XXXXoooooooooooooXXXX                                                                                ",
"                           XXXXXooooooooooooXXXX                                                                                ",
"                               XXXXXXXXXXXXXXXXX                                                                                ",
"                               XXXXXXXXXXX...                                                                                   ",
"                               XXXXXXXXXXX...                                                                                   ",
"                                 ............                                                                                   ",
"                                 ............                                                                                   ",
"                                 ............                                                                                   ",
"                                 ............                                                                                   ",
"                                 ............                                                                                   ",
"                                 ............                                                                                   ",
"                                 ............                                                                                   ",
"                                 ............                                                                                   ",
"                                 ............                                                                                   ",
"                                 ............                                                                                   ",
"                                 ............                                                                                   ",
"                                 ............                                                                                   ",
"                                 ............                                                                                   ",
"                                 ............                                                                                   ",
"                                 ............                                                                                   ",
"                                 ............                                                                                   ",
"                                 ............                                                                                   ",
"                                 ............                                                                                   ",
"                                 ............                                                                                   ",
"                                 ............                                                                                   ",
"                                 ............                                                                                   ",
"                                 ............                                                                                   ",
"                                 ............                                                                                   ",
"                                 ............                                                                                   ",
"                                 ............                                                                                   ",
"                                 ............                                                                                   ",
"                                 ............                                                                                   ",
"                                 ............                                                                                   ",
"                                 ............                                                                                   ",
"                                 ............                                                                                   ",
"                                 ............                                                                                   ",
"                                 ............                                                                                   ",
"                                 ............                                                                                   ",
"                                 ............                                                                                   ",
"                                 ............                                                                                   ",
"                                 ............                                                                                   ",
"                                 ............                                                                                   ",
"                                 ............                                                                                   ",
"                                 ............                                                                                   ",
"                                 ............                                                                                   ",
"                                 ............                                                                                   ",
"                                 ............                                                                                   ",
"                                 ............                                                                                   ",
"                               ###...........                                                                                   ",
"                               ###...........                                                                                   ",
"                              #####.........#####                                                                               ",
"                              +######.....########                                                                              ",
"                              +######.....########                                                                              ",
"                              +++######..###########                                                                            ",
"                              #++++####..###########                                                                            ",
"                              #++++####..###########                                                                            ",
"                             #####++++#..#########++#                                                                           ",
"                             ########++.....#####+++####                                                                        ",
"                             ########++.....#####+++####                                                                        ",
"                             +###########...#####+##+#######                                                                    ",
"                             ++++########...#####+##+########                                                                   ",
"                             ++++########...#####+##+#########                                                                  ",
"                             ##+++++++###...####++##+###########                                                                ",
"                             +#######++.....####+###+############                                                               ",
"                             +#######++.....####+###+##############                                                             ",
"                              +++######.....####+###+################                                                           ",
"                                 ++++++.....####+#+++##################                                                         ",
"                                 ++++++.....####+#+++####################                                                       ",
"                                 ...........#### #++#######################                                                     ",
"                                 ............    ############################                                                   ",
"                                 ............    ##############################                                                 ",
"                                 ............       #############################                                               ",
"                                 ............         #############################                                             ",
"                                                      ###############################                                           ",
"                                                         ###############################                                        ",
"                                                            ###############################                                     ",
"                                                            ###################################                                 ",
"                                                               ###################################                              ",
"                                                                 ##################################                             ",
"                                                                   #################################                            "
};
