/* XPM */
static char *_61b09a82f68467a8a5d1e11f6b367ccvJcQdN7qxjr2JTIm[] = {
/* columns rows colors chars-per-pixel */
"128 128 8 1 ",
"  c #00000000",
". c #84240C",
"X c #F22A2A",
"o c #F27D0C",
"O c #F07F13",
"+ c #E1A041",
"@ c #FDCF58",
"# c #F1C27D",
/* pixels */
"                                                                                                                                ",
"                                                                                                                                ",
"                                                                                                                                ",
"                                                                                                                                ",
"                                                                                                                                ",
"                                                                                                                                ",
"                                                                                                                                ",
"                                                                                                                                ",
"                                                                                                                                ",
"                                             XXXXXXX                                                                            ",
"                        X                   XXXXXXXX XX                                                                         ",
"                        X                 XXXXXXX    XXX                                                                        ",
"                       XX                 XXXXX      XXX                                                                        ",
"                       XXX               XXXXX        XX                                                                        ",
"                       XXX               XXXX         XX                                                                        ",
"                       XXXX              XXX         XXX                                                                        ",
"                       XXXX              XXXXXX     XXXX                                                                        ",
"                       XXXX          XXXXXXXX     XXXXX                                                                         ",
"                       XXXX         XXXXXXXXX     XXXXX                                                                         ",
"                       XXXX         XXXXXXXXX     XXXXX                                                                         ",
"                       XXXXX      XXXXXooXXXX    XXXXXX                                                                         ",
"                       XooXX      XXXXXooXXXX    XXXXXX                                                                         ",
"                     XXXooXX    XXXXXXXooXXXXXXXXXXXXXX           XX                                                            ",
"                     XXXooXXX   XXXXXoooooXXXXXXXoXXXXX          XXX                                                            ",
"                     XXXooXXX   XXXXXoooooXXXXXXXoXXXXX         XXXX                                                            ",
"                     XXXooXXX  XXXXXXoooooXXXoooooXXXXX        XXXX                                                             ",
"                     XXooooXX  XXXXXXoooooXXXoooooXXXXX        XXX                                                              ",
"                   XXXXo@ooXXXXXXXoooo@@ooooooooooooXXX        XXX                                                              ",
"                   XXXXo@@ooXXXXXXOOO@@@ooooooo@@oooXXX      XXXXX                                                              ",
"                   XXXXo@@@oXXXXXXOO@@@@@ooo@@@@@oooXXX    XXXXXXXX                                                             ",
"                   XXXXo@@@ooXXoooo@@@@@@oo@@@@@@oooXXX  XXXXXXooX                                                              ",
"                   XXXXo@@@ooXXooo@@@@@@@@o@@@@@ooooXXX XXXXXXXooX                                                              ",
"                   XXXXo@@@@oXXooo@@@@@@@@@@@@@ooooooXXXXoXXXXoooX                                                              ",
"                   XXXXo@@@@ooooo@@@@@@@@@@@@@ooooo@oooooooooooXXX                                                              ",
"                   XXXXo@@@@oooo@@@@@@@@@@@@@@oooo@@@o@@@@oooooXXX                                                              ",
"                   XXXXo@@@@@ooo@@@@@@@@@@@@@@@@o@@@o@@@@oooooXXX                                                               ",
"                   XXXXo@@@@@@o@@@@@@@@@@@@@@@@@@@@@@@@@ooooooXXX                                                               ",
"                   XXXXo@@@@@@@@@@@@@@@@@@@@@@@@@@@@@@@oooooXXXXX                                                               ",
"                   XXXXo@@@@@@@@@@@@@@@@@@@@@@@@@@@@@@@ooXXXXXX                                                                 ",
"                   XXXXo@@@@@@@@@@@@@@@@@@@@@@@@@@@@@@@ooXXXXXX                                                                 ",
"                   XXXXo@@@@@@@@@@@@@@@@@@@@@@@@@@@@oooooXXX                                                                    ",
"                   XXXXooo@@@@@@@@@@@@@@@@@@@@@oooooooXXXXXX                                                                    ",
"                   XXXXoooo@@@@@@@@@@@@@@@@@@@ooooooooXXXXXX                                                                    ",
"                     XXXooooo@@@@@@@@@@@@@@@oooooXXXXXXXXX                                                                      ",
"                     XXXooooooo@@@@@@@@@@@@ooooooXXXXXXXXX                                                                      ",
"                     XXXXXoooooo@@@@@@@@@@oooooXXXXXXXX                                                                         ",
"                        XXXXXoooo@@@@@@@@ooooXXXXXXX                                                                            ",
"                        XXXXXooooo@@@@@@@ooooXXXXXXX                                                                            ",
"                           XXXXoooooooooooooXXXXXX                                                                              ",
"                           XXXXXooooooooooooXXXXXX                                                                              ",
"                               XXXXXXXXXXXXXXXXXX                                                                               ",
"                               XXXX..XXXXXXXXX                                                                                  ",
"                                 .........XXX                                                                                   ",
"                                 ............                                                                                   ",
"                                 ............                                                                                   ",
"                                 ............                                                                                   ",
"                                 ............                                                                                   ",
"                                 ............                                                                                   ",
"                                 ............                                                                                   ",
"                                 ............                                                                                   ",
"                                 ............                                                                                   ",
"                                 ............                                                                                   ",
"                                 ............                                                                                   ",
"                                 ............                                                                                   ",
"                                 ............                                                                                   ",
"                                 ............                                                                                   ",
"                                 ............                                                                                   ",
"                                 ............                                                                                   ",
"                                 ............                                                                                   ",
"                                 ............                                                                                   ",
"                                 ............                                                                                   ",
"                                 ............                                                                                   ",
"                                 ............                                                                                   ",
"                                 ............                                                                                   ",
"                                 ............                                                                                   ",
"                                 ............                                                                                   ",
"                                 ............                                                                                   ",
"                                 ............                                                                                   ",
"                                 ............                                                                                   ",
"                                 ............                                                                                   ",
"                                 ............                                                                                   ",
"                                 ............                                                                                   ",
"                                 ............                                                                                   ",
"                                 ............                                                                                   ",
"                                 ............                                                                                   ",
"                                 ............                                                                                   ",
"                                 ............                                                                                   ",
"                                 ............                                                                                   ",
"                                 ............                                                                                   ",
"                                 ............                                                                                   ",
"                                 ............                                                                                   ",
"                                 ............                                                                                   ",
"                                 ............                                                                                   ",
"                                 ............                                                                                   ",
"                                 ............                                                                                   ",
"                                 ............                                                                                   ",
"                               ###...........                                                                                   ",
"                               ###...........                                                                                   ",
"                              #####.........#####                                                                               ",
"                              +######.....########                                                                              ",
"                              +######.....########                                                                              ",
"                              +++######..###########                                                                            ",
"                              #++++####..###########                                                                            ",
"                              #++++####..###########                                                                            ",
"                             #####++++#..#########++#                                                                           ",
"                             ########++.....#####+++####                                                                        ",
"                             ########++.....#####+++####                                                                        ",
"                             +###########...#####+##+#######                                                                    ",
"                             ++++########...#####+##+########                                                                   ",
"                             ++++########...#####+##+#########                                                                  ",
"                             ##+++++++###...####++##+###########                                                                ",
"                             +#######++.....####+###+############                                                               ",
"                             +#######++.....####+###+##############                                                             ",
"                              +++######.....####+###+################                                                           ",
"                                 ++++++.....####+#+++##################                                                         ",
"                                 ++++++.....####+#+++####################                                                       ",
"                                 ...........#### #++#######################                                                     ",
"                                 ............    ############################                                                   ",
"                                 ............    ##############################                                                 ",
"                                 ............       #############################                                               ",
"                                 ............         #############################                                             ",
"                                                      ###############################                                           ",
"                                                         ###############################                                        ",
"                                                            ###############################                                     ",
"                                                            ###################################                                 ",
"                                                               ###################################                              ",
"                                                                 ##################################                             ",
"                                                                   #################################                            "
};
